<svg width="181" height="51" viewBox="0 0 181 51" fill="none" xmlns="http://www.w3.org/2000/svg">
<path d="M179.5 44.97C179.5 47.6554 177.209 49.8306 174.374 49.8306H6.63243C3.7995 49.8306 1.5 47.6554 1.5 44.97V6.20826C1.5 3.52414 3.7995 1.34131 6.63243 1.34131H174.373C177.209 1.34131 179.499 3.52414 179.499 6.20826L179.5 44.97Z" fill="black"/>
<path d="M173.833 1.40025C176.92 1.40025 179.432 3.77335 179.432 6.68972V44.4829C179.432 47.3993 176.92 49.7723 173.833 49.7723H7.16667C4.08 49.7723 1.56833 47.3993 1.56833 44.4829V6.68972C1.56833 3.77335 4.08 1.40025 7.16667 1.40025H173.833ZM173.833 0.390863H7.16667C3.50167 0.390863 0.5 3.22692 0.5 6.68972V44.4829C0.5 47.9457 3.50167 50.7817 7.16667 50.7817H173.833C177.498 50.7817 180.5 47.9457 180.5 44.4829V6.68972C180.5 3.22692 177.498 0.390863 173.833 0.390863Z" fill="#A6A6A6"/>
<path d="M40.6707 25.314C40.632 21.2537 44.1894 19.2784 44.352 19.1864C42.3374 16.4112 39.2147 16.032 38.1174 16.0017C35.4947 15.741 32.9507 17.4845 31.6147 17.4845C30.252 17.4845 28.1947 16.0269 25.9774 16.0698C23.124 16.1113 20.4547 17.6722 18.9907 20.096C15.9694 25.0381 18.2227 32.3007 21.1174 36.2954C22.5654 38.2518 24.2574 40.4363 26.472 40.3594C28.6387 40.275 29.448 39.0543 32.0627 39.0543C34.6534 39.0543 35.4134 40.3594 37.672 40.3103C39.9974 40.275 41.4614 38.3451 42.8587 36.371C44.532 34.1286 45.204 31.9202 45.2307 31.8068C45.176 31.7892 40.7147 30.1805 40.6707 25.314Z" fill="white"/>
<path d="M36.404 13.3739C37.5694 11.9969 38.3667 10.1237 38.1454 8.22266C36.4587 8.2932 34.3494 9.32496 33.1347 10.6717C32.06 11.8584 31.1 13.8034 31.348 15.6326C33.2427 15.7662 35.188 14.7294 36.404 13.3739Z" fill="white"/>
<path d="M72.0266 40.0785H68.9986L67.34 35.1541H61.5746L59.9946 40.0785H57.0466L62.7586 23.3135H66.2866L72.0266 40.0785ZM66.84 33.088L65.34 28.7103C65.1813 28.2631 64.884 27.21 64.4453 25.5521H64.392C64.2173 26.2651 63.936 27.3183 63.5493 28.7103L62.076 33.088H66.84Z" fill="white"/>
<path d="M86.716 33.8856C86.716 35.9416 86.128 37.5667 84.952 38.7597C83.8987 39.8217 82.5907 40.352 81.0293 40.352C79.344 40.352 78.1333 39.7801 77.396 38.6362H77.3427V45.0044H74.5V31.9695C74.5 30.677 74.464 29.3504 74.3947 27.9899H76.8947L77.0533 29.906H77.1067C78.0547 28.4623 79.4933 27.7417 81.424 27.7417C82.9333 27.7417 84.1933 28.3048 85.2013 29.4323C86.212 30.5611 86.716 32.0451 86.716 33.8856ZM83.82 33.9839C83.82 32.8072 83.54 31.8372 82.9773 31.0738C82.3627 30.2776 81.5373 29.8795 80.5027 29.8795C79.8013 29.8795 79.164 30.1013 78.5947 30.5384C78.024 30.9793 77.6506 31.555 77.476 32.2681C77.388 32.6006 77.344 32.8728 77.344 33.0869V35.1025C77.344 35.9819 77.6293 36.7239 78.2 37.3298C78.7707 37.9358 79.512 38.2381 80.424 38.2381C81.4947 38.2381 82.328 37.8476 82.924 37.0691C83.5213 36.2893 83.82 35.2613 83.82 33.9839Z" fill="white"/>
<path d="M101.432 33.8856C101.432 35.9416 100.844 37.5667 99.6666 38.7597C98.6146 39.8217 97.3066 40.352 95.7453 40.352C94.0599 40.352 92.8493 39.7801 92.1133 38.6362H92.0599V45.0044H89.2173V31.9695C89.2173 30.677 89.1813 29.3504 89.1119 27.9899H91.6119L91.7706 29.906H91.8239C92.7706 28.4623 94.2093 27.7417 96.1413 27.7417C97.6493 27.7417 98.9093 28.3048 99.9199 29.4323C100.927 30.5611 101.432 32.0451 101.432 33.8856ZM98.5359 33.9839C98.5359 32.8072 98.2546 31.8372 97.6919 31.0738C97.0773 30.2776 96.2546 29.8795 95.2186 29.8795C94.5159 29.8795 93.8799 30.1013 93.3093 30.5384C92.7386 30.9793 92.3666 31.555 92.1919 32.2681C92.1053 32.6006 92.0599 32.8728 92.0599 33.0869V35.1025C92.0599 35.9819 92.3453 36.7239 92.9133 37.3298C93.4839 37.9345 94.2253 38.2381 95.1399 38.2381C96.2106 38.2381 97.0439 37.8476 97.6399 37.0691C98.2373 36.2893 98.5359 35.2613 98.5359 33.9839Z" fill="white"/>
<path d="M117.885 35.3771C117.885 36.8032 117.361 37.9634 116.309 38.8591C115.153 39.838 113.544 40.3267 111.476 40.3267C109.567 40.3267 108.036 39.9791 106.877 39.2824L107.536 37.0438C108.784 37.7568 110.153 38.1146 111.645 38.1146C112.716 38.1146 113.549 37.8853 114.148 37.4293C114.744 36.9732 115.041 36.361 115.041 35.5976C115.041 34.9173 114.796 34.3441 114.304 33.8792C113.815 33.4144 112.997 32.9823 111.856 32.5829C108.749 31.4882 107.197 29.8845 107.197 27.7756C107.197 26.3975 107.741 25.2674 108.831 24.3881C109.916 23.5075 111.364 23.0679 113.175 23.0679C114.789 23.0679 116.131 23.3337 117.201 23.864L116.491 26.0535C115.491 25.5395 114.36 25.2826 113.095 25.2826C112.095 25.2826 111.313 25.5156 110.753 25.9792C110.28 26.3937 110.043 26.8988 110.043 27.4972C110.043 28.1599 110.313 28.7079 110.857 29.1387C111.331 29.5368 112.191 29.9676 113.439 30.4325C114.965 31.0133 116.087 31.6923 116.808 32.4708C117.527 33.2468 117.885 34.2181 117.885 35.3771Z" fill="white"/>
<path d="M127.284 30.0053H124.151V35.8746C124.151 37.3674 124.703 38.1132 125.809 38.1132C126.317 38.1132 126.739 38.0716 127.072 37.9885L127.151 40.028C126.591 40.2258 125.853 40.3253 124.94 40.3253C123.817 40.3253 122.94 40.0016 122.307 39.3553C121.676 38.7078 121.359 37.6219 121.359 36.0963V30.0028H119.492V27.9871H121.359V25.7737L124.151 24.9775V27.9871H127.284V30.0053Z" fill="white"/>
<path d="M141.421 33.9345C141.421 35.7926 140.859 37.3182 139.736 38.5112C138.559 39.7395 136.996 40.3517 135.048 40.3517C133.171 40.3517 131.676 39.7634 130.561 38.5868C129.447 37.4102 128.889 35.9249 128.889 34.1348C128.889 32.2615 129.463 30.7271 130.613 29.5341C131.761 28.3398 133.311 27.7427 135.259 27.7427C137.136 27.7427 138.647 28.331 139.787 29.5089C140.877 30.6515 141.421 32.1267 141.421 33.9345ZM138.472 34.0214C138.472 32.9065 138.22 31.9503 137.709 31.1529C137.113 30.1879 136.261 29.7067 135.157 29.7067C134.015 29.7067 133.147 30.1892 132.551 31.1529C132.04 31.9516 131.788 32.9229 131.788 34.0718C131.788 35.1867 132.04 36.1428 132.551 36.939C133.165 37.904 134.024 38.3852 135.132 38.3852C136.217 38.3852 137.069 37.8939 137.684 36.9138C138.208 36.1013 138.472 35.135 138.472 34.0214Z" fill="white"/>
<path d="M150.661 30.3519C150.38 30.3028 150.08 30.2776 149.765 30.2776C148.765 30.2776 147.992 30.6341 147.448 31.3484C146.975 31.9783 146.737 32.7745 146.737 33.7357V40.0786H143.896L143.923 31.7969C143.923 30.4036 143.887 29.135 143.816 27.9911H146.292L146.396 30.3041H146.475C146.775 29.5092 147.248 28.8692 147.896 28.3892C148.529 27.9571 149.213 27.7417 149.951 27.7417C150.213 27.7417 150.451 27.7593 150.661 27.7908V30.3519Z" fill="white"/>
<path d="M163.375 33.4621C163.375 33.9433 163.341 34.3489 163.271 34.6802H154.743C154.776 35.8745 155.188 36.7878 155.98 37.4177C156.699 37.9809 157.628 38.263 158.769 38.263C160.032 38.263 161.184 38.0728 162.22 37.6911L162.665 39.5556C161.455 40.0544 160.025 40.3026 158.376 40.3026C156.392 40.3026 154.835 39.7508 153.701 38.6485C152.571 37.5462 152.004 36.066 152.004 34.2091C152.004 32.3862 152.531 30.8682 153.585 29.6575C154.689 28.365 156.181 27.7188 158.059 27.7188C159.903 27.7188 161.299 28.365 162.247 29.6575C162.997 30.6843 163.375 31.9541 163.375 33.4621ZM160.664 32.7654C160.683 31.9692 160.497 31.2814 160.112 30.7006C159.62 29.9536 158.864 29.5807 157.847 29.5807C156.917 29.5807 156.161 29.9448 155.584 30.6754C155.111 31.2562 154.829 31.9528 154.743 32.7641H160.664V32.7654Z" fill="white"/>
<path d="M65.9 12.9998C65.9 14.4825 65.4293 15.5987 64.4893 16.3483C63.6186 17.0399 62.3813 17.3863 60.7786 17.3863C59.984 17.3863 59.304 17.3536 58.7346 17.2881V9.18647C59.4773 9.07309 60.2773 9.01514 61.1413 9.01514C62.668 9.01514 63.8186 9.32882 64.5946 9.95619C65.464 10.6654 65.9 11.6796 65.9 12.9998ZM64.4266 13.0363C64.4266 12.0751 64.1573 11.3382 63.6186 10.8242C63.08 10.3114 62.2933 10.0544 61.2573 10.0544C60.8173 10.0544 60.4426 10.0822 60.132 10.1401V16.2991C60.304 16.3243 60.6186 16.3357 61.076 16.3357C62.1453 16.3357 62.9706 16.0547 63.552 15.4929C64.1333 14.931 64.4266 14.1122 64.4266 13.0363Z" fill="white"/>
<path d="M73.7119 14.295C73.7119 15.2083 73.4359 15.9566 72.8839 16.5437C72.3052 17.1471 71.5386 17.4482 70.5812 17.4482C69.6586 17.4482 68.9239 17.1597 68.3759 16.5802C67.8292 16.002 67.5559 15.2726 67.5559 14.3933C67.5559 13.4736 67.8372 12.719 68.4026 12.1332C68.9679 11.5474 69.7279 11.2539 70.6852 11.2539C71.6079 11.2539 72.3492 11.5424 72.9106 12.1206C73.4439 12.6825 73.7119 13.4081 73.7119 14.295ZM72.2626 14.3378C72.2626 13.7898 72.1372 13.3199 71.8879 12.9281C71.5946 12.4545 71.1772 12.2176 70.6346 12.2176C70.0732 12.2176 69.6466 12.4545 69.3532 12.9281C69.1026 13.3199 68.9786 13.7974 68.9786 14.3618C68.9786 14.9098 69.1039 15.3797 69.3532 15.7714C69.6559 16.2451 70.0772 16.482 70.6212 16.482C71.1546 16.482 71.5732 16.2413 71.8746 15.7589C72.1332 15.3595 72.2626 14.8858 72.2626 14.3378Z" fill="white"/>
<path d="M84.1866 11.375L82.22 17.3136H80.94L80.1253 14.7348C79.9186 14.0911 79.7506 13.4511 79.62 12.8162H79.5946C79.4733 13.4687 79.3053 14.1074 79.0893 14.7348L78.224 17.3136H76.9293L75.08 11.375H76.516L77.2266 14.1981C77.3986 14.8658 77.54 15.502 77.6533 16.1042H77.6786C77.7826 15.6078 77.9546 14.9754 78.1973 14.2107L79.0893 11.3763H80.228L81.0826 14.1503C81.2893 14.8268 81.4573 15.4781 81.5866 16.1054H81.6253C81.72 15.4945 81.8626 14.8432 82.052 14.1503L82.8146 11.3763H84.1866V11.375Z" fill="white"/>
<path d="M91.4306 17.3133H90.0333V13.9119C90.0333 12.8638 89.6119 12.3397 88.7666 12.3397C88.3519 12.3397 88.0173 12.4833 87.7573 12.7718C87.4999 13.0603 87.3693 13.4004 87.3693 13.7897V17.312H85.9719V13.0716C85.9719 12.5501 85.9546 11.9844 85.9213 11.3722H87.1493L87.2146 12.3007H87.2533C87.4159 12.0122 87.6586 11.7741 87.9773 11.5838C88.3559 11.3621 88.7799 11.25 89.2439 11.25C89.8306 11.25 90.3186 11.4289 90.7066 11.7879C91.1892 12.2276 91.4306 12.8839 91.4306 13.7557V17.3133Z" fill="white"/>
<path d="M95.2839 17.3134H93.8879V8.6499H95.2839V17.3134Z" fill="white"/>
<path d="M103.511 14.295C103.511 15.2083 103.235 15.9566 102.683 16.5437C102.104 17.1471 101.336 17.4482 100.38 17.4482C99.456 17.4482 98.7213 17.1597 98.1746 16.5802C97.6279 16.002 97.3546 15.2726 97.3546 14.3933C97.3546 13.4736 97.636 12.719 98.2013 12.1332C98.7666 11.5474 99.5266 11.2539 100.483 11.2539C101.407 11.2539 102.147 11.5424 102.709 12.1206C103.243 12.6825 103.511 13.4081 103.511 14.295ZM102.06 14.3378C102.06 13.7898 101.935 13.3199 101.685 12.9281C101.393 12.4545 100.975 12.2176 100.433 12.2176C99.8706 12.2176 99.4439 12.4545 99.1519 12.9281C98.9013 13.3199 98.7773 13.7974 98.7773 14.3618C98.7773 14.9098 98.9026 15.3797 99.1519 15.7714C99.4546 16.2451 99.876 16.482 100.42 16.482C100.953 16.482 101.371 16.2413 101.672 15.7589C101.932 15.3595 102.06 14.8858 102.06 14.3378Z" fill="white"/>
<path d="M110.273 17.3134H109.019L108.915 16.6294H108.876C108.447 17.1748 107.835 17.4482 107.04 17.4482C106.447 17.4482 105.967 17.2681 105.605 16.9103C105.277 16.5853 105.113 16.1809 105.113 15.7009C105.113 14.9753 105.433 14.4222 106.077 14.0393C106.72 13.6563 107.624 13.4686 108.788 13.4774V13.3665C108.788 12.5842 108.353 12.1937 107.483 12.1937C106.863 12.1937 106.316 12.3411 105.844 12.6334L105.56 11.7666C106.144 11.4252 106.865 11.2539 107.716 11.2539C109.359 11.2539 110.183 12.0728 110.183 13.7105V15.8974C110.183 16.4908 110.213 16.9632 110.273 17.3134ZM108.823 15.2726V14.3567C107.281 14.3315 106.511 14.7309 106.511 15.5535C106.511 15.8634 106.599 16.0952 106.779 16.2502C106.959 16.4051 107.188 16.482 107.461 16.482C107.768 16.482 108.055 16.39 108.316 16.2073C108.579 16.0234 108.74 15.7903 108.8 15.5044C108.815 15.4401 108.823 15.362 108.823 15.2726Z" fill="white"/>
<path d="M118.213 17.3134H116.973L116.908 16.3597H116.869C116.473 17.0853 115.799 17.4481 114.851 17.4481C114.093 17.4481 113.463 17.1672 112.963 16.6054C112.463 16.0435 112.213 15.3141 112.213 14.4184C112.213 13.4572 112.484 12.6787 113.028 12.084C113.555 11.5297 114.2 11.2526 114.968 11.2526C115.812 11.2526 116.403 11.5209 116.739 12.0588H116.765V8.6499H118.164V15.7134C118.164 16.2917 118.18 16.8246 118.213 17.3134ZM116.765 14.8089V13.8187C116.765 13.6474 116.752 13.5088 116.727 13.403C116.648 13.0856 116.479 12.8185 116.221 12.6031C115.961 12.3876 115.648 12.2793 115.287 12.2793C114.765 12.2793 114.357 12.4746 114.057 12.8664C113.76 13.2581 113.609 13.7583 113.609 14.3693C113.609 14.9563 113.752 15.4325 114.039 15.7991C114.341 16.1896 114.749 16.3849 115.26 16.3849C115.719 16.3849 116.085 16.2224 116.364 15.8961C116.633 15.595 116.765 15.2322 116.765 14.8089Z" fill="white"/>
<path d="M130.164 14.295C130.164 15.2083 129.888 15.9566 129.336 16.5437C128.757 17.1471 127.992 17.4482 127.033 17.4482C126.112 17.4482 125.377 17.1597 124.828 16.5802C124.281 16.002 124.008 15.2726 124.008 14.3933C124.008 13.4736 124.289 12.719 124.855 12.1332C125.42 11.5474 126.18 11.2539 127.139 11.2539C128.06 11.2539 128.803 11.5424 129.363 12.1206C129.896 12.6825 130.164 13.4081 130.164 14.295ZM128.716 14.3378C128.716 13.7898 128.591 13.3199 128.341 12.9281C128.047 12.4545 127.631 12.2176 127.087 12.2176C126.527 12.2176 126.1 12.4545 125.805 12.9281C125.555 13.3199 125.431 13.7974 125.431 14.3618C125.431 14.9098 125.556 15.3797 125.805 15.7714C126.108 16.2451 126.529 16.482 127.073 16.482C127.607 16.482 128.027 16.2413 128.328 15.7589C128.585 15.3595 128.716 14.8858 128.716 14.3378Z" fill="white"/>
<path d="M137.677 17.3133H136.281V13.9119C136.281 12.8638 135.86 12.3397 135.013 12.3397C134.599 12.3397 134.264 12.4833 134.005 12.7718C133.747 13.0603 133.617 13.4004 133.617 13.7897V17.312H132.219V13.0716C132.219 12.5501 132.203 11.9844 132.169 11.3722H133.396L133.461 12.3007H133.5C133.664 12.0122 133.907 11.7741 134.224 11.5838C134.604 11.3621 135.027 11.25 135.492 11.25C136.077 11.25 136.565 11.4289 136.953 11.7879C137.437 12.2276 137.677 12.8839 137.677 13.7557V17.3133Z" fill="white"/>
<path d="M147.081 12.3639H145.543V15.2488C145.543 15.982 145.816 16.3485 146.357 16.3485C146.608 16.3485 146.816 16.3284 146.98 16.2868L147.016 17.2883C146.74 17.3866 146.377 17.4357 145.931 17.4357C145.379 17.4357 144.949 17.277 144.639 16.9595C144.327 16.6421 144.172 16.1079 144.172 15.3584V12.3639H143.253V11.375H144.172V10.2865L145.541 9.896V11.3737H147.08V12.3639H147.081Z" fill="white"/>
<path d="M154.479 17.3134H153.08V13.9372C153.08 12.8727 152.659 12.3398 151.815 12.3398C151.167 12.3398 150.724 12.6484 150.481 13.2657C150.44 13.3955 150.416 13.5542 150.416 13.7406V17.3121H149.02V8.6499H150.416V12.2289H150.443C150.883 11.5776 151.513 11.2526 152.331 11.2526C152.909 11.2526 153.388 11.4315 153.768 11.7905C154.241 12.2377 154.479 12.9029 154.479 13.7822V17.3134Z" fill="white"/>
<path d="M162.109 14.0633C162.109 14.3001 162.091 14.4992 162.057 14.6617H157.867C157.885 15.2488 158.085 15.696 158.473 16.0059C158.828 16.283 159.285 16.4216 159.845 16.4216C160.465 16.4216 161.031 16.3284 161.54 16.1407L161.759 17.0578C161.163 17.3022 160.461 17.4244 159.649 17.4244C158.676 17.4244 157.909 17.1535 157.355 16.6118C156.797 16.0701 156.521 15.3432 156.521 14.4312C156.521 13.5355 156.779 12.7897 157.297 12.1951C157.839 11.5601 158.571 11.2427 159.495 11.2427C160.399 11.2427 161.085 11.5601 161.549 12.1951C161.924 12.699 162.109 13.3226 162.109 14.0633ZM160.776 13.7219C160.787 13.3301 160.695 12.9925 160.505 12.7078C160.263 12.3412 159.893 12.1573 159.393 12.1573C158.937 12.1573 158.565 12.3362 158.281 12.6952C158.049 12.9812 157.912 13.3226 157.867 13.7219H160.776Z" fill="white"/>
</svg>
