<svg width="105" height="79" viewBox="0 0 105 79" fill="none" xmlns="http://www.w3.org/2000/svg">
<path d="M101.171 30.4417H3.96936V34.9477H101.171V30.4417Z" fill="#263238"/>
<path d="M102.473 1H2.52704V33.186H102.473V1Z" fill="white"/>
<path d="M35.0421 1V17.1245H32.5495C29.4035 17.456 27.5668 14.9658 28.2323 11.1446C28.8978 7.32346 18.0997 13.3057 15.6095 11.1446C13.8454 9.61762 20.0696 4.0976 23.8569 1H35.0421ZM84.1221 9.7362C85.9638 14.0922 105.454 1.968 101.111 8.94728C96.7666 15.9266 92.2872 20.6673 102.033 18.5619L102.473 18.4579V1H93.2262C88.8048 3.30626 82.9484 6.97256 84.1221 9.7362Z" fill="#F54748"/>
<path opacity="0.5" d="M35.0421 1V17.1245H32.5495C29.4035 17.456 27.5668 14.9658 28.2323 11.1446C28.8978 7.32346 18.0997 13.3057 15.6095 11.1446C13.8454 9.61762 20.0696 4.0976 23.8569 1H35.0421ZM84.1221 9.7362C85.9638 14.0922 105.454 1.968 101.111 8.94728C96.7666 15.9266 92.2872 20.6673 102.033 18.5619L102.473 18.4579V1H93.2262C88.8048 3.30626 82.9484 6.97256 84.1221 9.7362Z" fill="white"/>
<path d="M102.473 1H2.52704V33.186H102.473V1Z" stroke="#263238" stroke-linecap="round" stroke-linejoin="round"/>
<path d="M70.0184 1H34.9792V33.186H70.0184V1Z" fill="white"/>
<path d="M58.3274 18.182C54.4868 20.2341 43.396 29.1905 38.5173 33.186H70.0208V1.39685C65.9068 3.07149 50.2276 9.61033 49.3637 12.132C48.3667 15.036 63.3077 15.52 58.3274 18.182Z" fill="#F54748"/>
<path opacity="0.5" d="M58.3274 18.182C54.4868 20.2341 43.396 29.1905 38.5173 33.186H70.0208V1.39685C65.9068 3.07149 50.2276 9.61033 49.3637 12.132C48.3667 15.036 63.3077 15.52 58.3274 18.182Z" fill="white"/>
<path d="M70.0184 1H34.9792V33.186H70.0184V1Z" stroke="#263238" stroke-linecap="round" stroke-linejoin="round"/>
<path d="M72.3295 13.2476C73.3677 15.5272 76.2862 17.2745 77.6922 17.698C77.6922 17.698 81.4578 19.0144 84.2819 16.8316C87.106 14.6488 87.728 10.4138 85.0636 6.29008C82.3991 2.1664 76.7073 3.05454 74.2679 5.37532C71.8286 7.6961 71.2938 10.9679 72.3295 13.2476ZM80.209 9.46996C81.1262 10.2686 81.177 11.406 80.2695 11.9553C80.0144 12.1014 79.7246 12.1758 79.4306 12.1707C79.1367 12.1656 78.8496 12.0811 78.5997 11.9263C78.315 11.7716 78.0986 11.5157 77.9933 11.2093C77.888 10.9028 77.9015 10.568 78.031 10.271C78.2972 9.62242 79.2991 8.66894 80.209 9.46996Z" fill="white" stroke="#263238" stroke-miterlimit="10"/>
<path d="M74.4011 5.69719C74.0477 6.82733 73.8759 7.14919 73.2927 7.70579C72.7095 8.26239 72.3997 9.18924 72.4699 9.67808C72.5533 10.2581 72.5793 10.845 72.5473 11.4302C72.5343 11.8314 72.615 12.2302 72.783 12.5949C72.951 12.9595 73.2018 13.28 73.5153 13.5307C74.0313 13.9069 74.4749 14.3734 74.8246 14.9077C75.3352 15.6119 75.1682 15.7716 75.9329 16.1564C76.6976 16.5412 78.1424 17.3108 78.1424 17.3108C78.1424 17.3108 79.7928 18.0368 80.5333 17.7367C81.2738 17.4366 82.1547 16.3549 82.7307 16.125C83.3067 15.8951 83.5753 16.5122 84.3376 15.399C85.0999 14.2858 85.3225 13.4291 85.7896 12.9911C86.2566 12.553 86.3679 11.0115 85.7339 10.346C85.0938 9.72947 84.7203 8.88695 84.6933 7.9986C84.5989 6.8975 84.2892 6.23685 83.1203 5.84239C81.9515 5.44793 81.0778 4.44847 80.6398 4.07095C80.2018 3.69343 79.0184 3.78539 78.2755 4.17259C77.5325 4.55979 76.8574 3.93058 76.0757 4.28148C75.8337 4.3928 75.5917 4.46299 75.4005 4.54285C75.1934 4.66413 74.993 4.79662 74.8004 4.93973C74.6163 5.16188 74.4803 5.4198 74.4011 5.69719ZM78.1327 9.71196C78.6167 9.80392 78.8853 8.91579 79.7396 8.89643C80.5938 8.87707 80.0953 9.3538 80.2236 9.47722C80.4226 9.6485 80.5911 9.85224 80.7221 10.0798C80.8679 10.2663 80.966 10.4856 81.0076 10.7187C80.9937 11.1156 81.1129 11.5058 81.3465 11.827C81.6199 12.1997 81.0101 12.2263 80.4777 12.3352C79.9453 12.4441 79.9066 12.4006 79.4903 12.7152C79.0741 13.0298 78.4788 12.4877 78.4788 12.4877C78.4788 12.4877 78.1157 12.357 77.7649 11.7375C77.414 11.118 77.7842 11.0115 77.4696 10.5081C77.155 10.0048 77.6463 9.60548 78.1327 9.71196Z" fill="white" stroke="#263238" stroke-miterlimit="10"/>
<path d="M78.3602 6.72815C78.5927 6.72815 78.7812 6.53962 78.7812 6.30707C78.7812 6.07451 78.5927 5.88599 78.3602 5.88599C78.1276 5.88599 77.9391 6.07451 77.9391 6.30707C77.9391 6.53962 78.1276 6.72815 78.3602 6.72815Z" fill="white" stroke="#263238" stroke-miterlimit="10"/>
<path d="M75.8312 7.51217C75.9315 7.51217 76.0127 7.43091 76.0127 7.33067C76.0127 7.23043 75.9315 7.14917 75.8312 7.14917C75.731 7.14917 75.6497 7.23043 75.6497 7.33067C75.6497 7.43091 75.731 7.51217 75.8312 7.51217Z" fill="white" stroke="#263238" stroke-miterlimit="10"/>
<path d="M76.884 5.52292C77.0336 5.52292 77.155 5.40157 77.155 5.25188C77.155 5.10218 77.0336 4.98083 76.884 4.98083C76.7343 4.98083 76.6129 5.10218 76.6129 5.25188C76.6129 5.40157 76.7343 5.52292 76.884 5.52292Z" fill="white" stroke="#263238" stroke-miterlimit="10"/>
<path d="M75.5893 9.43847C75.5893 9.53419 75.5609 9.62777 75.5077 9.70736C75.4545 9.78696 75.3789 9.84899 75.2905 9.88563C75.2021 9.92226 75.1047 9.93184 75.0108 9.91317C74.917 9.89449 74.8307 9.8484 74.763 9.78071C74.6953 9.71302 74.6493 9.62678 74.6306 9.53289C74.6119 9.439 74.6215 9.34169 74.6581 9.25325C74.6948 9.16481 74.7568 9.08922 74.8364 9.03604C74.916 8.98286 75.0096 8.95447 75.1053 8.95447C75.2336 8.95447 75.3568 9.00546 75.4475 9.09623C75.5383 9.187 75.5893 9.3101 75.5893 9.43847Z" fill="white" stroke="#263238" stroke-miterlimit="10"/>
<path d="M81.1915 7.9043C81.1915 7.96987 81.1721 8.03398 81.1356 8.0885C81.0992 8.14302 81.0474 8.18551 80.9869 8.2106C80.9263 8.2357 80.8596 8.24226 80.7953 8.22947C80.731 8.21668 80.6719 8.1851 80.6255 8.13874C80.5792 8.09237 80.5476 8.03329 80.5348 7.96898C80.522 7.90467 80.5286 7.83801 80.5537 7.77743C80.5788 7.71685 80.6213 7.66507 80.6758 7.62864C80.7303 7.59221 80.7944 7.57276 80.86 7.57276C80.9036 7.57244 80.9469 7.5808 80.9872 7.59734C81.0276 7.61389 81.0643 7.6383 81.0951 7.66915C81.126 7.7 81.1504 7.73668 81.1669 7.77705C81.1835 7.81742 81.1918 7.86067 81.1915 7.9043Z" fill="white" stroke="#263238" stroke-miterlimit="10"/>
<path d="M81.102 6.186C81.2517 6.186 81.373 6.06465 81.373 5.91496C81.373 5.76527 81.2517 5.64392 81.102 5.64392C80.9523 5.64392 80.8309 5.76527 80.8309 5.91496C80.8309 6.06465 80.9523 6.186 81.102 6.186Z" fill="white" stroke="#263238" stroke-miterlimit="10"/>
<path d="M83.5971 8.20442C83.5971 8.28196 83.5741 8.35776 83.531 8.42223C83.4879 8.4867 83.4267 8.53694 83.3551 8.56662C83.2834 8.59629 83.2046 8.60405 83.1285 8.58893C83.0525 8.5738 82.9826 8.53646 82.9278 8.48163C82.873 8.42681 82.8356 8.35695 82.8205 8.2809C82.8054 8.20485 82.8132 8.12603 82.8428 8.05439C82.8725 7.98276 82.9228 7.92153 82.9872 7.87845C83.0517 7.83537 83.1275 7.81238 83.205 7.81238C83.3088 7.81301 83.4082 7.85452 83.4815 7.92791C83.5549 8.00129 83.5964 8.10064 83.5971 8.20442Z" fill="white" stroke="#263238" stroke-miterlimit="10"/>
<path d="M84.081 11.5173C84.081 11.5829 84.0616 11.647 84.0252 11.7015C83.9887 11.756 83.937 11.7985 83.8764 11.8236C83.8158 11.8487 83.7491 11.8553 83.6848 11.8425C83.6205 11.8297 83.5614 11.7981 83.5151 11.7518C83.4687 11.7054 83.4371 11.6463 83.4243 11.582C83.4115 11.5177 83.4181 11.451 83.4432 11.3905C83.4683 11.3299 83.5108 11.2781 83.5653 11.2417C83.6198 11.2052 83.6839 11.1858 83.7495 11.1858C83.8374 11.1858 83.9218 11.2207 83.9839 11.2829C84.0461 11.3451 84.081 11.4294 84.081 11.5173Z" fill="white" stroke="#263238" stroke-miterlimit="10"/>
<path d="M82.036 14.9199C82.0365 14.9918 82.0157 15.0622 81.9761 15.1222C81.9365 15.1822 81.8799 15.2292 81.8136 15.257C81.7474 15.2848 81.6743 15.2924 81.6037 15.2786C81.5332 15.2649 81.4682 15.2305 81.4172 15.1799C81.3662 15.1292 81.3314 15.0645 81.3172 14.994C81.303 14.9236 81.3101 14.8504 81.3375 14.784C81.3649 14.7175 81.4114 14.6607 81.4711 14.6207C81.5309 14.5807 81.6012 14.5593 81.673 14.5593C81.7689 14.5593 81.8609 14.5972 81.9289 14.6648C81.9969 14.7323 82.0354 14.8241 82.036 14.9199Z" fill="white" stroke="#263238" stroke-miterlimit="10"/>
<path d="M77.818 16.0041C78.1174 16.0041 78.3601 15.7614 78.3601 15.462C78.3601 15.1626 78.1174 14.9199 77.818 14.9199C77.5186 14.9199 77.2759 15.1626 77.2759 15.462C77.2759 15.7614 77.5186 16.0041 77.818 16.0041Z" fill="white" stroke="#263238" stroke-miterlimit="10"/>
<path d="M75.7998 12.4514C75.9495 12.4514 76.0708 12.33 76.0708 12.1803C76.0708 12.0306 75.9495 11.9093 75.7998 11.9093C75.6501 11.9093 75.5287 12.0306 75.5287 12.1803C75.5287 12.33 75.6501 12.4514 75.7998 12.4514Z" fill="white" stroke="#263238" stroke-miterlimit="10"/>
<path d="M78.7232 13.5356C78.7232 13.5834 78.709 13.6302 78.6824 13.67C78.6558 13.7098 78.618 13.7408 78.5738 13.7592C78.5296 13.7775 78.4809 13.7823 78.434 13.7729C78.387 13.7636 78.3439 13.7405 78.3101 13.7067C78.2762 13.6729 78.2532 13.6297 78.2438 13.5828C78.2345 13.5358 78.2393 13.4872 78.2576 13.443C78.2759 13.3987 78.307 13.361 78.3468 13.3344C78.3865 13.3078 78.4333 13.2936 78.4812 13.2936C78.5454 13.2936 78.6069 13.3191 78.6523 13.3645C78.6977 13.4098 78.7232 13.4714 78.7232 13.5356Z" fill="white" stroke="#263238" stroke-miterlimit="10"/>
<path d="M73.963 10.922C73.963 10.9636 73.9507 11.0043 73.9275 11.0389C73.9044 11.0736 73.8715 11.1005 73.833 11.1165C73.7946 11.1324 73.7522 11.1366 73.7114 11.1285C73.6706 11.1203 73.633 11.1003 73.6036 11.0708C73.5742 11.0414 73.5541 11.0039 73.546 10.963C73.5379 10.9222 73.542 10.8799 73.558 10.8414C73.5739 10.8029 73.6009 10.77 73.6355 10.7469C73.6701 10.7238 73.7108 10.7114 73.7525 10.7114C73.8083 10.7114 73.8619 10.7336 73.9013 10.7731C73.9408 10.8126 73.963 10.8661 73.963 10.922Z" fill="white" stroke="#263238" stroke-miterlimit="10"/>
<path d="M75.6497 5.46484C75.6497 5.50074 75.6391 5.53583 75.6192 5.56568C75.5992 5.59553 75.5709 5.61879 75.5377 5.63253C75.5045 5.64626 75.468 5.64986 75.4328 5.64286C75.3976 5.63585 75.3653 5.61857 75.3399 5.59318C75.3145 5.5678 75.2972 5.53546 75.2902 5.50025C75.2832 5.46504 75.2868 5.42855 75.3006 5.39539C75.3143 5.36222 75.3376 5.33387 75.3674 5.31393C75.3973 5.29399 75.4323 5.28334 75.4682 5.28334C75.4922 5.28302 75.5159 5.28749 75.5381 5.29649C75.5603 5.3055 75.5804 5.31886 75.5973 5.33578C75.6142 5.3527 75.6276 5.37283 75.6366 5.395C75.6456 5.41717 75.6501 5.44092 75.6497 5.46484Z" fill="white" stroke="#263238" stroke-miterlimit="10"/>
<path d="M77.8786 7.90429C77.8786 7.924 77.8747 7.94351 77.8672 7.96171C77.8596 7.97991 77.8486 7.99645 77.8347 8.01039C77.8207 8.02432 77.8042 8.03537 77.786 8.04291C77.7678 8.05045 77.7483 8.05433 77.7286 8.05433C77.6917 8.04966 77.6579 8.03173 77.6334 8.00388C77.6088 7.97604 77.5953 7.9402 77.5953 7.90308C77.5953 7.86597 77.6088 7.83013 77.6334 7.80228C77.6579 7.77444 77.6917 7.7565 77.7286 7.75183C77.7686 7.75247 77.8067 7.76881 77.8348 7.79734C77.8629 7.82586 77.8786 7.86427 77.8786 7.90429Z" fill="white" stroke="#263238" stroke-miterlimit="10"/>
<path d="M82.2757 10.0121C82.2757 10.0537 82.2633 10.0944 82.2402 10.129C82.2171 10.1636 82.1842 10.1906 82.1457 10.2066C82.1073 10.2225 82.0649 10.2267 82.0241 10.2185C81.9832 10.2104 81.9457 10.1904 81.9163 10.1609C81.8868 10.1315 81.8668 10.094 81.8587 10.0531C81.8505 10.0123 81.8547 9.96995 81.8706 9.93148C81.8866 9.89301 81.9136 9.86013 81.9482 9.837C81.9828 9.81386 82.0235 9.80151 82.0652 9.80151C82.0928 9.80151 82.1202 9.80696 82.1457 9.81754C82.1713 9.82812 82.1945 9.84363 82.214 9.86318C82.2336 9.88273 82.2491 9.90594 82.2597 9.93148C82.2703 9.95703 82.2757 9.98441 82.2757 10.0121Z" fill="white" stroke="#263238" stroke-miterlimit="10"/>
<path d="M84.2649 13.4147C84.2654 13.4866 84.2445 13.557 84.2049 13.617C84.1653 13.677 84.1088 13.7239 84.0425 13.7518C83.9762 13.7796 83.9032 13.7871 83.8326 13.7734C83.762 13.7597 83.6971 13.7253 83.6461 13.6746C83.5951 13.624 83.5603 13.5593 83.5461 13.4888C83.5319 13.4183 83.5389 13.3452 83.5663 13.2787C83.5937 13.2123 83.6403 13.1554 83.7 13.1154C83.7598 13.0754 83.83 13.0541 83.9019 13.0541C83.9495 13.0538 83.9966 13.0629 84.0407 13.0808C84.0847 13.0988 84.1247 13.1253 84.1585 13.1588C84.1922 13.1924 84.219 13.2322 84.2373 13.2761C84.2555 13.32 84.2649 13.3671 84.2649 13.4147Z" fill="white" stroke="#263238" stroke-miterlimit="10"/>
<path d="M77.0945 10.438C77.0945 10.5037 77.075 10.5679 77.0384 10.6224C77.0019 10.677 76.95 10.7195 76.8892 10.7445C76.8285 10.7695 76.7617 10.776 76.6974 10.763C76.633 10.75 76.5739 10.7182 76.5276 10.6716C76.4814 10.6249 76.45 10.5656 76.4375 10.5012C76.425 10.4367 76.4319 10.37 76.4573 10.3094C76.4828 10.2489 76.5257 10.1973 76.5805 10.1611C76.6353 10.125 76.6997 10.106 76.7654 10.1065C76.8088 10.1065 76.8518 10.115 76.8919 10.1317C76.9319 10.1484 76.9683 10.1729 76.9989 10.2037C77.0295 10.2345 77.0537 10.2711 77.0701 10.3113C77.0865 10.3515 77.0948 10.3946 77.0945 10.438Z" fill="white" stroke="#263238" stroke-miterlimit="10"/>
<path d="M75.5892 13.4146C75.5892 13.4625 75.575 13.5093 75.5484 13.5491C75.5218 13.5889 75.4841 13.6199 75.4398 13.6382C75.3956 13.6565 75.347 13.6613 75.3 13.652C75.2531 13.6426 75.2099 13.6196 75.1761 13.5857C75.1423 13.5519 75.1192 13.5088 75.1099 13.4618C75.1005 13.4149 75.1053 13.3662 75.1236 13.322C75.142 13.2778 75.173 13.24 75.2128 13.2134C75.2526 13.1868 75.2994 13.1726 75.3472 13.1726C75.4114 13.1726 75.473 13.1981 75.5183 13.2435C75.5637 13.2889 75.5892 13.3504 75.5892 13.4146Z" fill="white" stroke="#263238" stroke-miterlimit="10"/>
<path d="M74.2655 8.89652C74.266 8.95645 74.2487 9.01517 74.2157 9.06523C74.1828 9.11529 74.1357 9.15444 74.0805 9.17771C74.0252 9.20098 73.9643 9.20731 73.9055 9.19591C73.8467 9.18452 73.7925 9.1559 73.75 9.11369C73.7074 9.07148 73.6784 9.01759 73.6665 8.95884C73.6546 8.9001 73.6605 8.83916 73.6833 8.78374C73.7061 8.72832 73.7449 8.68094 73.7947 8.64759C73.8445 8.61424 73.9031 8.59644 73.963 8.59644C74.0428 8.59643 74.1194 8.62797 74.1761 8.68418C74.2327 8.74039 74.2649 8.81671 74.2655 8.89652Z" fill="white" stroke="#263238" stroke-miterlimit="10"/>
<path d="M79.6863 5.04138C79.6868 5.07738 79.6765 5.11271 79.6569 5.14287C79.6372 5.17304 79.6091 5.19668 79.5759 5.21079C79.5428 5.22489 79.5063 5.22883 79.4709 5.22211C79.4355 5.21538 79.403 5.19829 79.3773 5.173C79.3517 5.14772 79.3342 5.11538 79.327 5.08011C79.3198 5.04484 79.3232 5.00822 79.3369 4.97492C79.3505 4.94161 79.3738 4.91312 79.4037 4.89307C79.4336 4.87302 79.4688 4.86231 79.5048 4.8623C79.5525 4.8623 79.5983 4.88109 79.6323 4.91461C79.6662 4.94812 79.6857 4.99367 79.6863 5.04138Z" fill="white" stroke="#263238" stroke-miterlimit="10"/>
<path d="M18.2885 12.5797C18.1912 12.5703 18.0987 12.5334 18.0215 12.4735C17.9444 12.4135 17.8859 12.3328 17.8529 12.2409C17.5633 11.44 17.0504 10.7388 16.3748 10.2203C15.6992 9.70182 14.8892 9.38772 14.0407 9.31516C13.1921 9.2426 12.3406 9.41463 11.5867 9.81089C10.8329 10.2072 10.2084 10.8111 9.78704 11.5512C9.7395 11.6362 9.66874 11.7059 9.58303 11.7522C9.49732 11.7985 9.40021 11.8194 9.30304 11.8125L8.74402 11.7641C8.65446 11.756 8.56433 11.7716 8.48276 11.8095C8.40119 11.8474 8.33107 11.9061 8.2795 11.9798C8.22792 12.0535 8.19672 12.1395 8.18906 12.2291C8.18139 12.3187 8.19752 12.4087 8.23582 12.4901L9.23528 14.7189C9.31514 14.9004 9.395 15.0819 9.46276 15.2683C9.76983 16.1308 10.335 16.8778 11.0815 17.4079C11.828 17.9379 12.7197 18.2252 13.6352 18.2308C14.5507 18.2363 15.4457 17.9598 16.1986 17.4389C16.9515 16.918 17.5257 16.1778 17.8432 15.3191C17.9981 14.8956 18.1627 14.4721 18.3538 14.0631L18.7047 13.3129C18.7419 13.2384 18.7601 13.1558 18.7578 13.0726C18.7556 12.9893 18.7329 12.9079 18.6918 12.8355C18.6507 12.7631 18.5924 12.7019 18.5221 12.6572C18.4517 12.6126 18.3715 12.586 18.2885 12.5797Z" fill="white" stroke="#263238" stroke-miterlimit="10"/>
<path d="M18.2885 12.5798C18.1913 12.5704 18.0987 12.5336 18.0216 12.4736C17.9444 12.4136 17.8859 12.3329 17.8529 12.241C17.7403 11.9311 17.5934 11.6348 17.4149 11.3577L16.563 13.5066C15.1368 15.0636 13.6183 16.5336 12.0159 17.9086C12.539 18.1154 13.0965 18.2213 13.659 18.2208H13.8478C15.2755 17.3156 16.6278 16.2967 17.8916 15.174C18.0344 14.7965 18.1796 14.4214 18.3514 14.0584L18.7023 13.3082C18.7384 13.234 18.7558 13.1522 18.7531 13.0698C18.7505 12.9873 18.7278 12.9068 18.6871 12.8351C18.6463 12.7634 18.5888 12.7027 18.5193 12.6582C18.4499 12.6137 18.3707 12.5868 18.2885 12.5798Z" fill="white" stroke="#263238" stroke-miterlimit="10"/>
<path d="M13.6639 15.7136C17.322 15.7136 20.2874 12.7482 20.2874 9.09009C20.2874 5.43201 17.322 2.46655 13.6639 2.46655C10.0058 2.46655 7.04034 5.43201 7.04034 9.09009C7.04034 12.7482 10.0058 15.7136 13.6639 15.7136Z" fill="white" stroke="#263238" stroke-miterlimit="10"/>
<path d="M13.6639 14.8303C16.8341 14.8303 19.4041 12.2603 19.4041 9.09009C19.4041 5.91984 16.8341 3.34985 13.6639 3.34985C10.4936 3.34985 7.92365 5.91984 7.92365 9.09009C7.92365 12.2603 10.4936 14.8303 13.6639 14.8303Z" fill="white" stroke="#263238" stroke-miterlimit="10"/>
<path d="M13.6639 13.5477C16.1258 13.5477 18.1215 11.552 18.1215 9.09008C18.1215 6.6282 16.1258 4.63245 13.6639 4.63245C11.202 4.63245 9.20624 6.6282 9.20624 9.09008C9.20624 11.552 11.202 13.5477 13.6639 13.5477Z" fill="white" stroke="#263238" stroke-miterlimit="10"/>
<path d="M10.8325 5.9828L5.38504 3.224L4.94702 4.57194L10.1016 7.25814C10.2257 7.34303 10.3724 7.38856 10.5227 7.38882C10.6975 7.40175 10.871 7.35105 11.0113 7.24604C11.1516 7.14104 11.2492 6.98882 11.2861 6.8175C11.3229 6.64618 11.2966 6.4673 11.2119 6.31389C11.1272 6.16048 10.9898 6.04288 10.8252 5.9828H10.8325Z" fill="white" stroke="#263238" stroke-miterlimit="10"/>
<path d="M5.68998 3.83623C5.68998 3.97982 5.6474 4.12018 5.56762 4.23957C5.48785 4.35896 5.37446 4.45202 5.2418 4.50697C5.10915 4.56191 4.96317 4.57629 4.82234 4.54828C4.68151 4.52027 4.55215 4.45112 4.45062 4.34959C4.34908 4.24806 4.27994 4.11869 4.25193 3.97786C4.22391 3.83703 4.23829 3.69106 4.29324 3.5584C4.34819 3.42574 4.44124 3.31236 4.56063 3.23258C4.68002 3.15281 4.82039 3.11023 4.96398 3.11023C5.15652 3.11023 5.34118 3.18672 5.47734 3.32287C5.61349 3.45902 5.68998 3.64368 5.68998 3.83623Z" fill="white" stroke="#263238" stroke-miterlimit="10"/>
<path d="M40.5186 5.07288H55.041" stroke="#263238" stroke-miterlimit="10"/>
<path d="M59.1356 5.07288H65.2171" stroke="#263238" stroke-miterlimit="10"/>
<path d="M40.5186 7.55334H55.041" stroke="#263238" stroke-miterlimit="10"/>
<path d="M59.1356 7.55334H65.2171" stroke="#263238" stroke-miterlimit="10"/>
<path d="M40.5186 10.0363H55.041" stroke="#263238" stroke-miterlimit="10"/>
<path d="M59.1356 10.0363H65.2171" stroke="#263238" stroke-miterlimit="10"/>
<path d="M40.5186 12.5193H55.041" stroke="#263238" stroke-miterlimit="10"/>
<path d="M59.1356 12.5193H65.2171" stroke="#263238" stroke-miterlimit="10"/>
<path d="M40.5186 15.0021H55.041" stroke="#263238" stroke-miterlimit="10"/>
<path d="M59.1356 15.0021H65.2171" stroke="#263238" stroke-miterlimit="10"/>
<path d="M40.5186 20.089H55.041" stroke="#263238" stroke-miterlimit="10"/>
<path d="M59.1356 20.089H65.2171" stroke="#263238" stroke-miterlimit="10"/>
<path d="M40.5186 22.5719H55.041" stroke="#263238" stroke-miterlimit="10"/>
<path d="M59.1356 22.5719H65.2171" stroke="#263238" stroke-miterlimit="10"/>
<path d="M40.5186 25.0548H55.041" stroke="#263238" stroke-miterlimit="10"/>
<path d="M59.1356 25.0548H65.2171" stroke="#263238" stroke-miterlimit="10"/>
<path d="M40.5186 27.5377H55.041" stroke="#263238" stroke-miterlimit="10"/>
<path d="M59.1356 27.5377H65.2171" stroke="#263238" stroke-miterlimit="10"/>
<path d="M40.5186 30.0182H55.041" stroke="#263238" stroke-miterlimit="10"/>
<path d="M59.1356 30.0182H65.2171" stroke="#263238" stroke-miterlimit="10"/>
<path d="M73.7815 20.089H88.3039" stroke="#263238" stroke-miterlimit="10"/>
<path d="M92.3985 20.089H98.48" stroke="#263238" stroke-miterlimit="10"/>
<path d="M73.7815 22.5719H88.3039" stroke="#263238" stroke-miterlimit="10"/>
<path d="M92.3985 22.5719H98.48" stroke="#263238" stroke-miterlimit="10"/>
<path d="M73.7815 25.0548H88.3039" stroke="#263238" stroke-miterlimit="10"/>
<path d="M92.3985 25.0548H98.48" stroke="#263238" stroke-miterlimit="10"/>
<path d="M73.7815 27.5377H88.3039" stroke="#263238" stroke-miterlimit="10"/>
<path d="M92.3985 27.5377H98.48" stroke="#263238" stroke-miterlimit="10"/>
<path d="M73.7815 30.0182H88.3039" stroke="#263238" stroke-miterlimit="10"/>
<path d="M92.3985 30.0182H98.48" stroke="#263238" stroke-miterlimit="10"/>
<path d="M5.89081 20.3381H20.4108" stroke="#263238" stroke-miterlimit="10"/>
<path d="M24.5079 20.3381H30.5894" stroke="#263238" stroke-miterlimit="10"/>
<path d="M5.89081 22.8212H20.4108" stroke="#263238" stroke-miterlimit="10"/>
<path d="M24.5079 22.8212H30.5894" stroke="#263238" stroke-miterlimit="10"/>
<path d="M5.89081 25.3041H20.4108" stroke="#263238" stroke-miterlimit="10"/>
<path d="M24.5079 25.3041H30.5894" stroke="#263238" stroke-miterlimit="10"/>
<path d="M5.89081 27.7845H20.4108" stroke="#263238" stroke-miterlimit="10"/>
<path d="M24.5079 27.7845H30.5894" stroke="#263238" stroke-miterlimit="10"/>
<path d="M5.89081 30.2675H20.4108" stroke="#263238" stroke-miterlimit="10"/>
<path d="M24.5079 30.2675H30.5894" stroke="#263238" stroke-miterlimit="10"/>
<path d="M54.361 14.794C54.361 14.794 61.0402 21.2481 61.3402 24.474C61.6403 27.6998 56.6866 30.3279 58.1144 31.3782C59.5422 32.4285 63.4384 35.2066 61.9404 37.6073C60.4424 40.0079 59.6898 40.6105 60.2149 41.1356C60.7401 41.6608 62.0154 42.1036 61.9404 43.3862C61.8654 44.6688 60.365 45.7699 60.365 45.7699H36.649C36.649 45.7699 35.3737 45.845 35.5237 44.0445C35.6737 42.244 38.2244 41.2687 37.7743 39.916C37.3242 38.5632 34.0209 37.5153 34.0209 34.8122C34.0209 32.1091 37.9243 30.9862 38.5245 29.7108C39.1247 28.4355 36.574 27.6079 36.0488 25.9574C35.5237 24.307 38.2268 21.4538 39.8749 19.9534C41.5229 18.453 48.1319 14.0994 50.7648 13.9494C53.3978 13.7993 54.361 14.794 54.361 14.794Z" fill="#263238"/>
<path d="M56.1518 16.5413C56.1518 16.5413 59.7818 22.8841 59.2082 25.3743C58.6347 27.8644 54.7917 30.6983 56.2631 32.6222C57.7345 34.5461 59.8931 35.3398 58.9832 37.7187C58.4427 39.1419 57.6353 40.4487 56.6043 41.5689" stroke="#858585" stroke-linecap="round" stroke-linejoin="round"/>
<path d="M39.9571 25.2629C39.9571 25.2629 42.2222 28.7719 41.6511 29.7908C41.08 30.8096 37.8009 32.0559 38.2631 34.6598C38.7253 37.2637 43.4734 41.3414 43.4734 41.7964" stroke="#858585" stroke-linecap="round" stroke-linejoin="round"/>
<path d="M54.361 14.794C54.361 14.794 61.0402 21.2481 61.3402 24.474C61.6403 27.6998 56.6866 30.3279 58.1144 31.3782C59.5422 32.4285 63.4384 35.2067 61.9404 37.6073C60.4424 40.0079 59.6898 40.6105 60.2149 41.1356C60.7401 41.6608 62.0154 42.1036 61.9404 43.3862C61.8654 44.6688 60.365 45.7699 60.365 45.7699H36.649C36.649 45.7699 35.3737 45.845 35.5237 44.0445C35.6737 42.244 38.2244 41.2687 37.7743 39.916C37.3242 38.5632 34.0209 37.5153 34.0209 34.8122C34.0209 32.1091 37.9243 30.9862 38.5245 29.7108C39.1247 28.4355 36.574 27.6079 36.0488 25.9574C35.5237 24.307 38.2268 21.4538 39.8749 19.9534C41.5229 18.453 48.1319 14.0994 50.7648 13.9494C53.3978 13.7993 54.361 14.794 54.361 14.794Z" stroke="#263238" stroke-linecap="round" stroke-linejoin="round"/>
<path d="M62.9351 42.2053C62.9351 42.2053 72.0101 56.3623 73.3411 58.0563C74.6721 59.7503 73.2201 62.5333 71.1631 63.9853C69.1061 65.4373 65.6624 64.1692 63.8765 62.3228C62.0905 60.4763 60.2731 56.1203 60.2731 56.1203L62.9351 42.2053Z" fill="white" stroke="#263238" stroke-linecap="round" stroke-linejoin="round"/>
<path d="M47.689 37.4864C47.689 37.4864 39.2191 40.0274 36.5571 40.9954C33.8951 41.9634 33.1691 42.0844 33.1691 43.0524C33.1691 43.6162 35.1898 54.5813 34.9841 63.9854C34.8364 70.7807 32.4431 76.9324 32.4431 76.9324H63.298C63.298 76.9324 60.7667 71.1607 60.757 64.2274C60.7425 54.5111 63.2182 42.6313 62.935 42.2054C62.451 41.4794 48.778 37.3654 47.689 37.4864Z" fill="white" stroke="#263238" stroke-linecap="round" stroke-linejoin="round"/>
<path d="M60.849 66.5118C59.7406 65.6478 58.3007 64.2273 57.611 62.2913C56.539 59.2881 55.75 43.1733 55.5855 39.5433C55.0119 39.369 54.436 39.1948 53.8697 39.0278L54.1117 54.1843H43.3427L42.4013 39.1053C41.8278 39.2819 41.2494 39.4634 40.6831 39.6425C40.6952 42.7038 40.6952 56.9842 39.8337 61.0813C39.173 64.2273 36.4215 66.3496 34.7517 67.3733C34.3468 70.6328 33.5781 73.8367 32.46 76.925H63.315C61.9731 73.598 61.1417 70.0872 60.849 66.5118Z" fill="#263238"/>
<path d="M41.0268 39.5311L40.6735 39.6424C40.6856 42.7037 40.6856 56.9842 39.8241 61.0812C39.7757 61.3087 39.7152 61.5265 39.6474 61.7419V76.9322H41.0268V39.5311Z" fill="#424242"/>
<path d="M46.8469 54.1842H45.4675V76.9322H46.8469V54.1842Z" fill="#424242"/>
<path d="M33.8273 72.322V76.92H35.197V67.0658C35.0324 67.1747 34.8727 67.2788 34.7251 67.3707C34.5222 69.0372 34.2225 70.6904 33.8273 72.322Z" fill="#424242"/>
<path d="M38.1155 64.4958C37.6969 65.0047 37.2363 65.4775 36.7385 65.9091V76.9322H38.1155V64.4958Z" fill="#424242"/>
<path d="M42.5562 41.7697V76.9322H43.9356V54.1842H43.333L42.5562 41.7697Z" fill="#424242"/>
<path d="M57.1053 59.847V76.9322H58.4823V64.0094C58.1233 63.4741 57.8308 62.8972 57.6111 62.2912C57.3727 61.4925 57.2035 60.6748 57.1053 59.847Z" fill="#424242"/>
<path d="M60.014 65.7977V76.9297H61.3934V70.4538C61.1357 69.1514 60.9539 67.8351 60.8489 66.5116C60.5852 66.3059 60.302 66.0663 60.014 65.7977Z" fill="#424242"/>
<path d="M55.5734 39.5409C55.1136 39.3981 54.6514 39.2602 54.1964 39.1246V76.9323H55.5734V39.5409Z" fill="#424242"/>
<path d="M52.6646 54.1842H51.2852V76.9322H52.6646V54.1842Z" fill="#424242"/>
<path d="M49.7557 54.1842H48.3763V76.9322H49.7557V54.1842Z" fill="#424242"/>
<path d="M60.849 66.5118C59.7406 65.6478 58.3007 64.2273 57.611 62.2913C56.539 59.2881 55.75 43.1733 55.5855 39.5433C55.0119 39.369 54.436 39.1948 53.8697 39.0278L54.1117 54.1843H43.3427L42.4013 39.1053C41.8278 39.2819 41.2494 39.4634 40.6831 39.6425C40.6952 42.7038 40.6952 56.9842 39.8337 61.0813C39.173 64.2273 36.4215 66.3496 34.7517 67.3733C34.3468 70.6328 33.5781 73.8367 32.46 76.925H63.315C61.9731 73.598 61.1417 70.0872 60.849 66.5118V66.5118Z" stroke="#263238" stroke-linecap="round" stroke-linejoin="round"/>
<path d="M46.7065 35.272C46.7065 35.272 43.5605 36.3973 42.953 37.6726C42.3456 38.948 42.653 43.9646 42.1278 45.4771C41.6027 46.9896 40.3273 48.1052 41.0049 48.1899C41.6825 48.2746 43.7057 45.1867 44.7559 45.5618C45.8062 45.9369 48.6594 49.8404 48.8845 49.8404C49.1095 49.8404 51.2875 47.2147 51.7376 46.3895C52.1878 45.5642 53.8382 46.8396 54.5884 48.7151C55.3386 50.5906 55.5564 49.9251 55.5564 49.2402C55.5564 48.5554 54.6562 45.6368 54.8062 45.1117C54.9562 44.5866 54.7312 41.9657 54.7312 39.3327C54.7467 38.2968 54.3925 37.2891 53.7321 36.4908C53.0717 35.6924 52.1483 35.1556 51.1278 34.9767C49.4749 34.6694 46.7065 35.272 46.7065 35.272Z" fill="white" stroke="#263238" stroke-linecap="round" stroke-linejoin="round"/>
<path d="M45.2787 33.394V41.8761C45.2787 41.8761 48.0568 51.031 49.0321 50.3461C50.0074 49.6613 52.2604 42.2416 52.2604 42.2416V33.4691C52.2604 33.4691 48.807 34.9719 45.2787 33.394Z" fill="white" stroke="#263238" stroke-linecap="round" stroke-linejoin="round"/>
<path d="M45.2787 33.394V35.1582C46.6823 35.9641 48.3351 36.5086 49.8234 36.5086C50.6713 36.4982 51.5053 36.2919 52.2604 35.906V33.4691C52.2604 33.4691 48.807 34.9719 45.2787 33.394Z" fill="#263238" stroke="#263238" stroke-linecap="round" stroke-linejoin="round"/>
<path d="M42.428 24.1642C42.428 24.1642 40.7775 21.9862 39.7998 23.5616C38.8222 25.137 41.3777 28.0652 42.1279 27.9902C42.8781 27.9152 42.428 24.1642 42.428 24.1642Z" fill="white" stroke="#263238" stroke-linecap="round" stroke-linejoin="round"/>
<path d="M55.7017 24.1642C55.7017 24.1642 57.3521 21.9862 58.3298 23.5616C59.3075 25.137 56.7519 28.0652 56.0017 27.9902C55.2515 27.9152 55.7017 24.1642 55.7017 24.1642Z" fill="white" stroke="#263238" stroke-linecap="round" stroke-linejoin="round"/>
<path d="M42.215 21.1151C42.215 21.1151 41.3825 28.6171 42.1109 30.7951C42.8394 32.9731 46.692 35.3762 49.8162 35.3762C52.9404 35.3762 55.5395 32.3584 55.9582 30.587C56.3768 28.8155 55.4354 17.4706 54.8111 16.2219C54.1867 14.9731 50.2325 14.8691 46.2758 16.8462C42.3191 18.8234 42.215 21.1151 42.215 21.1151Z" fill="white" stroke="#263238" stroke-linecap="round" stroke-linejoin="round"/>
<path d="M50.0074 22.2959C50.0074 22.2959 49.3322 24.0988 49.9324 25.1491C50.5326 26.1994 50.1575 26.9496 49.4823 26.9496C48.8071 26.9496 48.5143 25.8243 48.5143 25.8243" stroke="#263238" stroke-linecap="round" stroke-linejoin="round"/>
<path d="M46.1813 27.6902C46.1813 27.6902 49.3273 29.8682 52.1103 27.6902" stroke="#263238" stroke-linecap="round" stroke-linejoin="round"/>
<path d="M50.685 21.236C50.685 21.236 52.0378 19.7356 53.6132 21.386" stroke="#263238" stroke-linecap="round" stroke-linejoin="round"/>
<path d="M47.6067 21.0861C47.6067 21.0861 46.2564 19.6607 44.6035 20.936" stroke="#263238" stroke-linecap="round" stroke-linejoin="round"/>
<path d="M51.9603 24.3869C52.2089 24.3869 52.4104 23.9839 52.4104 23.4867C52.4104 22.9895 52.2089 22.5864 51.9603 22.5864C51.7117 22.5864 51.5102 22.9895 51.5102 23.4867C51.5102 23.9839 51.7117 24.3869 51.9603 24.3869Z" fill="#263238"/>
<path d="M46.3314 24.3869C46.58 24.3869 46.7815 23.9839 46.7815 23.4867C46.7815 22.9895 46.58 22.5864 46.3314 22.5864C46.0828 22.5864 45.8813 22.9895 45.8813 23.4867C45.8813 23.9839 46.0828 24.3869 46.3314 24.3869Z" fill="#263238"/>
<path d="M44.151 24.7644C44.9218 24.6373 45.7082 24.6373 46.479 24.7644" stroke="#263238" stroke-linecap="round" stroke-linejoin="round"/>
<path d="M51.8103 24.8394C52.5542 24.7023 53.317 24.7023 54.0609 24.8394" stroke="#263238" stroke-linecap="round" stroke-linejoin="round"/>
<path d="M38.5995 25.442C38.5995 25.442 50.3825 20.5633 53.2356 18.3103C56.0888 16.0572 56.8366 11.7061 50.1574 11.9311C43.4782 12.1562 36.4239 19.9631 35.8237 23.5641C35.2236 27.165 37.617 26.41 37.617 26.41" fill="#263238"/>
<path d="M54.6779 12.132C51.9545 15.4498 48.6558 18.2501 44.9399 20.3987C38.7108 24.0287 34.7468 24.7039 34.7468 24.7039" stroke="#858585" stroke-linecap="round" stroke-linejoin="round"/>
<path d="M50.2615 10.9922C50.2615 10.9922 44.7124 19.7042 34.4081 23.1091" stroke="#858585" stroke-linecap="round" stroke-linejoin="round"/>
<path d="M38.5995 25.442C38.5995 25.442 50.3825 20.5633 53.2356 18.3103C56.0888 16.0572 56.8366 11.7061 50.1574 11.9311C43.4782 12.1562 36.4239 19.9631 35.8237 23.5641C35.2236 27.165 37.617 26.41 37.617 26.41" stroke="#263238" stroke-linecap="round" stroke-linejoin="round"/>
<path d="M63.661 52.4297C63.661 52.4297 62.2695 51.8247 60.636 51.2802C59.0025 50.7357 58.095 51.8247 58.7605 52.7927C59.426 53.7607 61.7855 53.9422 62.935 54.9707C64.0845 55.9992 64.992 59.3267 66.1415 59.9317C66.9004 60.3111 67.7191 60.5567 68.5615 60.6577V52.4297H63.661Z" fill="white" stroke="#263238" stroke-linecap="round" stroke-linejoin="round"/>
<path d="M70.7783 62.3228H63.8764L62.3325 48.0859H72.3222L70.7783 62.3228Z" fill="#F54748" stroke="#263238" stroke-linecap="round" stroke-linejoin="round"/>
<path d="M72.5593 45.8547H62.0928L61.1805 47.7714H73.583L72.5593 45.8547Z" fill="white" stroke="#263238" stroke-linecap="round" stroke-linejoin="round"/>
<path d="M62.4825 48.3909H72.3876L73.2515 47.7714H61.5145L62.4825 48.3909Z" fill="white" stroke="#263238" stroke-linecap="round" stroke-linejoin="round"/>
<path d="M71.2018 58.4193L72.0875 50.2518H62.5672L63.4529 58.4193H71.2018Z" fill="white" stroke="#263238" stroke-linecap="round" stroke-linejoin="round"/>
<path d="M73.462 52.7323C73.462 52.7323 70.2555 52.7928 69.6505 53.3978C69.0455 54.0028 69.227 54.7288 70.3765 54.8498C71.526 54.9708 73.22 55.2128 74.1275 54.9708C75.035 54.7288 75.035 52.7323 73.462 52.7323Z" fill="white" stroke="#263238" stroke-linecap="round" stroke-linejoin="round"/>
<path d="M72.7263 59.2058C72.7263 59.2058 70.1804 59.2542 69.7013 59.7358C69.2221 60.2174 69.3649 60.7909 70.2772 60.8877C71.1896 60.9845 72.5327 61.1757 73.2538 60.9821C73.975 60.7885 73.9726 59.2058 72.7263 59.2058Z" fill="white" stroke="#263238" stroke-linecap="round" stroke-linejoin="round"/>
<path d="M74.067 55.2081C74.067 55.2081 69.8925 55.2081 68.864 55.3896C67.8355 55.5711 67.4725 56.5996 68.985 56.9021C70.4975 57.2046 73.583 57.3861 74.551 57.2651C75.519 57.1441 75.5795 55.1524 74.067 55.2081Z" fill="white" stroke="#263238" stroke-linecap="round" stroke-linejoin="round"/>
<path d="M73.825 57.386C73.825 57.386 70.4975 57.265 69.348 57.6885C68.1985 58.112 68.622 58.717 69.711 58.959C70.8 59.201 73.22 59.5035 74.1275 59.201C75.035 58.8985 75.035 57.2698 73.825 57.386Z" fill="white" stroke="#263238" stroke-linecap="round" stroke-linejoin="round"/>
<path d="M22.371 36.0367C22.371 36.0367 21.7297 36.4215 22.1798 38.3478L22.6275 40.2717L25.3863 39.7587C25.3863 39.7587 24.1763 37.5807 23.6536 36.6127C23.1309 35.6447 22.5089 35.7802 22.371 36.0367Z" fill="white" stroke="#263238" stroke-linecap="round" stroke-linejoin="round"/>
<path d="M20.193 39.5675C20.193 39.5675 28.9825 38.0913 31.6154 37.1934C33.5961 36.5531 35.6091 36.0175 37.6461 35.589C38.1724 35.4674 38.7103 35.4025 39.2505 35.3954C39.2505 35.3954 39.507 35.3954 39.4441 36.4868C39.3812 37.5782 40.855 51.7594 42.2029 56.1227C43.5509 60.4859 44.3809 62.5405 44.3809 62.5405C44.3809 62.5405 36.4893 64.145 29.1736 64.145C25.1294 64.1715 21.0913 63.8272 17.1099 63.1165C16.8534 63.1165 20.2559 50.2905 20.1253 45.92C20.0043 41.501 20.193 39.5675 20.193 39.5675Z" fill="#F54748" stroke="#263238" stroke-linecap="round" stroke-linejoin="round"/>
<path d="M42.215 56.1227C40.867 51.7667 39.3908 37.5782 39.4562 36.4868C39.5215 35.3954 39.2626 35.3954 39.2626 35.3954C38.9615 35.3996 38.6609 35.4215 38.3623 35.4607C38.3284 35.7372 38.3284 36.0167 38.3623 36.2932C38.3623 36.2932 38.2946 43.2894 38.101 51.5779C37.9413 58.4459 38.0453 62.3953 38.0865 63.5424C41.7382 63.0899 44.3785 62.5526 44.3785 62.5526C44.3785 62.5526 43.5581 60.4859 42.215 56.1227Z" fill="#F54748" stroke="#263238" stroke-linecap="round" stroke-linejoin="round"/>
<path d="M39.1295 35.7173V38.9262C39.1295 39.9523 39.3231 40.4653 38.9359 40.4653C38.5487 40.4653 35.3446 41.0437 30.1464 42.0698C26.843 42.729 23.4978 43.1576 20.1349 43.3524C19.7501 43.3524 20.2002 39.5675 20.2002 39.5675C20.2002 39.5675 29.9528 38.026 33.0964 36.9999C34.9669 36.3872 36.8745 35.8941 38.8076 35.5237" fill="#F54748"/>
<path d="M39.1295 35.7173V38.9262C39.1295 39.9523 39.3231 40.4653 38.9359 40.4653C38.5487 40.4653 35.3446 41.0437 30.1464 42.0698C26.843 42.729 23.4978 43.1576 20.1349 43.3524C19.7501 43.3524 20.2002 39.5675 20.2002 39.5675C20.2002 39.5675 29.9528 38.026 33.0964 36.9999C34.9669 36.3872 36.8745 35.8941 38.8076 35.5237" stroke="#263238" stroke-linecap="round" stroke-linejoin="round"/>
<path d="M27.9007 33.4062C27.9007 33.4062 28.542 31.93 30.2748 32.8931C32.0075 33.8563 33.1618 37.3217 32.9053 38.026C32.6488 38.7302 31.8139 38.9262 31.1072 38.2196C30.4006 37.5129 28.605 34.9477 28.1573 34.2411C27.7096 33.5344 27.9007 33.4062 27.9007 33.4062Z" fill="white" stroke="#263238" stroke-linecap="round" stroke-linejoin="round"/>
<path d="M25.9744 34.304C25.9744 34.304 29.2172 39.0327 29.8246 39.4393C30.432 39.8458 31.5621 40.0781 31.2354 38.6697C30.9281 37.3314 29.6963 34.7541 28.8614 33.8563C28.0265 32.9585 27.4506 32.8302 26.7439 33.215C26.0373 33.5998 25.8461 33.791 25.9744 34.304Z" fill="white" stroke="#263238" stroke-linecap="round" stroke-linejoin="round"/>
<path d="M26.243 34.0474C26.243 34.0474 29.2583 37.8977 29.5172 38.7979C29.7762 39.6981 29.2583 41.1719 27.9128 40.337C26.5673 39.5021 25.3452 36.7433 24.5756 35.7802C23.806 34.817 25.1395 33.3432 26.243 34.0474Z" fill="white" stroke="#263238" stroke-linecap="round" stroke-linejoin="round"/>
<path d="M24.4352 35.0106C24.4352 35.0106 22.4992 35.2671 22.2572 36.2932C22.0152 37.3193 23.6681 39.5675 25.016 39.9523C26.364 40.337 26.7488 39.2456 26.364 38.3478C25.9792 37.45 25.0765 35.2042 24.4352 35.0106Z" fill="white" stroke="#263238" stroke-linecap="round" stroke-linejoin="round"/>
<path d="M94.4798 72.5135H73.5419L78.44 49.7776H99.3778L94.4798 72.5135Z" fill="#263238" stroke="#263238" stroke-linecap="round" stroke-linejoin="round"/>
<path d="M99.3778 49.7776H78.4399C78.4399 49.7776 90.2955 52.6404 99.3778 49.7776Z" fill="#6B6B6B" stroke="#263238" stroke-linecap="round" stroke-linejoin="round"/>
<path d="M85.1506 59.5906L82.9435 66.3787L86.7066 68.9148L88.178 64.6629L85.1506 59.5906Z" fill="#3B3B3B" stroke="#263238" stroke-linecap="round" stroke-linejoin="round"/>
<path d="M85.1506 59.5906H92.43L93.5747 63.9272L88.178 64.6629L85.1506 59.5906Z" fill="#3B3B3B" stroke="#263238" stroke-linecap="round" stroke-linejoin="round"/>
<path d="M91.6048 76.3564C91.2302 71.3293 89.6926 66.458 87.1133 62.1268L81.373 76.3564H91.6048Z" fill="#3B3B3B" stroke="#263238" stroke-linecap="round" stroke-linejoin="round"/>
<path d="M100.636 76.3564C100.786 69.7135 97.3377 62.1268 97.3377 62.1268H87.1132C89.6925 66.458 91.2301 71.3293 91.6047 76.3564H100.636Z" fill="#6B6B6B" stroke="#263238" stroke-linecap="round" stroke-linejoin="round"/>
<path d="M104 75.6013H1V78.198H104V75.6013Z" fill="white" stroke="#263238" stroke-linecap="round" stroke-linejoin="round"/>
</svg>
