<svg width="181" height="51" viewBox="0 0 181 51" fill="none" xmlns="http://www.w3.org/2000/svg">
<path d="M173.719 50.3906H7.28122C3.62126 50.3906 0.623718 47.5546 0.623718 44.0918V6.29861C0.623718 2.83581 3.62126 -0.000249969 7.28122 -0.000249969H173.719C177.379 -0.000249969 180.376 2.83581 180.376 6.29861V44.0918C180.376 47.5546 177.379 50.3906 173.719 50.3906Z" fill="black"/>
<path d="M63.7601 12.9044C63.7601 13.9563 63.4272 14.7988 62.7715 15.4271C62.0175 16.1719 61.0355 16.5467 59.8322 16.5467C58.6821 16.5467 57.7001 16.1656 56.8946 15.4145C56.0873 14.6523 55.6846 13.717 55.6846 12.5973C55.6846 11.4777 56.0873 10.5423 56.8946 9.78647C57.7001 9.02903 58.6821 8.64795 59.8322 8.64795C60.4047 8.64795 60.9507 8.75975 61.4716 8.96762C61.9909 9.17705 62.4136 9.4605 62.7199 9.81009L62.0242 10.4746C61.4899 9.8778 60.7626 9.58333 59.8322 9.58333C58.9934 9.58333 58.266 9.86048 57.6485 10.4195C57.0377 10.9801 56.7315 11.706 56.7315 12.5973C56.7315 13.4886 57.0377 14.2209 57.6485 14.7815C58.266 15.3342 58.9934 15.6176 59.8322 15.6176C60.7226 15.6176 61.4716 15.3342 62.0625 14.7752C62.4519 14.4051 62.6733 13.8949 62.7315 13.243H59.8322V12.3328H63.7002C63.7468 12.5296 63.7601 12.7202 63.7601 12.9044V12.9044Z" fill="white" stroke="white" stroke-width="0.16" stroke-miterlimit="10"/>
<path d="M69.8967 9.7488H66.2633V12.1424H69.5388V13.0525H66.2633V15.4461H69.8967V16.3736H65.2347V8.82129H69.8967V9.7488Z" fill="white" stroke="white" stroke-width="0.16" stroke-miterlimit="10"/>
<path d="M74.2274 16.3736H73.1988V9.7488H70.9702V8.82129H76.4577V9.7488H74.2274V16.3736V16.3736Z" fill="white" stroke="white" stroke-width="0.16" stroke-miterlimit="10"/>
<path d="M80.4288 16.3736V8.82129H81.4558V16.3736H80.4288Z" fill="white" stroke="white" stroke-width="0.16" stroke-miterlimit="10"/>
<path d="M86.0078 16.3736H84.9875V9.7488H82.7506V8.82129H88.2447V9.7488H86.0078V16.3736Z" fill="white" stroke="white" stroke-width="0.16" stroke-miterlimit="10"/>
<path d="M98.6338 15.4019C97.8466 16.1656 96.8713 16.5467 95.7079 16.5467C94.5378 16.5467 93.5625 16.1656 92.7752 15.4019C91.9896 14.6397 91.5985 13.7044 91.5985 12.5973C91.5985 11.4903 91.9896 10.5549 92.7752 9.79277C93.5625 9.02903 94.5378 8.64795 95.7079 8.64795C96.8646 8.64795 97.8399 9.02903 98.6272 9.79907C99.4194 10.5675 99.8105 11.4966 99.8105 12.5973C99.8105 13.7044 99.4194 14.6397 98.6338 15.4019ZM93.5358 14.7689C94.1284 15.3342 94.849 15.6176 95.7079 15.6176C96.56 15.6176 97.2873 15.3342 97.8732 14.7689C98.4641 14.2035 98.7636 13.4776 98.7636 12.5973C98.7636 11.7171 98.4641 10.9911 97.8732 10.4258C97.2873 9.86048 96.56 9.57703 95.7079 9.57703C94.849 9.57703 94.1284 9.86048 93.5358 10.4258C92.945 10.9911 92.6454 11.7171 92.6454 12.5973C92.6454 13.4776 92.945 14.2035 93.5358 14.7689V14.7689Z" fill="white" stroke="white" stroke-width="0.16" stroke-miterlimit="10"/>
<path d="M101.254 16.3736V8.82129H102.502L106.383 14.695H106.428L106.383 13.2431V8.82129H107.41V16.3736H106.338L102.274 10.2102H102.229L102.274 11.6684V16.3736H101.254V16.3736Z" fill="white" stroke="white" stroke-width="0.16" stroke-miterlimit="10"/>
<path d="M91.3454 27.403C88.2181 27.403 85.6633 29.6548 85.6633 32.7618C85.6633 35.8435 88.2181 38.1189 91.3454 38.1189C94.4794 38.1189 97.0343 35.8435 97.0343 32.7618C97.0343 29.6548 94.4794 27.403 91.3454 27.403ZM91.3454 36.0088C89.6295 36.0088 88.1532 34.6687 88.1532 32.7618C88.1532 30.8296 89.6295 29.5131 91.3454 29.5131C93.0614 29.5131 94.5444 30.8296 94.5444 32.7618C94.5444 34.6687 93.0614 36.0088 91.3454 36.0088V36.0088ZM78.9475 27.403C75.8135 27.403 73.2653 29.6548 73.2653 32.7618C73.2653 35.8435 75.8135 38.1189 78.9475 38.1189C82.0798 38.1189 84.6297 35.8435 84.6297 32.7618C84.6297 29.6548 82.0798 27.403 78.9475 27.403ZM78.9475 36.0088C77.2299 36.0088 75.7486 34.6687 75.7486 32.7618C75.7486 30.8296 77.2299 29.5131 78.9475 29.5131C80.6635 29.5131 82.1398 30.8296 82.1398 32.7618C82.1398 34.6687 80.6635 36.0088 78.9475 36.0088ZM64.1945 29.0454V31.3225H69.9416C69.7735 32.5948 69.3241 33.5302 68.635 34.1821C67.7962 34.9695 66.4896 35.8435 64.1945 35.8435C60.6577 35.8435 57.8882 33.1428 57.8882 29.7966C57.8882 26.4503 60.6577 23.7497 64.1945 23.7497C66.1068 23.7497 67.4983 24.4567 68.5252 25.3732L70.2212 23.7686C68.7848 22.471 66.8741 21.4742 64.1945 21.4742C59.3445 21.4742 55.2684 25.2079 55.2684 29.7966C55.2684 34.3853 59.3445 38.1189 64.1945 38.1189C66.8159 38.1189 68.7848 37.3064 70.3327 35.7821C71.9188 34.2814 72.4132 32.1712 72.4132 30.4674C72.4132 29.9383 72.3666 29.4517 72.2833 29.0454H64.1945ZM124.521 30.8107C124.054 29.6123 122.611 27.403 119.671 27.403C116.759 27.403 114.334 29.5745 114.334 32.7618C114.334 35.7632 116.734 38.1189 119.951 38.1189C122.552 38.1189 124.054 36.6182 124.671 35.7443L122.741 34.527C122.096 35.4183 121.219 36.0088 119.951 36.0088C118.691 36.0088 117.787 35.4624 117.208 34.3853L124.783 31.4201L124.521 30.8107V30.8107ZM116.799 32.5948C116.734 30.5288 118.495 29.4706 119.756 29.4706C120.745 29.4706 121.584 29.9383 121.863 30.6075L116.799 32.5948V32.5948ZM110.642 37.793H113.132V22.0458H110.642V37.793ZM106.564 28.5966H106.481C105.922 27.9699 104.855 27.403 103.504 27.403C100.668 27.403 98.0745 29.7588 98.0745 32.7791C98.0745 35.7821 100.668 38.1189 103.504 38.1189C104.855 38.1189 105.922 37.5473 106.481 36.9017H106.564V37.6701C106.564 39.7188 105.408 40.8196 103.542 40.8196C102.021 40.8196 101.077 39.7803 100.688 38.9063L98.5222 39.7614C99.1464 41.1818 100.799 42.9297 103.542 42.9297C106.461 42.9297 108.925 41.3046 108.925 37.3505V27.729H106.564V28.5966V28.5966ZM103.717 36.0088C102.001 36.0088 100.564 34.6498 100.564 32.7791C100.564 30.891 102.001 29.5131 103.717 29.5131C105.408 29.5131 106.741 30.891 106.741 32.7791C106.741 34.6498 105.408 36.0088 103.717 36.0088V36.0088ZM136.179 22.0458H130.224V37.793H132.707V31.8264H136.179C138.937 31.8264 141.641 29.9383 141.641 26.9353C141.641 23.9339 138.93 22.0458 136.179 22.0458V22.0458ZM136.244 29.6359H132.707V24.2363H136.244C138.098 24.2363 139.156 25.6929 139.156 26.9353C139.156 28.1541 138.098 29.6359 136.244 29.6359ZM151.594 27.3731C149.8 27.3731 147.934 28.1226 147.167 29.784L149.371 30.6579C149.845 29.784 150.717 29.5005 151.639 29.5005C152.927 29.5005 154.234 30.2328 154.254 31.5256V31.6909C153.804 31.4453 152.842 31.0815 151.659 31.0815C149.286 31.0815 146.867 32.3177 146.867 34.6246C146.867 36.7348 148.811 38.0937 150.997 38.0937C152.668 38.0937 153.59 37.3804 154.169 36.5505H154.254V37.7678H156.652V31.7272C156.652 28.9352 154.449 27.3731 151.594 27.3731ZM151.295 36.0025C150.482 36.0025 149.351 35.6214 149.351 34.6687C149.351 33.4499 150.762 32.9822 151.984 32.9822C153.077 32.9822 153.59 33.2105 154.254 33.5113C154.059 34.9695 152.733 36.0025 151.295 36.0025V36.0025ZM165.39 27.7179L162.536 34.5443H162.451L159.5 27.7179H156.822L161.256 37.2576L158.726 42.5659H161.321L168.153 27.7179H165.39V27.7179ZM143.006 37.793H145.496V22.0458H143.006V37.793Z" fill="white"/>
<path d="M14.5179 9.49686C14.1268 9.88424 13.9005 10.4874 13.9005 11.2684V39.1283C13.9005 39.9093 14.1268 40.5124 14.5179 40.8998L14.6145 40.9849L31.1151 25.3794V25.011L14.6145 9.40553L14.5179 9.49686Z" fill="url(#paint0_linear_19_32)"/>
<path d="M36.6092 30.584L31.1151 25.3796V25.0111L36.6158 19.8066L36.739 19.8744L43.2533 23.3812C45.1124 24.3765 45.1124 26.0142 43.2533 27.0157L36.739 30.5163L36.6092 30.584V30.584Z" fill="url(#paint1_linear_19_32)"/>
<path d="M36.739 30.516L31.1151 25.195L14.5179 40.8996C15.1354 41.5138 16.1424 41.5878 17.2875 40.9737L36.739 30.516" fill="url(#paint2_linear_19_32)"/>
<path d="M36.739 19.8744L17.2875 9.41667C16.1424 8.80883 15.1354 8.88284 14.5179 9.49698L31.1151 25.1953L36.739 19.8744Z" fill="url(#paint3_linear_19_32)"/>
<defs>
<linearGradient id="paint0_linear_19_32" x1="29.65" y1="39.4184" x2="8.54041" y2="17.1069" gradientUnits="userSpaceOnUse">
<stop stop-color="#00A0FF"/>
<stop offset="0.0066" stop-color="#00A1FF"/>
<stop offset="0.2601" stop-color="#00BEFF"/>
<stop offset="0.5122" stop-color="#00D2FF"/>
<stop offset="0.7604" stop-color="#00DFFF"/>
<stop offset="1" stop-color="#00E3FF"/>
</linearGradient>
<linearGradient id="paint1_linear_19_32" x1="45.6742" y1="25.1935" x2="13.456" y2="25.1935" gradientUnits="userSpaceOnUse">
<stop stop-color="#FFE000"/>
<stop offset="0.4087" stop-color="#FFBD00"/>
<stop offset="0.7754" stop-color="#FFA500"/>
<stop offset="1" stop-color="#FF9C00"/>
</linearGradient>
<linearGradient id="paint2_linear_19_32" x1="33.6809" y1="22.3025" x2="5.05454" y2="-7.95383" gradientUnits="userSpaceOnUse">
<stop stop-color="#FF3A44"/>
<stop offset="1" stop-color="#C31162"/>
</linearGradient>
<linearGradient id="paint3_linear_19_32" x1="10.3401" y1="50.1688" x2="23.1231" y2="36.6581" gradientUnits="userSpaceOnUse">
<stop stop-color="#32A071"/>
<stop offset="0.0685" stop-color="#2DA771"/>
<stop offset="0.4762" stop-color="#15CF74"/>
<stop offset="0.8009" stop-color="#06E775"/>
<stop offset="1" stop-color="#00F076"/>
</linearGradient>
</defs>
</svg>
