<svg width="99" height="90" viewBox="0 0 99 90" fill="none" xmlns="http://www.w3.org/2000/svg">
<path d="M62.1093 28.5441C62.1093 28.5441 66.6031 29.3216 66.9652 29.4216C67.3274 29.5216 68.751 30.2134 68.8235 30.6593C68.861 31.2446 68.861 31.8319 68.8235 32.4172C68.8235 32.4172 68.5644 32.6316 68.4056 32.2029C68.299 31.7862 68.253 31.3556 68.2691 30.9251L67.4723 30.6107L67.9069 31.4025L67.9793 33.2576C67.9793 33.2576 67.4221 33.2062 67.3135 32.7631C67.2452 32.4545 67.2097 32.1392 67.2076 31.8227L66.6281 31.3196L67.0627 31.9227L67.2076 33.2576C67.2076 33.2576 66.7842 33.4005 66.6504 33.1033C66.5526 32.7178 66.5038 32.321 66.5056 31.9227L64.8674 31.3339L63.7837 31.9542L61.7583 30.7937L62.1093 28.5441Z" fill="#FFBE9D"/>
<path d="M46.3743 17.1475C46.3966 17.239 51.7902 24.8653 51.7902 24.8653L62.6275 28.324L62.1344 32.5002L48.8538 29.7561L44.14 24.205L46.3743 17.1475Z" fill="#F54748"/>
<g opacity="0.2">
<path d="M46.3743 17.1475C46.3966 17.239 51.7902 24.8653 51.7902 24.8653L62.6275 28.324L62.1344 32.5002L48.8538 29.7561L44.14 24.205L46.3743 17.1475Z" fill="black"/>
</g>
<path d="M27.4967 27.6351H5.35398C4.8847 27.6351 4.50427 28.0255 4.50427 28.507V31.191C4.50427 31.6725 4.8847 32.0628 5.35398 32.0628H27.4967C27.966 32.0628 28.3464 31.6725 28.3464 31.191V28.507C28.3464 28.0255 27.966 27.6351 27.4967 27.6351Z" fill="#F5F5F5"/>
<path d="M27.4995 32.0629C27.4995 32.0629 27.5469 32.0629 27.6388 32.0429C27.816 32.0094 27.9778 31.9182 28.1003 31.7827C28.2228 31.6472 28.2994 31.4748 28.3186 31.2911C28.3186 31.0224 28.3186 30.7023 28.3186 30.3478C28.3186 29.9934 28.3186 29.596 28.3186 29.1644C28.3186 28.9472 28.3186 28.7214 28.3186 28.487C28.3149 28.371 28.2884 28.2569 28.2405 28.1518C28.1926 28.0466 28.1244 27.9526 28.04 27.8753C27.9485 27.7959 27.841 27.7383 27.7252 27.7066C27.6018 27.679 27.475 27.6704 27.3491 27.6809H26.5356H24.7665L5.37354 27.7038C5.26507 27.7036 5.15776 27.7266 5.05846 27.7714C4.95917 27.8162 4.87006 27.8818 4.79685 27.9639C4.72449 28.047 4.66939 28.1443 4.6349 28.25C4.60041 28.3556 4.58726 28.4674 4.59626 28.5784C4.59626 29.0587 4.59626 29.536 4.59626 30.0077V31.0796C4.59094 31.189 4.60032 31.2986 4.62412 31.4054C4.66573 31.56 4.7513 31.6983 4.86991 31.8026C4.98851 31.907 5.13477 31.9727 5.28997 31.9914C5.38747 31.9914 5.50727 31.9914 5.61871 31.9914H10.7671L19.4844 32.0086L25.3627 32.0314L26.9619 32.0457H27.377H27.5191H27.377H26.9619L25.3627 32.06L19.4844 32.0829L10.7671 32.1H5.5992C5.48498 32.1 5.37912 32.1 5.25375 32.1C5.1325 32.085 5.0152 32.0462 4.90828 31.9857C4.80173 31.925 4.70797 31.8432 4.63242 31.7451C4.55686 31.6469 4.50102 31.5344 4.46811 31.414C4.4381 31.2946 4.42681 31.1711 4.43468 31.0481V29.9876C4.43468 29.516 4.43468 29.0386 4.43468 28.5584C4.42724 28.4288 4.44482 28.299 4.48641 28.1763C4.52801 28.0537 4.59279 27.9407 4.67705 27.8438C4.76327 27.746 4.86862 27.6679 4.98623 27.6148C5.10385 27.5616 5.23108 27.5344 5.35962 27.5351L24.7526 27.558H27.3352C27.4689 27.5523 27.6027 27.5638 27.7336 27.5923C27.8611 27.6278 27.9791 27.6923 28.079 27.7809C28.1732 27.8647 28.2494 27.9677 28.3026 28.0834C28.3559 28.199 28.385 28.3248 28.3883 28.4527C28.3883 28.6871 28.3883 28.9157 28.3883 29.133C28.3883 29.5646 28.3883 29.9591 28.3883 30.3164C28.3883 30.6737 28.3883 30.9852 28.3743 31.2654C28.3435 31.5024 28.2223 31.7173 28.0372 31.8628C27.9245 31.9495 27.7923 32.0055 27.6528 32.0257C27.604 32.0464 27.5522 32.0589 27.4995 32.0629Z" fill="#263238"/>
<path d="M87.6214 88.641C93.9056 88.3313 98.7553 82.8533 98.4535 76.4055C98.1516 69.9578 92.8125 64.9819 86.5283 65.2916C80.244 65.6013 75.3944 71.0793 75.6962 77.5271C75.9981 83.9748 81.3372 88.9507 87.6214 88.641Z" fill="#263238"/>
<path d="M75.6881 76.7687C75.6881 76.7687 75.6881 76.7887 75.6881 76.8001C75.6629 79.8877 76.8294 82.8601 78.9329 85.0682C81.0364 87.2763 83.906 88.5407 86.9151 88.5852C89.9242 88.6298 92.8282 87.4509 94.9929 85.306C97.1577 83.1611 98.4073 80.2244 98.4688 77.1374C98.4688 77.1374 98.4688 77.1174 98.4688 77.106L75.6881 76.7687Z" fill="#263238"/>
<path d="M79.0786 76.8487C79.0556 78.4717 79.5022 80.0652 80.362 81.4278C81.2217 82.7903 82.4559 83.8607 83.9086 84.5035C85.3612 85.1463 86.967 85.3327 88.5229 85.0391C90.0788 84.7455 91.5149 83.9851 92.6496 82.8541C93.7843 81.7231 94.5666 80.2722 94.8976 78.685C95.2286 77.0978 95.0935 75.4455 94.5092 73.9371C93.9249 72.4287 92.9178 71.1319 91.6153 70.2108C90.3127 69.2897 88.7731 68.7856 87.1913 68.7622C85.0704 68.7309 83.0242 69.5652 81.5028 71.0817C79.9814 72.5982 79.1094 74.6726 79.0786 76.8487Z" fill="#FAFAFA"/>
<path d="M87.1913 68.7622C85.0704 68.7309 83.0242 69.5652 81.5028 71.0817C79.9814 72.5982 79.1094 74.6726 79.0786 76.8487L95.0727 77.086C95.1033 74.9099 94.2901 72.8105 92.812 71.2495C91.334 69.6885 89.3122 68.7938 87.1913 68.7622Z" fill="#E0E0E0"/>
<path d="M82.2044 76.8945C82.1902 77.8832 82.462 78.8541 82.9856 79.6843C83.5092 80.5145 84.2611 81.1668 85.146 81.5585C86.0309 81.9503 87.0092 82.0641 87.9571 81.8854C88.905 81.7066 89.78 81.2435 90.4714 80.5546C91.1627 79.8656 91.6394 78.9817 91.8412 78.0148C92.0429 77.0478 91.9606 76.0412 91.6048 75.1222C91.2489 74.2032 90.6354 73.4132 89.8418 72.852C89.0483 72.2908 88.1104 71.9836 87.1467 71.9694C85.8548 71.9503 84.6084 72.4584 83.6816 73.382C82.7548 74.3056 82.2235 75.569 82.2044 76.8945Z" fill="#263238"/>
<path d="M81.6695 59.8296C81.6695 59.8296 93.3315 56.2108 98.1539 69.211L73.749 76.9688L81.6695 59.8296Z" fill="#F54748"/>
<path d="M17.3375 88.642C23.6218 88.3323 28.4714 82.8543 28.1696 76.4066C27.8677 69.9588 22.5287 64.983 16.2444 65.2927C9.96017 65.6024 5.11048 71.0804 5.41234 77.5281C5.71419 83.9759 11.0533 88.9517 17.3375 88.642Z" fill="#263238"/>
<path d="M5.40134 76.7687C5.40134 76.7687 5.40134 76.7887 5.40134 76.8001C5.37606 79.8877 6.54255 82.8601 8.64608 85.0682C10.7496 87.2763 13.6192 88.5407 16.6283 88.5852C19.6374 88.6298 22.5414 87.4509 24.7061 85.306C26.8709 83.1611 28.1205 80.2244 28.182 77.1374V77.1003L5.40134 76.7687Z" fill="#263238"/>
<path d="M8.80303 76.8487C8.78005 78.4717 9.22666 80.0652 10.0864 81.4278C10.9461 82.7903 12.1804 83.8607 13.633 84.5035C15.0857 85.1463 16.6915 85.3327 18.2474 85.0391C19.8033 84.7455 21.2394 83.9851 22.3741 82.8541C23.5088 81.7231 24.2911 80.2722 24.6221 78.685C24.9531 77.0978 24.8179 75.4455 24.2336 73.9371C23.6494 72.4287 22.6423 71.1319 21.3397 70.2108C20.0371 69.2897 18.4975 68.7856 16.9157 68.7622C14.7948 68.7309 12.7486 69.5652 11.2272 71.0817C9.70584 72.5982 8.83384 74.6726 8.80303 76.8487Z" fill="#FAFAFA"/>
<path d="M16.9045 68.7622C14.7855 68.734 12.7422 69.5697 11.2232 71.0858C9.70427 72.602 8.8338 74.6747 8.80298 76.8487L24.7971 77.086C24.8122 76.0075 24.62 74.9366 24.2314 73.9345C23.8428 72.9323 23.2655 72.0186 22.5325 71.2455C21.7995 70.4724 20.9251 69.8552 19.9594 69.4291C18.9937 69.003 17.9556 68.7764 16.9045 68.7622Z" fill="#E0E0E0"/>
<path d="M11.9177 76.8945C11.9035 77.8832 12.1754 78.8541 12.699 79.6843C13.2226 80.5145 13.9744 81.1668 14.8593 81.5585C15.7442 81.9503 16.7225 82.0641 17.6704 81.8854C18.6183 81.7066 19.4933 81.2435 20.1847 80.5546C20.876 79.8656 21.3527 78.9817 21.5545 78.0148C21.7562 77.0478 21.674 76.0412 21.3181 75.1222C20.9622 74.2032 20.3487 73.4132 19.5551 72.852C18.7616 72.2908 17.8237 71.9836 16.86 71.9694C15.5681 71.9503 14.3218 72.4584 13.3949 73.382C12.4681 74.3056 11.9368 75.569 11.9177 76.8945Z" fill="#263238"/>
<path d="M32.9934 72.2753C32.9293 72.3096 26.998 71.3348 26.998 71.3348C26.6774 71.7643 26.2691 72.1168 25.8019 72.3676C25.3346 72.6184 24.8196 72.7615 24.2929 72.7869C21.7298 72.9127 19.2253 73.0299 17.0494 73.1299C16.0773 73.1745 15.162 73.6125 14.504 74.3482C13.846 75.0838 13.4991 76.057 13.5391 77.0546C13.5782 78.0014 13.9629 78.8985 14.6168 79.5678C15.2707 80.2372 16.146 80.6297 17.0689 80.6676L29.6976 81.1793C31.7732 81.2622 34.5313 79.9702 35.8267 78.3037L32.9934 72.2753Z" fill="#455A64"/>
<path d="M1.9997 67.0958C1.9997 67.0958 1.45923 55.7049 11.8926 53.3324V51.8718H48.4387V55.3762C48.4387 55.3762 43.0757 62.0049 44.817 67.5074C46.5582 73.0099 47.1154 73.573 47.1154 73.573H67.9153C69.5566 71.2062 70.4715 68.3903 70.5424 65.4865C70.6539 60.6557 68.6981 52.3977 67.2355 47.1182C65.915 42.3017 65.0792 38.2885 65.0792 38.2885L71.3197 36.1533C71.3197 36.1533 82.8675 51.6603 83.3383 52.5178C83.8091 53.3753 85.4138 55.4219 85.0377 59.8754C84.6616 64.3288 74.2728 78.0664 71.5481 79.6157C68.8235 81.165 66.3607 81.2622 63.9063 81.6481C61.7778 81.9854 46.0316 81.7624 41.9112 81.6967C40.4794 81.6874 39.0756 81.2879 37.8437 80.539C36.6123 79.7729 35.6874 78.5038 34.665 76.4229L32.4836 72.0666L1.9997 67.0958Z" fill="#F54748"/>
<path d="M4.7968 66.3126L0.194417 73.7102C0.0578007 73.9152 -0.0100259 74.1603 0.00119912 74.4085C0.0124241 74.6566 0.102084 74.8942 0.256626 75.0854C0.411168 75.2765 0.622189 75.4109 0.857763 75.4681C1.09334 75.5253 1.34066 75.5022 1.56232 75.4024C2.13505 75.1397 2.65839 74.7759 3.10852 74.3276C5.21191 72.2724 8.95901 66.8585 8.95901 66.8585L4.7968 66.3126Z" fill="#455A64"/>
<path d="M37.8075 67.6446C37.8075 67.6446 37.8075 67.6075 37.8354 67.536L37.9273 67.2244C38.0381 66.8245 38.1191 66.4164 38.1697 66.0039C38.3239 64.477 38.0777 62.9355 37.4565 61.539C37.0387 60.5753 36.4651 59.691 35.7599 58.9236C34.9499 58.0471 34.0096 57.3081 32.9739 56.734C31.8261 56.0981 30.5979 55.6286 29.3243 55.3391C27.9513 55.0352 26.55 54.8866 25.1454 54.896C23.7471 54.9064 22.351 55.0124 20.9665 55.2133C19.6181 55.3991 18.3254 55.6278 17.1051 55.9136C14.9388 56.3857 12.8507 57.1781 10.9064 58.2661C9.6007 59.0095 8.40781 59.9446 7.36545 61.0417C6.99771 61.4304 6.73304 61.7534 6.55753 61.9735L6.35973 62.2279C6.3386 62.2582 6.3143 62.286 6.28729 62.3108C6.59468 61.8441 6.94147 61.406 7.32367 61.0016C8.35708 59.8837 9.5478 58.9308 10.8562 58.1746C12.804 57.067 14.9002 56.2599 17.0773 55.7793C18.2975 55.4934 19.5846 55.2562 20.947 55.0675C22.3426 54.8648 23.7498 54.7579 25.1593 54.7474C26.5716 54.7377 27.9805 54.8882 29.3605 55.1962C30.6467 55.4957 31.8861 55.9767 33.0436 56.6254C34.0938 57.2076 35.0465 57.9584 35.8657 58.8492C36.576 59.6298 37.1517 60.5288 37.5679 61.5076C38.1866 62.9228 38.4196 64.4836 38.2421 66.0239C38.1836 66.4382 38.0904 66.8466 37.9635 67.2445C37.919 67.3759 37.8855 67.476 37.8577 67.5532C37.8436 67.5851 37.8268 67.6157 37.8075 67.6446Z" fill="#263238"/>
<path d="M35.7042 65.0949C35.6874 65.0949 35.7627 64.9148 35.8407 64.5889C35.9451 64.1199 35.9593 63.6344 35.8825 63.1597C35.774 62.4619 35.5437 61.7899 35.2027 61.176C35.0097 60.8086 34.784 60.4603 34.5285 60.1355C34.261 59.7822 33.9575 59.4593 33.623 59.1722C32.9712 58.6215 32.2375 58.1814 31.45 57.8688C30.8057 57.6094 30.1373 57.4179 29.4553 57.2971C28.9941 57.2172 28.5291 57.1628 28.0623 57.1341C27.8908 57.1318 27.7196 57.1185 27.5497 57.0941C27.594 57.0873 27.6391 57.0873 27.6834 57.0941C27.7698 57.0941 27.8979 57.0941 28.0651 57.0941C28.5314 57.1012 28.9968 57.1403 29.4581 57.2113C30.151 57.3134 30.8311 57.4926 31.4862 57.7459C32.294 58.0579 33.0468 58.503 33.715 59.0636C34.056 59.3583 34.366 59.6888 34.6399 60.0497C34.896 60.3838 35.1226 60.7406 35.3169 61.1159C35.6618 61.745 35.8868 62.4357 35.98 63.1511C36.0492 63.6342 36.0198 64.1267 35.8936 64.5975C35.8606 64.7245 35.8158 64.848 35.7599 64.9662C35.7473 65.0116 35.7285 65.0549 35.7042 65.0949Z" fill="#F5F5F5"/>
<g opacity="0.4">
<path d="M28.5471 55.1075C30.5141 55.4761 32.3867 56.2544 34.0493 57.3943C35.721 58.5331 37.0084 60.1745 37.7351 62.0935C38.465 64.0201 38.3564 66.5727 37.5875 68.1677L40.17 68.3878C41.0393 65.4122 40.0948 61.7619 38.0054 59.4323C36.8098 58.0739 35.351 56.9866 33.7223 56.2399C32.0936 55.4932 30.3309 55.1036 28.5471 55.0961" fill="black"/>
</g>
<path d="M27.7224 31.8398H5.13113C3.81098 31.8398 2.74078 32.9379 2.74078 34.2924V49.4278C2.74078 50.7823 3.81098 51.8803 5.13113 51.8803H27.7224C29.0425 51.8803 30.1127 50.7823 30.1127 49.4278V34.2924C30.1127 32.9379 29.0425 31.8398 27.7224 31.8398Z" fill="#455A64"/>
<path d="M30.1127 36.3105C30.1127 36.3534 23.9586 36.3848 16.3697 36.3848C8.78073 36.3848 2.62378 36.3534 2.62378 36.3105C2.62378 36.2676 8.77516 36.2362 16.3697 36.2362C23.9642 36.2362 30.1127 36.2705 30.1127 36.3105Z" fill="#263238"/>
<path d="M48.422 53.2066C48.422 53.2467 40.2062 53.281 30.0765 53.281C19.9468 53.281 11.731 53.2467 11.731 53.2066C11.731 53.1666 19.944 53.1323 30.0765 53.1323C40.209 53.1323 48.422 53.1666 48.422 53.2066Z" fill="#263238"/>
<path d="M48.4387 51.8804C48.8111 51.3963 49.0411 50.8132 49.1018 50.1996C49.1575 49.2592 48.7396 48.0815 47.7506 48.0815H35.1303C34.1483 48.0815 33.2065 48.4818 32.5122 49.1942C31.8178 49.9066 31.4277 50.8729 31.4277 51.8804H48.4387Z" fill="#455A64"/>
<path d="M65.0792 38.2885L62.8839 33.5921C62.5908 32.9473 62.5426 32.2137 62.7487 31.5344C62.9548 30.8552 63.4003 30.2792 63.9982 29.919L70.5619 25.9029C70.9043 25.6916 71.2963 25.58 71.6958 25.5799H73.1139L73.6711 35.0727L71.4869 35.9389L72.8798 38.2485L65.0792 38.2885Z" fill="#F54748"/>
<path d="M73.1334 25.9344C73.1334 25.9344 75.3788 26.4632 75.6602 30.0134C75.9416 33.5635 73.6794 34.6726 73.6794 34.6726L73.1334 25.9344Z" fill="#EBEBEB"/>
<path d="M65.8453 31.7513C65.8453 31.7513 61.3069 33.958 60.7525 34.3239C60.3681 34.5754 60.0393 35.0156 60.3402 35.7903C60.8528 37.108 62.9757 35.8674 62.9757 35.8674L67.202 33.7008C67.202 33.7008 68.8262 32.9147 68.2245 31.9285C67.553 30.8252 65.8453 31.7513 65.8453 31.7513Z" fill="#263238"/>
<path d="M59.4208 30.9481C59.4208 30.9481 63.6861 31.697 64.0483 31.8056C64.4105 31.9142 65.8313 32.5974 65.9037 33.0433C65.9413 33.6286 65.9413 34.2159 65.9037 34.8012C65.9037 34.8012 65.6474 35.0156 65.4859 34.5868C65.3808 34.1689 65.3348 33.7376 65.3493 33.3063L64.5525 32.9918L64.9872 33.7836L65.0596 35.6416C65.0596 35.6416 64.5024 35.5902 64.3965 35.1442C64.3281 34.8366 64.2926 34.5222 64.2907 34.2067L63.7084 33.7007L64.143 34.3039L64.2907 35.6416C64.2907 35.6416 63.8672 35.7817 63.7335 35.4844C63.6355 35.099 63.5868 34.7021 63.5886 34.3039L61.9505 33.7179L60.8667 34.3382L59.1617 33.3663L59.4208 30.9481Z" fill="#FFBE9D"/>
<path d="M66.0626 24.8538C66.0626 26.6261 65.2686 28.061 64.2907 28.061C63.3129 28.061 62.5189 26.6318 62.5189 24.8538C62.5189 23.0759 63.3101 21.6467 64.2907 21.6467C65.2714 21.6467 66.0626 23.0759 66.0626 24.8538Z" fill="#263238"/>
<path d="M64.5805 27.0577L65.5556 30.5221C65.7336 30.4301 65.8756 30.2786 65.9582 30.0925C66.0407 29.9064 66.0589 29.697 66.0097 29.4988C65.7645 28.3126 65.6252 27.4693 65.3578 26.4289C65.3243 26.326 64.5805 27.0577 64.5805 27.0577Z" fill="#263238"/>
<g opacity="0.4">
<path d="M45.2989 68.9738C45.2042 68.688 45.1039 68.4021 45.0203 68.0963C44.9368 67.7904 44.8309 67.5246 44.7585 67.2387C44.6462 66.8099 44.5642 66.3734 44.5133 65.9324C42.8696 72.7927 45.3797 77.632 49.6868 77.9722C55.9831 78.4695 63.6583 78.8297 66.7619 77.995C72.4202 76.4715 74.4957 71.6293 74.9916 70.8318C75.4875 70.0343 79.9868 61.5933 77.2204 53.4668C74.4539 45.3403 69.6565 36.7107 69.6565 36.7107L65.0792 38.2885C65.0792 38.2885 65.915 42.2903 67.2439 47.1039C68.7065 52.3835 70.6622 60.6415 70.5508 65.4722C70.4799 68.3761 69.565 71.192 67.9236 73.5587H47.1265C47.1265 73.5587 46.6808 73.1014 45.3073 68.9852" fill="black"/>
</g>
<path d="M1.16947 65.3178L1.31712 63.6885L39.284 68.1763C39.7915 68.2375 40.2813 68.4045 40.7236 68.667C41.1658 68.9295 41.5511 69.282 41.8558 69.7028C42.1605 70.1235 42.3782 70.6038 42.4956 71.114C42.6129 71.6242 42.6273 72.1536 42.538 72.6697L42.3681 73.6559L3.0862 67.799C2.51645 67.719 1.99889 67.4162 1.64168 66.9538C1.28448 66.4914 1.11528 65.9052 1.16947 65.3178Z" fill="#F54748"/>
<g opacity="0.6">
<path d="M1.16947 65.3178L1.31712 63.6885L39.284 68.1763C39.7915 68.2375 40.2813 68.4045 40.7236 68.667C41.1658 68.9295 41.5511 69.282 41.8558 69.7028C42.1605 70.1235 42.3782 70.6038 42.4956 71.114C42.6129 71.6242 42.6273 72.1536 42.538 72.6697L42.3681 73.6559L3.0862 67.799C2.51645 67.719 1.99889 67.4162 1.64168 66.9538C1.28448 66.4914 1.11528 65.9052 1.16947 65.3178Z" fill="black"/>
</g>
<g opacity="0.3">
<path d="M74.9916 76.2142C74.9916 76.2142 83.3494 66.7813 85.0739 59.3666C85.9404 59.3614 86.8059 59.4274 87.6621 59.5638C87.6621 59.5638 82.7198 73.35 74.9916 76.2142Z" fill="black"/>
</g>
<path d="M84.9514 56.0451C84.973 56.1227 84.9879 56.2021 84.996 56.2824C85.0183 56.4396 85.0628 56.6711 85.0907 56.9712C85.1722 57.8282 85.1507 58.6922 85.0266 59.5438C84.8303 60.8015 84.4548 62.0227 83.9122 63.1683C83.2502 64.5631 82.5117 65.9182 81.7002 67.2273C80.2439 69.6163 78.6082 71.8852 76.8081 74.0132C76.1283 74.8393 75.5655 75.4967 75.1755 75.9484L74.7242 76.4657C74.6729 76.5272 74.618 76.5855 74.5598 76.6401C74.6012 76.5718 74.6487 76.5077 74.7019 76.4486L75.1337 75.9112L76.7301 73.9475C78.5019 71.8032 80.1218 69.5316 81.5776 67.1501C82.39 65.8454 83.1339 64.4972 83.8064 63.1111C84.3419 61.9767 84.7171 60.7698 84.9207 59.5267C85.0488 58.6873 85.0852 57.836 85.0294 56.9884C85.0099 56.6883 84.9737 56.4567 84.9625 56.2966C84.9507 56.2134 84.9469 56.1291 84.9514 56.0451Z" fill="#263238"/>
<path d="M70.5035 76.1456C70.0249 75.7699 69.5767 75.355 69.1634 74.905C68.7173 74.4903 68.3037 74.0401 67.9265 73.5587C68.852 74.3483 69.7138 75.2135 70.5035 76.1456Z" fill="#263238"/>
<path d="M45.6973 75.8569C45.8318 75.4164 46.0402 75.0033 46.313 74.6363C46.5454 74.2414 46.8422 73.8904 47.1906 73.5987C47.2212 73.6301 46.8396 74.0989 46.4328 74.7192C46.0261 75.3395 45.7363 75.874 45.6973 75.8569Z" fill="#263238"/>
<path d="M29.6391 81.3022C30.0962 80.8745 30.4812 80.3723 30.7786 79.8158C31.0905 79.2081 31.28 78.5422 31.3357 77.8578C31.4202 77.0233 31.2781 76.1812 30.925 75.4244C30.572 74.6677 30.0219 74.026 29.3354 73.5701C28.7821 73.1844 28.1586 72.917 27.5023 72.784C26.894 72.6713 26.2718 72.6626 25.6608 72.7583C25.7 72.741 25.7412 72.7285 25.7833 72.7212C25.9043 72.6886 26.0271 72.6638 26.1511 72.6468C26.6069 72.5842 27.0695 72.5958 27.5218 72.6811C28.1966 72.8034 28.8396 73.0671 29.4107 73.4558C30.1245 73.9209 30.6962 74.583 31.0603 75.366C31.4244 76.1491 31.5662 77.0216 31.4695 77.8835C31.4055 78.5859 31.2007 79.2672 30.8677 79.8844C30.6487 80.2993 30.3666 80.6756 30.0319 80.9992C29.9444 81.0881 29.8513 81.1712 29.7533 81.2479C29.7175 81.2706 29.6792 81.2889 29.6391 81.3022Z" fill="#263238"/>
<path d="M15.7679 78.3151C15.6723 77.8645 15.6265 77.4042 15.6314 76.9431C15.5833 76.4832 15.5833 76.0194 15.6314 75.5596C15.7705 76.4707 15.8135 77.3945 15.7595 78.3151H15.7679Z" fill="#263238"/>
<path d="M16.782 78.318C16.5735 77.4125 16.4586 76.487 16.4393 75.5568C16.5663 76.0043 16.6475 76.4641 16.6817 76.9288C16.7624 77.387 16.796 77.8526 16.782 78.318Z" fill="#263238"/>
<path d="M32.4418 51.8803C32.4418 51.9204 27.8255 51.9547 22.1338 51.9547C16.4421 51.9547 11.8257 51.9204 11.8257 51.8803C11.8257 51.8403 16.4421 51.806 22.1338 51.806C27.8255 51.806 32.4418 51.8375 32.4418 51.8803Z" fill="#263238"/>
<path d="M17.4924 51.8661C17.4506 51.8661 17.4199 46.435 17.4199 39.752C17.4199 33.069 17.4394 27.6494 17.4924 27.6494C17.5453 27.6494 17.5648 33.0804 17.5648 39.7663C17.5648 46.4522 17.5314 51.8661 17.4924 51.8661Z" fill="#263238"/>
<path d="M14.6535 51.8461C14.6145 51.8461 14.8123 46.415 15.0965 39.7377C15.3807 33.0604 15.6537 27.6323 15.6815 27.6351C15.7094 27.638 15.5255 33.0662 15.2414 39.7435C14.9572 46.4207 14.7065 51.8489 14.6535 51.8461Z" fill="#263238"/>
<path d="M8.27084 84.9038C8.22602 84.8651 8.18497 84.822 8.14826 84.7752C8.07582 84.6895 7.95603 84.5665 7.82509 84.3922C7.43997 83.9068 7.09604 83.3885 6.79707 82.8429C5.78863 81.0366 5.26205 78.9896 5.27036 76.908C5.27868 74.8264 5.8216 72.7838 6.84444 70.9861C7.14652 70.4425 7.49423 69.927 7.8836 69.4454C8.01733 69.2711 8.13712 69.1596 8.21234 69.0624C8.28756 68.9652 8.33214 68.9338 8.33492 68.9395C8.30731 68.9912 8.27363 69.0392 8.23462 69.0824C8.16776 69.1767 8.05353 69.3025 7.92817 69.4826C6.49906 71.3504 5.63807 73.6089 5.45275 75.9759C5.26744 78.3429 5.76603 80.7135 6.88622 82.7915C7.17466 83.3376 7.50343 83.8603 7.86966 84.355C7.99225 84.5351 8.10369 84.6637 8.17055 84.7581C8.23741 84.8524 8.27641 84.8981 8.27084 84.9038Z" fill="#455A64"/>
<path d="M48.1824 63.1254L48.096 63.2912L46.4133 66.5241L44.062 68.8452L48.7618 75.2652L52.6761 74.5992C52.6761 74.5992 52.2387 73.6816 50.2718 73.5044L49.528 69.6684L52.2889 65.2778" fill="#455A64"/>
<path d="M44.0675 68.8537L48.7674 75.2737L52.6817 74.6077L52.144 74.0789L48.9318 74.4391L44.569 68.3592L44.0675 68.8537Z" fill="#E0E0E0"/>
<path d="M49.9654 71.7493C49.9431 71.795 49.6868 71.7007 49.4082 71.7636C49.1296 71.8265 48.904 71.9894 48.8678 71.9551C48.8315 71.9208 49.0071 71.6521 49.3748 71.5864C49.7425 71.5206 49.9961 71.7122 49.9654 71.7493Z" fill="#263238"/>
<path d="M49.7564 70.8118C49.723 70.8461 49.5085 70.6402 49.1992 70.6288C48.89 70.6174 48.642 70.8089 48.617 70.7717C48.5919 70.7346 48.6365 70.6831 48.7368 70.6002C48.8723 70.4987 49.037 70.4464 49.2048 70.4516C49.3727 70.4561 49.534 70.5197 49.6617 70.6317C49.7369 70.7117 49.7564 70.7889 49.7564 70.8118Z" fill="#263238"/>
<path d="M49.5754 69.5683C49.5364 69.5997 49.3636 69.3911 49.0767 69.3396C48.7897 69.2882 48.5585 69.4225 48.5195 69.3796C48.4805 69.3368 48.5446 69.2967 48.6476 69.2367C48.7837 69.1628 48.94 69.1378 49.0915 69.1658C49.243 69.1938 49.381 69.2731 49.4834 69.3911C49.5781 69.4825 49.5949 69.5569 49.5754 69.5683Z" fill="#263238"/>
<path d="M50.4669 68.4392C50.4251 68.4621 50.2774 68.2534 50.0072 68.1334C49.737 68.0133 49.4918 68.0305 49.4807 67.9819C49.4695 67.9333 49.7592 67.8161 50.0796 67.9819C50.4 68.1477 50.5142 68.425 50.4669 68.4392Z" fill="#263238"/>
<path d="M50.8457 67.5274C50.8262 67.5417 50.673 67.4045 50.4362 67.1644L50.035 66.7385C49.9442 66.6551 49.8654 66.5588 49.801 66.4526C49.7823 66.4144 49.7712 66.3727 49.7683 66.33C49.7655 66.2873 49.7709 66.2445 49.7843 66.2039C49.8001 66.1577 49.829 66.1173 49.8671 66.0878C49.9053 66.0583 49.9511 66.041 49.9988 66.0381C50.1414 66.0401 50.2802 66.0859 50.3972 66.1696C50.4992 66.2366 50.5928 66.3163 50.6758 66.4069C50.8143 66.5633 50.9162 66.75 50.9739 66.9528C51.0473 67.136 51.0473 67.3414 50.9739 67.5245C50.9456 67.3478 50.9065 67.1731 50.8569 67.0014C50.7889 66.8255 50.6876 66.6652 50.5588 66.5298C50.4828 66.4525 50.3976 66.3852 50.3053 66.3297C50.2167 66.2703 50.1153 66.234 50.01 66.224C49.9953 66.2242 49.9811 66.2289 49.9692 66.2376C49.9572 66.2463 49.9482 66.2585 49.9431 66.2725C49.9281 66.3101 49.9281 66.3522 49.9431 66.3897C49.9974 66.4818 50.0629 66.5663 50.1381 66.6413L50.5198 67.0958C50.6502 67.2209 50.7602 67.3666 50.8457 67.5274Z" fill="#263238"/>
<path d="M51.0045 67.6217C50.985 67.6217 50.9655 67.4102 51.1382 67.1329C51.2557 66.9499 51.4277 66.8108 51.6284 66.7361C51.8292 66.6614 52.0481 66.6552 52.2526 66.7185C52.275 66.7335 52.294 66.7533 52.3085 66.7764C52.3229 66.7996 52.3323 66.8256 52.3362 66.8528C52.3399 66.8994 52.3302 66.9461 52.3083 66.9871C52.2772 67.0443 52.2366 67.0956 52.1885 67.1386C52.111 67.2155 52.0271 67.2853 51.9378 67.3473C51.7873 67.4513 51.6219 67.5303 51.4475 67.5817C51.2919 67.6464 51.1204 67.6594 50.9572 67.6189C50.9572 67.5903 51.1382 67.5731 51.4085 67.4616C51.5641 67.3984 51.7111 67.3148 51.8459 67.213C51.9255 67.1528 52 67.0858 52.0687 67.0129C52.1026 66.9823 52.1317 66.9467 52.1551 66.9071C52.169 66.8671 52.1551 66.8785 52.1551 66.8699C52.1172 66.8533 52.0765 66.8445 52.0353 66.8442C51.9862 66.8399 51.9368 66.8399 51.8877 66.8442C51.792 66.8529 51.6981 66.876 51.6091 66.9128C51.4585 66.973 51.3253 67.0713 51.2218 67.1987C51.1402 67.3345 51.0676 67.4758 51.0045 67.6217Z" fill="#263238"/>
<path d="M47.1711 68.1991C47.1864 68.2935 47.1741 68.3903 47.1357 68.4774C47.0974 68.5646 47.0347 68.638 46.9556 68.6886C46.8765 68.7391 46.7846 68.7645 46.6915 68.7614C46.5983 68.7583 46.5082 68.7269 46.4324 68.6712C46.3567 68.6156 46.2988 68.5381 46.266 68.4486C46.2332 68.3591 46.227 68.2616 46.2482 68.1686C46.2694 68.0755 46.3171 67.9909 46.3852 67.9256C46.4532 67.8604 46.5387 67.8173 46.6306 67.8018C46.7535 67.7819 46.8791 67.8125 46.9802 67.8868C47.0814 67.9612 47.1499 68.0734 47.1711 68.1991Z" fill="#E0E0E0"/>
<path d="M62.4465 66.2126L63.7029 74.582L73.8633 73.0328C73.6571 72.0466 68.1131 70.8489 68.1131 70.8489L67.5225 65.4522L62.4465 66.2126Z" fill="#455A64"/>
<path d="M64.9064 70.8775C64.8129 70.9225 64.739 71.0014 64.6988 71.0991C64.6587 71.1967 64.6553 71.3062 64.6891 71.4063C64.7304 71.5032 64.806 71.5804 64.9006 71.6224C64.9953 71.6643 65.1019 71.6678 65.199 71.6321C65.2998 71.5834 65.379 71.4975 65.4208 71.3916C65.4626 71.2856 65.464 71.1674 65.4246 71.0604C65.3721 70.9627 65.2846 70.8898 65.1805 70.8572C65.0765 70.8247 64.9642 70.835 64.8674 70.8861" fill="#E0E0E0"/>
<path d="M63.7029 74.582L63.6082 73.7245L73.3841 72.5554C73.3841 72.5554 73.866 72.6898 73.8633 73.0242L63.7029 74.582Z" fill="#E0E0E0"/>
<path d="M68.269 70.7717C68.269 70.8232 68.0322 70.8832 67.8094 71.0833C67.5865 71.2834 67.4918 71.5178 67.4416 71.5063C67.3915 71.4949 67.4249 71.1862 67.6951 70.9489C67.9654 70.7117 68.2746 70.7231 68.269 70.7717Z" fill="#263238"/>
<path d="M69.4002 71.0604C69.4197 71.109 69.2164 71.2262 69.0799 71.4692C68.9433 71.7121 68.9266 71.9437 68.8765 71.9494C68.8263 71.9551 68.7539 71.6635 68.9294 71.3777C69.1049 71.0919 69.3919 71.0118 69.4002 71.0604Z" fill="#263238"/>
<path d="M70.1969 72.2752C70.1523 72.2953 70.0465 72.0494 70.1328 71.7522C70.2192 71.4549 70.4365 71.3062 70.4644 71.3463C70.4922 71.3863 70.3696 71.5578 70.3 71.8036C70.2303 72.0494 70.2443 72.2638 70.1969 72.2752Z" fill="#263238"/>
<path d="M68.0017 69.5569C68.0017 69.6055 67.751 69.5712 67.4724 69.6312C67.1938 69.6912 66.9904 69.8199 66.957 69.7798C66.9235 69.7398 67.1102 69.5254 67.4362 69.4568C67.7621 69.3882 68.0212 69.5111 68.0017 69.5569Z" fill="#263238"/>
<path d="M67.5865 68.3563C67.4263 68.428 67.2501 68.4536 67.0767 68.4307C66.8883 68.4253 66.7012 68.3965 66.5195 68.3449C66.4085 68.3177 66.2996 68.2824 66.1936 68.2391C66.1316 68.2164 66.0741 68.1825 66.0236 68.1391C65.9853 68.1087 65.9583 68.0657 65.9472 68.0173C65.936 67.9689 65.9414 67.9181 65.9623 67.8733C65.982 67.8338 66.0104 67.7995 66.0452 67.7732C66.08 67.7469 66.1203 67.7293 66.1629 67.7218C66.2266 67.7117 66.2914 67.7117 66.3552 67.7218C66.4685 67.7303 66.5806 67.7514 66.6895 67.7847C66.8724 67.8379 67.0463 67.9199 67.2049 68.0276C67.4835 68.2163 67.581 68.3935 67.5642 68.4078C67.5475 68.4221 67.4055 68.2849 67.1408 68.1362C66.9855 68.0502 66.8196 67.9858 66.6477 67.9447C66.5474 67.9177 66.4447 67.9014 66.3412 67.8961C66.2298 67.8961 66.1378 67.8961 66.1183 67.9504C66.0988 68.0048 66.1183 67.9762 66.1378 68.0076C66.1762 68.0373 66.2184 68.0614 66.2632 68.0791C66.3587 68.1233 66.4563 68.1625 66.5557 68.1963C66.7255 68.2519 66.8999 68.2911 67.0767 68.3135C67.2474 68.3153 67.4178 68.3296 67.5865 68.3563Z" fill="#263238"/>
<path d="M67.528 68.4392C67.5113 68.4392 67.3859 68.282 67.3191 67.9561C67.2888 67.7668 67.2888 67.5737 67.3191 67.3844C67.3371 67.2697 67.3651 67.1568 67.4027 67.0471C67.4194 66.9752 67.4538 66.9088 67.5025 66.8542C67.5513 66.7997 67.6128 66.7589 67.6813 66.7356C67.7265 66.7297 67.7725 66.737 67.8139 66.7567C67.8553 66.7764 67.8905 66.8077 67.9153 66.8471C67.9503 66.9049 67.9775 66.9674 67.9961 67.0329C68.0302 67.1467 68.0472 67.2653 68.0462 67.3844C68.0462 67.5838 67.9984 67.7802 67.9069 67.9561C67.7481 68.242 67.5503 68.3477 67.5447 68.3306C67.5392 68.3134 67.6813 68.1848 67.7955 67.9018C67.8619 67.7392 67.8924 67.5635 67.8846 67.3873C67.8819 67.2851 67.8641 67.1839 67.8317 67.0872C67.8011 66.9785 67.7481 66.8956 67.7091 66.9128C67.6701 66.9299 67.5838 67.0157 67.5559 67.11C67.5182 67.2081 67.4893 67.3095 67.4695 67.413C67.4379 67.5893 67.4304 67.7692 67.4472 67.9476C67.4723 68.2391 67.5531 68.4278 67.528 68.4392Z" fill="#263238"/>
<path d="M54.4535 46.5522L45.7419 66.0296L51.4949 69.574L63.5413 46.1378" fill="#263238"/>
<path d="M68.8207 70.0171L62.5718 71.0461L58.8303 48.1387L40.3455 49.5136C39.8566 49.5484 39.3653 49.5011 38.8912 49.3735C33.701 47.9128 34.4031 41.1212 34.9046 40.0321L60.4824 39.2804C61.8224 39.2404 63.1297 39.7092 64.1538 40.5969C65.1778 41.4846 65.8466 42.7288 66.032 44.0911L68.8207 70.0171Z" fill="#263238"/>
<path d="M34.6455 41.1069L34.7374 31.4225C34.7374 31.4225 33.52 25.134 33.1578 22.65C32.6006 18.8083 31.8317 16.9817 37.9663 14.2519L39.3092 13.7203L41.3847 13.7489C43.8586 13.9404 46.4663 16.2357 46.5276 17.7507L48.9207 39.5805L34.6455 41.1069Z" fill="#F54748"/>
<path d="M35.0299 16.5015C35.0299 16.5015 33.2971 20.3261 33.637 23.8105L40.092 30.1677C41.5379 31.8199 43.3488 32.523 45.6639 32.666L59.0197 34.1638L59.3903 30.5793L46.6919 26.8862C46.1849 26.789 45.9313 26.2488 45.5441 25.9001L35.0299 16.5015Z" fill="#F54748"/>
<path d="M33.9852 17.6049C34.0602 17.5313 34.1469 17.4714 34.2415 17.4277C34.5165 17.3034 34.8073 17.2196 35.1052 17.179C35.583 17.0985 36.0705 17.0985 36.5483 17.179C36.6959 17.2065 36.8387 17.2566 36.9718 17.3276C37.1078 17.4152 37.239 17.5106 37.3646 17.6135C37.6209 17.8193 37.88 18.0565 38.1446 18.3138C38.6796 18.8254 39.1866 19.4743 39.78 20.1317C40.3734 20.7892 41.0225 21.4952 41.7302 22.2355C42.4378 22.9759 43.1984 23.7505 44.0119 24.5509C44.4214 24.9511 44.8476 25.3569 45.2906 25.7543C45.5163 25.9429 45.7391 26.1659 45.9537 26.3745C46.1558 26.5891 46.411 26.7432 46.6919 26.8205L59.4154 30.5078L59.4739 30.525V30.5879C59.4488 30.8423 59.4182 31.1138 59.3903 31.3911C59.2928 32.343 59.1953 33.2862 59.1117 34.1724V34.2467H59.0393L53.3782 33.6007L50.7037 33.3005L48.1434 33.0347C47.3076 32.9404 46.5025 32.8432 45.7196 32.726C44.9549 32.6297 44.2022 32.4505 43.4742 32.1915C42.8031 31.9293 42.1681 31.5786 41.5853 31.1481C41.0281 30.7451 40.5043 30.3249 40.0224 29.9104C38.114 28.2411 36.7127 26.7461 35.7404 25.7285C35.2584 25.2169 34.8879 24.8138 34.6399 24.5394L34.3613 24.225L34.2694 24.1135C34.2694 24.1135 34.3056 24.145 34.3725 24.2136C34.4393 24.2822 34.5368 24.3879 34.6511 24.5194L35.7654 25.6914C36.7489 26.6947 38.1614 28.1782 40.0725 29.8333C40.5545 30.242 41.0699 30.6593 41.6299 31.0567C42.2089 31.4782 42.838 31.8221 43.502 32.08C44.2251 32.333 44.9721 32.5074 45.7308 32.6002C46.5136 32.7146 47.3216 32.8117 48.1518 32.9032L50.7121 33.1605L53.3866 33.4606L59.0421 34.0923L58.9613 34.1581C59.0532 33.2719 59.1507 32.3287 59.2399 31.3739C59.2705 31.0881 59.2984 30.8251 59.3234 30.5707L59.3764 30.6508L46.6724 26.9491C46.3623 26.87 46.0803 26.7026 45.8589 26.466C45.6333 26.2459 45.4299 26.0401 45.1987 25.8429C44.7501 25.4427 44.3295 25.0339 43.9199 24.6338C43.1064 23.8305 42.3486 23.0502 41.6438 22.307C40.939 21.5638 40.2926 20.8549 39.6936 20.1889C39.0947 19.5229 38.6043 18.8769 38.075 18.3652C37.8315 18.1174 37.5748 17.8836 37.3061 17.6649C37.1848 17.5603 37.0563 17.4648 36.9216 17.3791C36.7954 17.3087 36.659 17.2594 36.5177 17.2333C36.0476 17.1449 35.5665 17.1372 35.094 17.2104C34.7983 17.2445 34.5086 17.3205 34.2332 17.4362C34.1465 17.4859 34.0636 17.5423 33.9852 17.6049Z" fill="#263238"/>
<path d="M37.32 5.31935L37.9663 14.7522C38.0178 15.4938 38.3413 16.1878 38.8718 16.6944C39.4022 17.201 40.1001 17.4824 40.8247 17.482C41.2166 17.482 41.6043 17.3996 41.9639 17.2398C42.3234 17.0799 42.6472 16.8461 42.9151 16.5527C43.1831 16.2593 43.3895 15.9126 43.5216 15.5341C43.6537 15.1555 43.7086 14.7532 43.6831 14.352C43.6246 13.4544 43.5744 12.7198 43.5744 12.7198C43.5744 12.7198 45.8032 12.3654 45.8255 10.0815C45.8422 8.76376 45.6193 5.77384 45.4299 3.48138C45.3676 2.73253 45.033 2.03513 44.4926 1.52778C43.9522 1.02043 43.2455 0.740281 42.513 0.743001H41.1674C40.6194 0.777142 40.0836 0.923526 39.5917 1.17351C39.0997 1.4235 38.6615 1.77204 38.3029 2.19856C37.9443 2.62508 37.6726 3.12096 37.5038 3.65695C37.335 4.19294 37.2725 4.75819 37.32 5.31935Z" fill="#FFBE9D"/>
<path d="M43.5772 12.6827C42.5505 12.7025 41.5411 12.409 40.6771 11.8394C40.6771 11.8394 41.3624 13.4802 43.5828 13.2686L43.5772 12.6827Z" fill="#EB996E"/>
<path d="M44.9312 6.41131C44.9319 6.49628 44.9003 6.5782 44.8431 6.63961C44.7859 6.70102 44.7075 6.73706 44.6247 6.74003C44.5847 6.74395 44.5444 6.73961 44.5061 6.72728C44.4678 6.71495 44.4322 6.69487 44.4016 6.66823C44.371 6.64159 44.3458 6.60893 44.3277 6.57217C44.3096 6.53541 44.2988 6.49529 44.296 6.45419C44.2952 6.36894 44.3267 6.28669 44.3839 6.22483C44.441 6.16296 44.5194 6.12631 44.6024 6.12261C44.6833 6.1163 44.7633 6.14314 44.8249 6.19726C44.8866 6.25138 44.9248 6.32835 44.9312 6.41131Z" fill="#263238"/>
<path d="M45.0482 5.76816C45.0064 5.81104 44.7696 5.6281 44.4241 5.6281C44.0787 5.6281 43.8335 5.80532 43.7945 5.76244C43.7555 5.71957 43.8168 5.66526 43.9282 5.58522C44.075 5.4794 44.2503 5.42342 44.4297 5.42515C44.608 5.42472 44.7818 5.48282 44.9256 5.59094C45.0203 5.67097 45.0649 5.74815 45.0482 5.76816Z" fill="#263238"/>
<path d="M41.7218 6.41131C41.7233 6.4965 41.6919 6.57884 41.6345 6.64041C41.5771 6.70198 41.4983 6.73778 41.4153 6.74003C41.3753 6.74395 41.335 6.73961 41.2967 6.72728C41.2584 6.71495 41.2228 6.69487 41.1922 6.66823C41.1616 6.64159 41.1364 6.60893 41.1183 6.57217C41.1001 6.53541 41.0894 6.49529 41.0866 6.45419C41.0858 6.36894 41.1173 6.28669 41.1744 6.22483C41.2316 6.16296 41.31 6.12631 41.393 6.12261C41.4739 6.1163 41.5539 6.14314 41.6155 6.19726C41.6772 6.25138 41.7154 6.32835 41.7218 6.41131Z" fill="#263238"/>
<path d="M41.6772 5.83383C41.6382 5.87671 41.3986 5.69377 41.0531 5.69377C40.7077 5.69377 40.4625 5.871 40.4263 5.82812C40.3901 5.78524 40.4458 5.73093 40.5572 5.65089C40.704 5.54507 40.8793 5.48909 41.0587 5.49082C41.2367 5.48957 41.4104 5.54665 41.5546 5.65376C41.6772 5.73665 41.7078 5.81382 41.6772 5.83383Z" fill="#263238"/>
<path d="M42.9281 8.43505C43.1089 8.37712 43.2961 8.34255 43.4853 8.33215C43.5716 8.33215 43.6552 8.30356 43.6691 8.24354C43.6783 8.15076 43.6578 8.05743 43.6106 7.9777L43.3488 7.2974C43.1085 6.72004 42.9147 6.1235 42.7693 5.51373C43.0521 6.07024 43.2924 6.64843 43.4881 7.24309L43.7332 7.92911C43.7889 8.03691 43.8057 8.16144 43.7806 8.2807C43.7678 8.31249 43.7481 8.34085 43.723 8.36364C43.6979 8.38643 43.668 8.40303 43.6357 8.41218C43.5875 8.42496 43.5379 8.43168 43.4881 8.43219C43.3023 8.4573 43.1141 8.45826 42.9281 8.43505Z" fill="#263238"/>
<path d="M41.9224 8.67797C41.9781 8.67797 41.9781 9.05528 42.2957 9.32398C42.6133 9.59267 43.0089 9.55265 43.0117 9.60982C43.0145 9.66699 42.9225 9.68128 42.7554 9.687C42.5383 9.68955 42.3272 9.61365 42.1592 9.47262C42.0016 9.33519 41.9018 9.14062 41.8806 8.92951C41.8555 8.78373 41.8973 8.67511 41.9224 8.67797Z" fill="#263238"/>
<path d="M41.7747 4.45895C41.7413 4.55327 41.4014 4.5104 41.0002 4.55899C40.599 4.60759 40.2731 4.72192 40.2202 4.63617C40.1672 4.55042 40.2536 4.50468 40.3845 4.41321C40.5587 4.29928 40.756 4.2279 40.9613 4.20461C41.1666 4.18132 41.3743 4.20672 41.5686 4.27887C41.7162 4.33889 41.7914 4.41321 41.7747 4.45895Z" fill="#263238"/>
<path d="M44.9201 4.75341C44.8616 4.83345 44.6248 4.75341 44.3434 4.75341C44.062 4.75341 43.8196 4.80486 43.7639 4.72197C43.7082 4.63907 43.7778 4.60192 43.8837 4.5276C44.0231 4.43379 44.188 4.38775 44.3545 4.39611C44.5201 4.39967 44.6807 4.45557 44.8142 4.55618C44.9145 4.63336 44.9479 4.71339 44.9201 4.75341Z" fill="#263238"/>
<path d="M38.0694 7.0344C38.0304 7.01724 36.5399 6.56847 36.59 8.12918C36.6402 9.68988 38.153 9.31828 38.1557 9.27255C38.1585 9.22681 38.0694 7.0344 38.0694 7.0344Z" fill="#FFBE9D"/>
<path d="M37.6711 8.69798C37.6711 8.69798 37.646 8.718 37.6014 8.74086C37.5377 8.76569 37.4673 8.76569 37.4036 8.74086C37.3039 8.68016 37.2217 8.5934 37.1655 8.48944C37.1092 8.38548 37.0808 8.26806 37.0832 8.14917C37.0751 8.01558 37.0961 7.88183 37.1445 7.75756C37.1571 7.70815 37.1812 7.66259 37.2147 7.62477C37.2481 7.58695 37.29 7.55798 37.3367 7.54032C37.3672 7.53151 37.3997 7.53383 37.4286 7.54686C37.4576 7.55989 37.4812 7.58284 37.4955 7.61178C37.5178 7.65465 37.5095 7.6861 37.5178 7.68896C37.5262 7.69182 37.5485 7.66038 37.5345 7.59749C37.5252 7.55827 37.5025 7.52378 37.4705 7.5003C37.4493 7.48491 37.4253 7.47397 37.4 7.46808C37.3746 7.4622 37.3484 7.46149 37.3228 7.466C37.2588 7.47882 37.1993 7.50887 37.1503 7.55307C37.1014 7.59727 37.0647 7.65404 37.0442 7.71754C36.9832 7.85441 36.9564 8.00472 36.9662 8.15488C36.9624 8.29395 36.9991 8.43102 37.0715 8.54862C37.144 8.66622 37.2489 8.75902 37.373 8.81518C37.4139 8.82628 37.4567 8.82768 37.4982 8.81926C37.5397 8.81084 37.5788 8.79282 37.6125 8.76659C37.6711 8.73514 37.6766 8.70084 37.6711 8.69798Z" fill="#EB996E"/>
<path d="M37.2197 6.98009C37.3644 6.97047 37.509 7.00126 37.638 7.06921C37.767 7.13716 37.8757 7.23972 37.9524 7.36597C38.0499 7.58893 38.0722 7.84047 38.1697 8.06343C38.2119 8.17802 38.2887 8.27571 38.3891 8.34209C38.4894 8.40848 38.6078 8.44005 38.7269 8.43217C38.8059 8.40676 38.877 8.3603 38.9328 8.29753C38.9886 8.23476 39.0271 8.15793 39.0445 8.07487C39.0766 7.90879 39.0766 7.73786 39.0445 7.57178C38.9554 6.84288 38.8077 6.12256 38.7799 5.38794C38.7203 4.65091 38.8765 3.91242 39.2284 3.26698C39.4068 2.94726 39.6662 2.68305 39.9792 2.50238C40.2921 2.32171 40.6469 2.23133 41.0058 2.24081C41.4794 2.28082 41.9113 2.52665 42.3821 2.60097C42.6616 2.63851 42.9457 2.61041 43.2131 2.51881C43.4805 2.4272 43.7241 2.27448 43.9255 2.07216C44.0144 1.99539 44.1074 1.92382 44.2041 1.85778C44.1981 1.68522 44.1428 1.51826 44.0453 1.37756C43.112 0.491445 41.4349 0.234189 40.2035 0.562909C39.5781 0.72104 38.9937 1.01696 38.4909 1.43011C37.9882 1.84326 37.5791 2.36375 37.2922 2.95542C36.7628 4.13881 36.9188 5.7824 37.2114 6.98009" fill="#263238"/>
<path d="M45.455 3.12693C45.455 3.12693 39.6212 1.20034 37.0971 6.37982C36.9024 5.72844 36.7754 5.05773 36.7183 4.37892C36.7183 3.91585 36.9969 1.15175 39.7605 0.282784C39.7605 0.294217 43.9367 -1.3408 45.455 3.12693Z" fill="#F54748"/>
<path d="M40.4403 3.25557C40.5439 3.42745 40.6851 3.57226 40.8526 3.67855C41.0201 3.78483 41.2095 3.84969 41.4057 3.86798C41.6018 3.88628 41.7995 3.85752 41.983 3.78398C42.1664 3.71043 42.3307 3.59412 42.4629 3.44423C42.5205 3.59308 42.6221 3.71967 42.7534 3.80621C42.8847 3.89274 43.0392 3.93487 43.1951 3.92667C43.351 3.91847 43.5004 3.86035 43.6224 3.76048C43.7445 3.66061 43.8329 3.52402 43.8754 3.3699C44.0311 3.54907 44.2207 3.69396 44.4325 3.79581C44.5417 3.84344 44.6625 3.85555 44.7786 3.8305C44.8946 3.80545 45.0004 3.74446 45.0817 3.65575C45.1481 3.55221 45.18 3.42932 45.1725 3.30557C45.1649 3.18183 45.1184 3.06396 45.0399 2.96973C44.8819 2.78203 44.678 2.64093 44.4493 2.56097C43.758 2.24928 42.9986 2.13093 42.2483 2.21796C41.4942 2.31091 40.8034 2.6965 40.3177 3.29559" fill="#263238"/>
<g opacity="0.4">
<path d="M45.455 3.12692C44.9685 2.60469 44.3031 2.29715 43.5996 2.26939C41.8778 2.19221 38.6573 3.18409 37.0971 6.38553C36.9024 5.73415 36.7754 5.06344 36.7183 4.38463C36.7183 3.92156 36.9969 1.15746 39.7605 0.288494C39.7605 0.294211 43.9367 -1.34081 45.455 3.12692Z" fill="black"/>
</g>
<path d="M37.3395 5.77385C38.2241 4.42215 39.3837 3.28314 40.7383 2.4352C42.0812 1.57767 44.2988 0.720144 45.8255 0.308529C46.2784 0.154942 46.7583 0.103271 47.2324 0.157033C47.4686 0.187713 47.6916 0.286028 47.8759 0.440721C48.0602 0.595415 48.1982 0.800231 48.2743 1.03171C48.4192 1.62341 47.3968 2.53525 46.9148 2.89255C46.4444 3.21525 45.9571 3.51107 45.455 3.77867C45.455 3.77867 45.4689 2.68103 43.7583 2.45521C41.432 2.14936 37.3395 5.77385 37.3395 5.77385Z" fill="#F54748"/>
<g opacity="0.3">
<path d="M35.2863 25.2255C35.888 26.7147 36.4954 28.5527 37.3674 29.8933C38.2394 31.2339 39.4039 32.4259 40.8526 33.0376C42.6746 33.8208 44.8281 33.9465 46.639 33.1462C46.7867 33.0804 47.0764 32.9975 47.0485 32.8346C47.0485 32.8346 46.4496 32.7631 46.2629 32.7317C42.6049 32.1086 42.2065 31.6512 40.4542 30.222C39.3621 29.3387 36.9411 26.6604 35.2863 25.2255Z" fill="black"/>
</g>
<path d="M46.9203 36.0704C46.8833 36.1926 46.8319 36.3097 46.7671 36.4191C46.6046 36.7283 46.4063 37.0163 46.1765 37.2766C45.4013 38.1105 44.4262 38.7207 43.3488 39.046C42.2751 39.3597 41.1664 39.5297 40.0502 39.552C39.6239 39.5691 39.2785 39.572 39.0417 39.572C38.9179 39.5772 38.7939 39.5714 38.6711 39.5548C38.7917 39.5263 38.9151 39.5119 39.0389 39.5119L40.0446 39.4462C41.1488 39.3939 42.2434 39.2117 43.307 38.9031C44.3659 38.5799 45.3293 37.9903 46.1096 37.188C46.4138 36.8427 46.6853 36.4685 46.9203 36.0704Z" fill="#263238"/>
<path d="M62.6805 71.7293C62.6685 71.7012 62.6609 71.6713 62.6582 71.6407C62.6582 71.5749 62.6303 71.4863 62.608 71.3777C62.5662 71.1376 62.505 70.806 62.4297 70.3658C62.2765 69.474 62.062 68.202 61.7945 66.6327C61.2736 63.4713 60.5548 59.1179 59.7608 54.31C59.407 52.1319 59.0699 50.051 58.7606 48.1501L58.8331 48.2101L50.8346 48.8018L48.539 48.9619L47.9261 48.9991H47.7701H47.7144H47.7673L47.9261 48.979L48.5362 48.9219L50.829 48.7218L58.8219 48.0672H58.8832V48.1301C59.1953 50.0309 59.5379 52.1119 59.8945 54.2872C60.6718 59.0979 61.3739 63.4541 61.8865 66.6184C62.1316 68.1906 62.3322 69.4769 62.4743 70.3573L62.6248 71.3777C62.6415 71.4863 62.6526 71.5749 62.661 71.6407C62.671 71.6693 62.6776 71.6991 62.6805 71.7293Z" fill="#455A64"/>
<path d="M60.7052 46.0978C60.7303 46.1321 60.2428 46.5608 59.6911 47.1382C59.1395 47.7156 58.7272 48.2216 58.6938 48.193C59.2075 47.3526 59.894 46.6375 60.7052 46.0978Z" fill="#455A64"/>
<path d="M43.6274 14.5492C43.6274 14.5492 43.6441 14.5807 43.6608 14.6436C43.6885 14.7366 43.7063 14.8324 43.7137 14.9294C43.7463 15.2821 43.7006 15.6378 43.58 15.9699C43.4 16.4661 43.0799 16.896 42.6606 17.2047C42.1373 17.5724 41.5073 17.7458 40.8749 17.6964C40.245 17.6524 39.6415 17.4199 39.1392 17.0275C38.7343 16.7083 38.3985 16.3063 38.153 15.847C37.9866 15.541 37.8592 15.2144 37.7741 14.8751C37.7462 14.755 37.7267 14.6607 37.7184 14.5892C37.71 14.5178 37.7184 14.4892 37.7184 14.4892C37.8475 14.9401 38.0241 15.3752 38.2449 15.7869C38.497 16.2227 38.8291 16.6042 39.2228 16.9103C39.7096 17.2801 40.2899 17.4984 40.8944 17.5391C41.4953 17.5864 42.0943 17.4265 42.5966 17.0846C42.9976 16.7938 43.3089 16.391 43.4936 15.9241C43.6199 15.608 43.6798 15.268 43.6692 14.9265C43.6497 14.6864 43.6274 14.5549 43.6274 14.5492Z" fill="#263238"/>
<path d="M47.5583 27.032C47.5266 26.9396 47.506 26.8436 47.4971 26.7462C47.4664 26.5203 47.4302 26.2459 47.3856 25.9286C47.2937 25.1997 47.1739 24.2622 47.0429 23.2246C46.912 22.187 46.8173 21.2237 46.7643 20.5148C46.7337 20.1689 46.7142 19.8859 46.7031 19.6915C46.6897 19.591 46.6897 19.4891 46.7031 19.3885C46.7322 19.4815 46.7518 19.5773 46.7616 19.6744C46.7922 19.9002 46.8284 20.1718 46.8702 20.4919C46.9594 21.2208 47.0736 22.1584 47.199 23.196C47.3243 24.2336 47.433 25.1969 47.4998 25.9029C47.5305 26.2516 47.5528 26.5318 47.5667 26.729C47.5755 26.83 47.5726 26.9317 47.5583 27.032Z" fill="#263238"/>
</svg>
