<svg width="81" height="93" viewBox="0 0 81 93" fill="none" xmlns="http://www.w3.org/2000/svg">
<path d="M40.424 92.4612C62.7495 92.4612 80.848 90.9529 80.848 89.0922C80.848 87.2315 62.7495 85.7231 40.424 85.7231C18.0984 85.7231 0 87.2315 0 89.0922C0 90.9529 18.0984 92.4612 40.424 92.4612Z" fill="#F5F5F5"/>
<path d="M78.0089 0H34.0655C32.4136 0 31.0745 1.33915 31.0745 2.99107V86.8035C31.0745 88.4554 32.4136 89.7945 34.0655 89.7945H78.0089C79.6609 89.7945 81 88.4554 81 86.8035V2.99107C81 1.33915 79.6609 0 78.0089 0Z" fill="#263238"/>
<path d="M79.3154 3.00896V86.6398C79.3151 86.8021 79.2825 86.9627 79.2196 87.1123C79.1567 87.2619 79.0647 87.3975 78.949 87.5113C78.8332 87.6251 78.6961 87.7148 78.5454 87.7752C78.3948 87.8355 78.2337 87.8654 78.0714 87.863H33.878C33.7306 87.8651 33.5844 87.8374 33.448 87.7816C33.3116 87.7257 33.1879 87.643 33.0842 87.5382C32.9806 87.4334 32.8991 87.3089 32.8448 87.1719C32.7904 87.0349 32.7643 86.8883 32.7679 86.741V2.90777C32.7627 2.77799 32.7832 2.64845 32.8281 2.52658C32.873 2.40472 32.9415 2.2929 33.0297 2.19753C33.1179 2.10217 33.224 2.02512 33.342 1.9708C33.46 1.91649 33.5875 1.88596 33.7173 1.88098H44.7679C44.9227 1.88385 45.0733 1.93261 45.2004 2.02109C45.3276 2.10956 45.4256 2.23378 45.4821 2.378L45.9375 3.50301C45.9938 3.64634 46.0915 3.76963 46.2182 3.85711C46.3449 3.94459 46.4949 3.99228 46.6488 3.99407H65.4553C65.6086 3.9942 65.7583 3.9483 65.8851 3.86234C66.0119 3.77637 66.11 3.6543 66.1666 3.51193L66.625 2.378C66.681 2.23401 66.7785 2.1099 66.9051 2.02141C67.0318 1.93292 67.1818 1.88404 67.3363 1.88098H78.2232C78.5169 1.888 78.796 2.01022 79.0003 2.22125C79.2047 2.43228 79.3179 2.71521 79.3154 3.00896Z" fill="#F54748"/>
<path opacity="0.1" d="M76.9048 1.88098C72.7827 13.2887 59.3839 44.628 32.759 57.4077V2.90777C32.7538 2.77799 32.7742 2.64845 32.8192 2.52658C32.8641 2.40472 32.9326 2.2929 33.0208 2.19753C33.109 2.10217 33.2151 2.02512 33.3331 1.9708C33.4511 1.91649 33.5786 1.88596 33.7084 1.88098H44.759C44.9138 1.88385 45.0644 1.93261 45.1915 2.02109C45.3187 2.10956 45.4167 2.23378 45.4732 2.378L45.9286 3.50301C45.9848 3.64634 46.0826 3.76963 46.2093 3.85711C46.336 3.94459 46.4859 3.99228 46.6399 3.99407H65.4554C65.6086 3.9942 65.7583 3.9483 65.8851 3.86234C66.0119 3.77637 66.11 3.6543 66.1667 3.51193L66.625 2.378C66.681 2.23401 66.7785 2.1099 66.9051 2.02141C67.0318 1.93292 67.1818 1.88404 67.3363 1.88098H76.9048Z" fill="white"/>
<path opacity="0.1" d="M79.3155 42.8898V86.6397C79.3151 86.802 79.2825 86.9626 79.2196 87.1122C79.1567 87.2618 79.0647 87.3974 78.949 87.5112C78.8333 87.625 78.6961 87.7147 78.5455 87.775C78.3948 87.8354 78.2337 87.8653 78.0714 87.8629H33.878C33.7307 87.865 33.5844 87.8373 33.448 87.7815C33.3116 87.7256 33.1879 87.6429 33.0842 87.5381C32.9806 87.4333 32.8992 87.3087 32.8448 87.1718C32.7904 87.0348 32.7643 86.8882 32.7679 86.7409V66.8421C45.0566 50.6517 66.1965 44.9136 79.3155 42.8898Z" fill="white"/>
<path opacity="0.6" d="M56.0298 1.99108C56.0298 2.11763 55.9922 2.24135 55.9219 2.34657C55.8516 2.4518 55.7517 2.53382 55.6348 2.58225C55.5178 2.63068 55.3892 2.64335 55.265 2.61866C55.1409 2.59397 55.0269 2.53303 54.9374 2.44354C54.8479 2.35405 54.787 2.24004 54.7623 2.11591C54.7376 1.99179 54.7503 1.86313 54.7987 1.74621C54.8471 1.62928 54.9291 1.52935 55.0344 1.45904C55.1396 1.38873 55.2633 1.3512 55.3899 1.3512C55.5593 1.35198 55.7216 1.41965 55.8415 1.53948C55.9613 1.65931 56.029 1.82161 56.0298 1.99108Z" fill="white"/>
<path opacity="0.6" d="M57.3214 1.99112C57.3127 2.09362 57.2658 2.18911 57.19 2.2587C57.1142 2.32829 57.0151 2.3669 56.9122 2.3669C56.8093 2.3669 56.7102 2.32829 56.6344 2.2587C56.5586 2.18911 56.5117 2.09362 56.503 1.99112C56.4981 1.93444 56.5051 1.87738 56.5235 1.82355C56.5418 1.76972 56.5712 1.72029 56.6097 1.67839C56.6481 1.63649 56.6949 1.60305 56.747 1.58017C56.799 1.55729 56.8553 1.54547 56.9122 1.54547C56.9691 1.54547 57.0253 1.55729 57.0774 1.58017C57.1295 1.60305 57.1762 1.63649 57.2147 1.67839C57.2532 1.72029 57.2825 1.76972 57.3009 1.82355C57.3193 1.87738 57.3262 1.93444 57.3214 1.99112Z" fill="white"/>
<path opacity="0.5" d="M78.4077 7.23218H33.1965V83.9464H78.4077V7.23218Z" fill="white"/>
<path d="M77.1786 16.3542H34.4197V27.3661H77.1786V16.3542Z" fill="white"/>
<path d="M77.1786 27.9673H34.4197V38.9792H77.1786V27.9673Z" fill="white"/>
<path d="M77.1786 8.86011H34.4197V15.4524H77.1786V8.86011Z" fill="#F54748"/>
<g opacity="0.5">
<path d="M48.8275 23.0505L48.3364 22.3898L47.8453 23.0505H47.3513L48.0953 22.0832L47.384 21.1458H47.881L48.3483 21.7707L48.8155 21.1458H49.2977L48.5834 22.0773L49.3304 23.0505H48.8275Z" fill="black"/>
<path d="M51.3512 22.6517V23.0446H49.5089V22.7469L50.503 21.8035C50.7441 21.5714 50.8006 21.4255 50.8006 21.2886C50.8006 21.0594 50.6429 20.9255 50.3363 20.9255C50.2234 20.9185 50.1104 20.9386 50.0069 20.9841C49.9033 21.0297 49.8122 21.0994 49.7411 21.1874L49.4167 20.9374C49.5317 20.7991 49.6774 20.6897 49.8423 20.6179C50.0071 20.546 50.1865 20.5138 50.3661 20.5237C50.9078 20.5237 51.2589 20.7975 51.2589 21.241C51.2552 21.3954 51.2159 21.5468 51.1441 21.6836C51.0724 21.8204 50.9701 21.9388 50.8453 22.0297L50.1726 22.6517H51.3512Z" fill="black"/>
</g>
<path d="M68.2946 22.006C68.2952 22.4 68.1789 22.7854 67.9603 23.1133C67.7418 23.4412 67.4308 23.6968 67.0669 23.8479C66.703 23.999 66.3024 24.0386 65.9159 23.9619C65.5294 23.8852 65.1743 23.6955 64.8957 23.4169C64.617 23.1382 64.4273 22.7832 64.3506 22.3967C64.2739 22.0102 64.3136 21.6096 64.4646 21.2456C64.6157 20.8817 64.8714 20.5708 65.1992 20.3522C65.5271 20.1336 65.9125 20.0173 66.3065 20.0179C66.8336 20.0187 67.3388 20.2284 67.7115 20.6011C68.0841 20.9737 68.2939 21.4789 68.2946 22.006Z" fill="#F54748"/>
<path d="M66.4554 20.8958H66.1578V23.119H66.4554V20.8958Z" fill="white"/>
<path d="M67.4167 21.8571H65.1935V22.1547H67.4167V21.8571Z" fill="white"/>
<path d="M74.2499 22.006C74.2499 22.3992 74.1333 22.7836 73.9149 23.1105C73.6964 23.4374 73.3859 23.6923 73.0226 23.8427C72.6594 23.9932 72.2596 24.0326 71.874 23.9559C71.4883 23.8792 71.1341 23.6898 70.856 23.4118C70.578 23.1337 70.3887 22.7795 70.3119 22.3938C70.2352 22.0082 70.2746 21.6084 70.4251 21.2452C70.5756 20.8819 70.8304 20.5714 71.1573 20.3529C71.4842 20.1345 71.8686 20.0179 72.2618 20.0179C72.7889 20.0187 73.2941 20.2284 73.6668 20.6011C74.0394 20.9737 74.2491 21.4789 74.2499 22.006Z" fill="#F54748"/>
<path d="M73.372 21.8571H71.1488V22.1547H73.372V21.8571Z" fill="white"/>
<path d="M38.0149 23.8423C37.888 23.8868 37.7671 23.9467 37.6548 24.0208C37.605 24.1557 37.5851 24.2998 37.5964 24.4432C37.6077 24.5866 37.65 24.7258 37.7203 24.8512C37.8691 24.9673 39.4673 25.2411 40.3007 25.1786C41.134 25.1161 41.9524 25.1786 42.8483 25.1786C43.7441 25.1786 45.4465 25.0417 45.5536 24.8512C45.609 24.7287 45.6377 24.5958 45.6377 24.4613C45.6377 24.3269 45.609 24.1939 45.5536 24.0714C45.1787 23.7704 44.7065 23.6169 44.2262 23.6399C43.6786 23.7143 38.0149 23.8423 38.0149 23.8423Z" fill="#F54748"/>
<path opacity="0.3" d="M38.0149 23.8423C37.888 23.8868 37.7671 23.9467 37.6548 24.0208C37.605 24.1557 37.5851 24.2998 37.5964 24.4432C37.6077 24.5866 37.65 24.7258 37.7203 24.8512C37.8691 24.9673 39.4673 25.2411 40.3007 25.1786C41.134 25.1161 41.9524 25.1786 42.8483 25.1786C43.7441 25.1786 45.4465 25.0417 45.5536 24.8512C45.609 24.7287 45.6377 24.5958 45.6377 24.4613C45.6377 24.3269 45.609 24.1939 45.5536 24.0714C45.1787 23.7704 44.7065 23.6169 44.2262 23.6399C43.6786 23.7143 38.0149 23.8423 38.0149 23.8423Z" fill="white"/>
<path d="M37.9435 23.3036C37.9167 23.4643 37.8572 23.8215 37.9435 23.8988C38.4263 24.12 38.9637 24.1935 39.4881 24.1101C40.072 24.0452 40.66 24.0243 41.247 24.0476C42.2351 24.0476 42.6458 24.0893 42.8482 24.0476C43.0506 24.006 43.3214 23.9851 43.6786 23.9643C44.0357 23.9435 44.5417 23.9018 44.6786 23.9018C44.8155 23.9018 44.8899 23.9971 45.0685 23.9018C45.1862 23.8341 45.3074 23.7725 45.4316 23.7173C45.4316 23.7173 45.4167 23.503 45.3512 23.4703C45.2857 23.4375 45.247 23.4703 45.2351 23.3988C45.2232 23.3274 45.2351 23.3453 45.1935 23.2768C45.1518 23.2084 45.0685 23.1191 45.0685 23.1191L37.9435 23.3036Z" fill="#263238"/>
<path opacity="0.2" d="M37.9435 23.3036C37.9167 23.4643 37.8572 23.8215 37.9435 23.8988C38.4263 24.12 38.9637 24.1935 39.4881 24.1101C40.072 24.0452 40.66 24.0243 41.247 24.0476C42.2351 24.0476 42.6458 24.0893 42.8482 24.0476C43.0506 24.006 43.3214 23.9851 43.6786 23.9643C44.0357 23.9435 44.5417 23.9018 44.6786 23.9018C44.8155 23.9018 44.8899 23.9971 45.0685 23.9018C45.1862 23.8341 45.3074 23.7725 45.4316 23.7173C45.4316 23.7173 45.4167 23.503 45.3512 23.4703C45.2857 23.4375 45.247 23.4703 45.2351 23.3988C45.2232 23.3274 45.2351 23.3453 45.1935 23.2768C45.1518 23.2084 45.0685 23.1191 45.0685 23.1191L37.9435 23.3036Z" fill="white"/>
<path d="M40.7947 23.4196C41.1061 23.5414 41.4398 23.5961 41.7738 23.5804C42.0186 23.5654 42.2641 23.5654 42.5089 23.5804C42.7619 23.6012 42.6667 23.4911 42.9524 23.6399C43.2381 23.7887 43.2262 23.9375 43.6786 23.7143C44.131 23.4911 44.1845 23.4643 44.372 23.4643C44.5125 23.4827 44.6553 23.4674 44.7887 23.4196C44.9524 23.3571 45.4316 23.1994 45.4316 23.1994C45.4316 23.1994 45.4464 22.9792 45.0357 22.9673C44.625 22.9554 40.2738 23.0952 40.1518 23.1994C40.0298 23.3036 40.7947 23.4196 40.7947 23.4196Z" fill="#F54748"/>
<path opacity="0.2" d="M40.7947 23.4196C41.1061 23.5414 41.4398 23.5961 41.7738 23.5804C42.0186 23.5654 42.2641 23.5654 42.5089 23.5804C42.7619 23.6012 42.6667 23.4911 42.9524 23.6399C43.2381 23.7887 43.2262 23.9375 43.6786 23.7143C44.131 23.4911 44.1845 23.4643 44.372 23.4643C44.5125 23.4827 44.6553 23.4674 44.7887 23.4196C44.9524 23.3571 45.4316 23.1994 45.4316 23.1994C45.4316 23.1994 45.4464 22.9792 45.0357 22.9673C44.625 22.9554 40.2738 23.0952 40.1518 23.1994C40.0298 23.3036 40.7947 23.4196 40.7947 23.4196Z" fill="black"/>
<path d="M38.375 22.9673C38.375 22.9673 37.6786 23.0744 37.6578 23.1994C37.6369 23.3244 37.7738 23.3363 37.872 23.4197C37.9331 23.4719 37.9818 23.5369 38.0149 23.6101C38.0883 23.5559 38.1736 23.52 38.2637 23.5055C38.3538 23.491 38.4461 23.4983 38.5328 23.5268C38.7738 23.6429 38.8899 23.6518 38.9524 23.6101C39.0149 23.5685 39.1548 23.6667 39.3631 23.634C39.485 23.6105 39.6103 23.6105 39.7322 23.634C39.8691 23.634 40.0685 23.3929 40.1845 23.4137C40.4105 23.3692 40.6297 23.2952 40.8363 23.1935L38.375 22.9673Z" fill="#F54748"/>
<path d="M37.9107 21.9881C37.8557 22.14 37.8557 22.3064 37.9107 22.4583C37.9578 22.6881 37.9578 22.925 37.9107 23.1547C38.286 23.0804 38.6723 23.0804 39.0476 23.1547C39.6161 23.2827 39.7411 23.5089 40.2887 23.3839C40.5444 23.2883 40.8166 23.2448 41.0893 23.2559C41.5089 23.2559 42.0774 23.0773 42.5774 23.1547C43.0774 23.2321 43.7202 23.0773 43.7381 23.1547C43.7559 23.2321 44.7262 23.1547 44.7262 23.1547C44.7262 23.1547 45.1875 23.0535 45.1875 22.9523C45.1875 22.8511 45.125 21.7916 45.125 21.7916L37.9107 21.9881Z" fill="#263238"/>
<path d="M39.3631 22.9047C39.3631 22.9047 41.4881 22.8214 41.7738 22.8214C42.0595 22.8214 42.3006 22.8631 42.7827 22.8631C43.1288 22.8975 43.4767 22.9114 43.8244 22.9047C44.3006 22.8631 44.7173 22.9047 44.7827 22.869C44.5823 22.8881 44.3834 22.9209 44.1875 22.9672C44.0065 23.0179 43.8187 23.04 43.6309 23.0327C43.4946 22.9879 43.3518 22.9658 43.2083 22.9672C43.1786 22.9881 42.9107 22.9672 42.8512 23.0446C42.7917 23.122 42.7679 23.4315 42.7351 23.4196C42.6396 23.2904 42.5126 23.188 42.3661 23.122C42.1161 23.0208 41.7202 22.875 41.6637 22.9672C41.6071 23.0595 41.253 23 41.1369 23.122C41.0279 23.2199 40.8921 23.2831 40.747 23.3036C40.6964 23.3065 39.3631 22.9047 39.3631 22.9047Z" fill="#F54748"/>
<path d="M37.8453 21.9613C37.8215 22.122 37.762 22.4762 37.8453 22.5566C37.9286 22.6369 38.5387 22.8542 39.3929 22.7649C39.9758 22.6999 40.5628 22.679 41.1489 22.7024C42.1399 22.7024 42.5506 22.7441 42.75 22.7024C43.0252 22.6594 43.3023 22.6306 43.5804 22.6161C43.9405 22.5953 44.4435 22.5536 44.5804 22.5536C44.7173 22.5536 44.7917 22.6488 44.9703 22.5536C45.0876 22.4843 45.2089 22.4216 45.3334 22.3661C45.3334 22.3661 45.3185 22.1518 45.256 22.1221C45.1935 22.0923 45.1489 22.1221 45.1399 22.0476C45.131 21.9732 45.1399 21.9941 45.0983 21.9256L44.9703 21.7679L37.8453 21.9613Z" fill="#263238"/>
<path opacity="0.2" d="M37.8453 21.9613C37.8215 22.122 37.762 22.4762 37.8453 22.5566C37.9286 22.6369 38.5387 22.8542 39.3929 22.7649C39.9758 22.6999 40.5628 22.679 41.1489 22.7024C42.1399 22.7024 42.5506 22.7441 42.75 22.7024C43.0252 22.6594 43.3023 22.6306 43.5804 22.6161C43.9405 22.5953 44.4435 22.5536 44.5804 22.5536C44.7173 22.5536 44.7917 22.6488 44.9703 22.5536C45.0876 22.4843 45.2089 22.4216 45.3334 22.3661C45.3334 22.3661 45.3185 22.1518 45.256 22.1221C45.1935 22.0923 45.1489 22.1221 45.1399 22.0476C45.131 21.9732 45.1399 21.9941 45.0983 21.9256L44.9703 21.7679L37.8453 21.9613Z" fill="white"/>
<path d="M40.0596 21.5892L42.753 23.1994L45.0685 21.5148L40.0596 21.5892Z" fill="#F54748"/>
<path opacity="0.6" d="M40.0596 21.5892L42.753 23.1994L45.0685 21.5148L40.0596 21.5892Z" fill="white"/>
<path d="M37.6548 21.5475L38.5328 23.0208L42.131 21.622L37.6548 21.5475Z" fill="#F54748"/>
<path opacity="0.6" d="M37.6548 21.5475L38.5328 23.0208L42.131 21.622L37.6548 21.5475Z" fill="white"/>
<path d="M37.8482 21.6428C37.8482 21.6428 37.3839 22.0833 37.5328 22.2113C37.6816 22.3392 37.503 22.5267 37.503 22.5267C37.7859 22.4319 38.0921 22.4319 38.375 22.5267C38.7863 22.6521 39.2256 22.6521 39.6369 22.5267C39.9107 22.4434 40.5298 22.4196 40.7322 22.2738C40.9729 22.042 41.1912 21.7879 41.3839 21.5148L37.8482 21.6428Z" fill="#F54748"/>
<path d="M42.0566 21.5149C42.0566 21.5149 42.8066 22.2946 43.3423 22.3541C43.878 22.4137 43.9524 22.2916 44.5834 22.3541C45.2143 22.4166 45.2798 22.6012 45.384 22.372C45.4377 22.0528 45.4377 21.7269 45.384 21.4077L42.0566 21.5149Z" fill="#F54748"/>
<path opacity="0.2" d="M37.8482 21.6428C37.8482 21.6428 37.3839 22.0833 37.5328 22.2113C37.6816 22.3392 37.503 22.5267 37.503 22.5267C37.7859 22.4319 38.0921 22.4319 38.375 22.5267C38.7863 22.6521 39.2256 22.6521 39.6369 22.5267C39.9107 22.4434 40.5298 22.4196 40.7322 22.2738C40.9729 22.042 41.1912 21.7879 41.3839 21.5148L37.8482 21.6428Z" fill="black"/>
<path opacity="0.2" d="M42.0566 21.5149C42.0566 21.5149 42.8066 22.2946 43.3423 22.3541C43.878 22.4137 43.9524 22.2916 44.5834 22.3541C45.2143 22.4166 45.2798 22.6012 45.384 22.372C45.4377 22.0528 45.4377 21.7269 45.384 21.4077L42.0566 21.5149Z" fill="black"/>
<path d="M37.762 23.8423C37.9344 23.7785 38.1168 23.7462 38.3007 23.747C38.4167 23.7887 39.762 23.9137 39.8929 23.9137C40.1041 23.871 40.3216 23.871 40.5328 23.9137C40.7947 23.997 40.762 24.0625 41.1429 23.9881C41.3624 23.927 41.588 23.8901 41.8155 23.878C42.0149 23.878 42.0566 23.8214 42.2054 23.878C42.416 23.9455 42.6361 23.9787 42.8572 23.9762C43.0983 23.9762 43.0834 24.1161 43.4376 24.006C43.6357 23.9122 43.8498 23.8566 44.0685 23.8423C44.2679 23.8423 44.5209 23.8214 44.6161 23.8423C44.7114 23.8631 44.6518 23.8006 44.8899 23.8423C45.0134 23.8693 45.1422 23.8579 45.259 23.8095C45.3131 23.8593 45.3708 23.905 45.4316 23.9464C45.5001 23.9881 45.1102 24.0238 44.9733 24.0476C44.8364 24.0714 45.0149 24.0685 44.6756 24.1429C44.3364 24.2173 44.4346 24.2708 44.1727 24.2619C43.9108 24.253 43.9346 24.2857 43.753 24.2619C43.5715 24.2381 43.634 24.3542 43.2977 24.2619C43.0605 24.1952 42.8172 24.1523 42.5715 24.1339C42.5179 24.1339 42.7411 24.1042 42.4137 24.1905C42.0864 24.2768 42.3185 24.2054 41.9078 24.2917C41.4971 24.378 41.5715 24.4732 41.3126 24.3691C41.0536 24.2649 41.0149 24.2411 40.8929 24.2738C40.7709 24.3065 40.8721 24.3065 40.6935 24.3155C40.5149 24.3244 40.5864 24.3155 40.3959 24.3155C40.1282 24.3619 39.8578 24.3907 39.5864 24.4018C39.387 24.4018 39.1132 24.2827 38.9763 24.2827C38.809 24.2601 38.643 24.2283 38.4792 24.1875C38.2709 24.1577 38.1221 24.1875 38.0596 24.122C37.9971 24.0566 37.762 23.8423 37.762 23.8423Z" fill="#F54748"/>
<path opacity="0.2" d="M37.762 23.8423C37.9344 23.7785 38.1168 23.7462 38.3007 23.747C38.4167 23.7887 39.762 23.9137 39.8929 23.9137C40.1041 23.871 40.3216 23.871 40.5328 23.9137C40.7947 23.997 40.762 24.0625 41.1429 23.9881C41.3624 23.927 41.588 23.8901 41.8155 23.878C42.0149 23.878 42.0566 23.8214 42.2054 23.878C42.416 23.9455 42.6361 23.9787 42.8572 23.9762C43.0983 23.9762 43.0834 24.1161 43.4376 24.006C43.6357 23.9122 43.8498 23.8566 44.0685 23.8423C44.2679 23.8423 44.5209 23.8214 44.6161 23.8423C44.7114 23.8631 44.6518 23.8006 44.8899 23.8423C45.0134 23.8693 45.1422 23.8579 45.259 23.8095C45.3131 23.8593 45.3708 23.905 45.4316 23.9464C45.5001 23.9881 45.1102 24.0238 44.9733 24.0476C44.8364 24.0714 45.0149 24.0685 44.6756 24.1429C44.3364 24.2173 44.4346 24.2708 44.1727 24.2619C43.9108 24.253 43.9346 24.2857 43.753 24.2619C43.5715 24.2381 43.634 24.3542 43.2977 24.2619C43.0605 24.1952 42.8172 24.1523 42.5715 24.1339C42.5179 24.1339 42.7411 24.1042 42.4137 24.1905C42.0864 24.2768 42.3185 24.2054 41.9078 24.2917C41.4971 24.378 41.5715 24.4732 41.3126 24.3691C41.0536 24.2649 41.0149 24.2411 40.8929 24.2738C40.7709 24.3065 40.8721 24.3065 40.6935 24.3155C40.5149 24.3244 40.5864 24.3155 40.3959 24.3155C40.1282 24.3619 39.8578 24.3907 39.5864 24.4018C39.387 24.4018 39.1132 24.2827 38.9763 24.2827C38.809 24.2601 38.643 24.2283 38.4792 24.1875C38.2709 24.1577 38.1221 24.1875 38.0596 24.122C37.9971 24.0566 37.762 23.8423 37.762 23.8423Z" fill="black"/>
<path d="M45.7143 21.8542C45.8274 21.7977 45.7619 21.6042 45.7619 21.4762C45.7619 20.0179 43.8809 18.8364 41.5625 18.8364C39.244 18.8364 37.3631 20.0268 37.3631 21.4762C37.3631 21.6042 37.3185 21.7739 37.4107 21.8542C37.7262 22.1518 39.6101 21.8155 41.5774 21.7887C43.375 21.759 45.2589 22.0745 45.7143 21.8542Z" fill="#F54748"/>
<path opacity="0.3" d="M45.7143 21.8542C45.8274 21.7977 45.7619 21.6042 45.7619 21.4762C45.7619 20.0179 43.8809 18.8364 41.5625 18.8364C39.244 18.8364 37.3631 20.0268 37.3631 21.4762C37.3631 21.6042 37.3185 21.7739 37.4107 21.8542C37.7262 22.1518 39.6101 21.8155 41.5774 21.7887C43.375 21.759 45.2589 22.0745 45.7143 21.8542Z" fill="white"/>
<path d="M41.5685 19.3274C41.5685 19.3274 41.6667 19.5476 41.5685 19.5476C41.4703 19.5476 41.5685 19.3274 41.5685 19.3274Z" fill="#F54748"/>
<path d="M42.7858 19.3274C42.7858 19.3274 43.2054 19.3899 43.1429 19.4375C43.0804 19.4851 42.7858 19.3274 42.7858 19.3274Z" fill="#F54748"/>
<path d="M40.5149 19.3274C40.5149 19.3274 40.2679 19.4851 40.2173 19.4464C40.1667 19.4077 40.5149 19.3274 40.5149 19.3274Z" fill="#F54748"/>
<g opacity="0.5">
<path d="M48.0952 34.5774L47.6041 33.9166L47.1131 34.5774H46.619L47.3631 33.6101L46.6518 32.6696H47.1488L47.616 33.2946L48.0833 32.6696H48.5654L47.8512 33.6012L48.5982 34.5774H48.0952Z" fill="black"/>
<path d="M49.6905 32.0774V34.5774H49.2262V32.4732H48.6994V32.0833L49.6905 32.0774Z" fill="black"/>
</g>
<path d="M67.5625 33.5327C67.563 33.9266 67.4468 34.3119 67.2284 34.6397C67.0099 34.9675 66.6992 35.2232 66.3354 35.3743C65.9716 35.5255 65.5712 35.5653 65.1848 35.4889C64.7984 35.4124 64.4433 35.223 64.1645 34.9446C63.8858 34.6663 63.6959 34.3115 63.6188 33.9252C63.5417 33.5389 63.581 33.1384 63.7316 32.7744C63.8822 32.4104 64.1374 32.0993 64.4649 31.8804C64.7924 31.6615 65.1775 31.5446 65.5714 31.5446C66.0989 31.5446 66.6049 31.754 66.9782 32.1267C67.3515 32.4995 67.5617 33.0052 67.5625 33.5327Z" fill="#F54748"/>
<path d="M65.7202 32.4196H65.4226V34.6428H65.7202V32.4196Z" fill="white"/>
<path d="M66.6846 33.3839H64.4614V33.6815H66.6846V33.3839Z" fill="white"/>
<path d="M73.5178 33.5327C73.5184 33.9268 73.4021 34.3121 73.1835 34.64C72.965 34.9679 72.654 35.2236 72.2901 35.3746C71.9262 35.5257 71.5256 35.5654 71.1391 35.4886C70.7526 35.4119 70.3975 35.2222 70.1189 34.9436C69.8402 34.6649 69.6506 34.3099 69.5738 33.9234C69.4971 33.5369 69.5368 33.1363 69.6878 32.7724C69.8389 32.4084 70.0946 32.0975 70.4225 31.8789C70.7503 31.6604 71.1357 31.544 71.5297 31.5446C71.7908 31.5446 72.0493 31.596 72.2906 31.696C72.5318 31.7959 72.7509 31.9423 72.9355 32.1269C73.1201 32.3115 73.2666 32.5307 73.3665 32.7719C73.4664 33.0131 73.5178 33.2716 73.5178 33.5327Z" fill="#F54748"/>
<path d="M72.6398 33.3839H70.4166V33.6815H72.6398V33.3839Z" fill="white"/>
<path d="M41.6667 30.0595H40.003C39.5378 30.2281 39.1345 30.5336 38.846 30.9357C38.5576 31.3378 38.3976 31.8177 38.387 32.3125H43.2798C43.2698 31.818 43.1104 31.3381 42.8225 30.936C42.5345 30.5338 42.1316 30.2283 41.6667 30.0595Z" fill="#F54748"/>
<path opacity="0.6" d="M41.6667 30.0595H40.003C39.5378 30.2281 39.1345 30.5336 38.846 30.9357C38.5576 31.3378 38.3976 31.8177 38.387 32.3125H43.2798C43.2698 31.818 43.1104 31.3381 42.8225 30.936C42.5345 30.5338 42.1316 30.2283 41.6667 30.0595Z" fill="white"/>
<path opacity="0.2" d="M40.5088 28.7103L40.1661 28.772L41.1139 34.0295L41.4566 33.9677L40.5088 28.7103Z" fill="black"/>
<path d="M42.9107 37.753L43.3542 32.3601H38.3125L38.7589 37.753H42.9107Z" fill="#F54748"/>
<path d="M43.5834 32.7202H38.0864L38.1786 31.9285H43.4911L43.5834 32.7202Z" fill="#F54748"/>
<path opacity="0.4" d="M43.5834 32.7202H38.0864L38.1786 31.9285H43.4911L43.5834 32.7202Z" fill="white"/>
<path d="M77.1786 40.1309H34.4197V46.7232H77.1786V40.1309Z" fill="#F54748"/>
<path d="M49.881 42.8452C49.881 43.3958 49.4732 43.738 48.8155 43.738H48.253V44.4583H47.7887V41.9613H48.8155C49.4732 41.9583 49.881 42.2946 49.881 42.8452ZM49.4137 42.8452C49.4137 42.5327 49.2024 42.3511 48.7946 42.3511H48.253V43.3422H48.7946C49.2024 43.3422 49.4137 43.1607 49.4137 42.8452Z" fill="white"/>
<path d="M51.8809 43.3392V44.4553H51.4583V44.2232C51.3893 44.3135 51.2985 44.3846 51.1943 44.43C51.0901 44.4753 50.9761 44.4932 50.863 44.4821C50.4285 44.4821 50.1517 44.241 50.1517 43.9107C50.1517 43.5803 50.366 43.3422 50.9464 43.3422H51.4374V43.3124C51.4374 43.0535 51.2797 42.8988 50.9613 42.8988C50.753 42.8966 50.5499 42.9636 50.3839 43.0892L50.2083 42.7648C50.445 42.602 50.7277 42.5195 51.0148 42.5297C51.5624 42.5297 51.8809 42.7886 51.8809 43.3392ZM51.4345 43.8601V43.6398H50.9732C50.6755 43.6398 50.5892 43.7529 50.5892 43.8928C50.5892 44.0327 50.7232 44.1577 50.9523 44.1577C51.0542 44.165 51.1557 44.1403 51.2428 44.0869C51.3298 44.0335 51.3979 43.9542 51.4374 43.8601H51.4345Z" fill="white"/>
<path d="M54.2024 42.5505L53.3096 44.6101C53.2696 44.7736 53.1749 44.9186 53.0412 45.0209C52.9074 45.1232 52.7428 45.1767 52.5745 45.1726C52.3889 45.1766 52.2078 45.1155 52.0626 44.9999L52.2411 44.6696C52.3303 44.7545 52.4484 44.8024 52.5715 44.8035C52.7292 44.8035 52.8215 44.7261 52.9078 44.5386L52.9376 44.4642L52.1072 42.5505H52.5715L53.1667 43.9613L53.762 42.5505H54.2024Z" fill="white"/>
<path d="M57.6697 43.3631V44.4554H57.2232V43.4226C57.2232 43.0833 57.0655 42.9167 56.7947 42.9167C56.5238 42.9167 56.2976 43.1101 56.2976 43.4881V44.4554H55.8512V43.4226C55.8512 43.0833 55.6965 42.9167 55.4227 42.9167C55.1488 42.9167 54.9286 43.1101 54.9286 43.4881V44.4554H54.4822V42.5506H54.9078V42.7917C54.9857 42.7049 55.0819 42.6364 55.1895 42.5911C55.297 42.5458 55.4132 42.5249 55.5298 42.5298C55.6553 42.5208 55.7809 42.5453 55.8938 42.6007C56.0067 42.6561 56.103 42.7405 56.1726 42.8452C56.26 42.742 56.3697 42.6599 56.4935 42.6053C56.6172 42.5506 56.7518 42.5248 56.8869 42.5298C56.9964 42.5211 57.1064 42.5371 57.2088 42.5767C57.3112 42.6162 57.4034 42.6783 57.4785 42.7584C57.5537 42.8384 57.6099 42.9343 57.643 43.039C57.6761 43.1436 57.6852 43.2544 57.6697 43.3631Z" fill="white"/>
<path d="M60.0447 43.6459H58.5566C58.5846 43.7848 58.663 43.9085 58.7768 43.9931C58.8905 44.0777 59.0315 44.1173 59.1726 44.1042C59.2687 44.1078 59.3645 44.0911 59.4538 44.0552C59.543 44.0193 59.6237 43.965 59.6905 43.8959L59.9286 44.1697C59.8322 44.2759 59.7131 44.3592 59.5802 44.4132C59.4473 44.4673 59.304 44.4909 59.1607 44.4822C59.0259 44.4939 58.8901 44.4771 58.7621 44.433C58.6341 44.3889 58.5168 44.3184 58.4178 44.2261C58.3188 44.1338 58.2402 44.0218 58.1872 43.8972C58.1342 43.7727 58.108 43.6384 58.1101 43.503C58.1064 43.3732 58.1293 43.2439 58.1777 43.1233C58.226 43.0028 58.2986 42.8934 58.391 42.8021C58.4834 42.7108 58.5936 42.6395 58.7148 42.5927C58.836 42.5458 58.9655 42.5244 59.0953 42.5298C59.225 42.5245 59.3543 42.5466 59.4749 42.5945C59.5956 42.6425 59.7047 42.7153 59.7954 42.8082C59.886 42.9011 59.9561 43.012 60.0011 43.1338C60.0461 43.2555 60.065 43.3854 60.0566 43.5149C60.0506 43.5506 60.0476 43.6042 60.0447 43.6459ZM58.5566 43.3483H59.6399C59.6257 43.2173 59.562 43.0966 59.4619 43.0109C59.3618 42.9252 59.2328 42.8809 59.1012 42.8869C58.9671 42.8783 58.8348 42.9213 58.7313 43.0071C58.6279 43.0928 58.5611 43.2149 58.5447 43.3483H58.5566Z" fill="white"/>
<path d="M62.3601 43.363V44.4553H61.9137V43.4226C61.9137 43.0833 61.744 42.9166 61.4583 42.9166C61.3837 42.9124 61.3091 42.9247 61.2399 42.9528C61.1706 42.9808 61.1085 43.0238 61.0578 43.0787C61.0072 43.1336 60.9693 43.1991 60.947 43.2704C60.9246 43.3417 60.9183 43.417 60.9285 43.491V44.4553H60.4821V42.5505H60.9047V42.7976C60.9879 42.7072 61.0899 42.6364 61.2036 42.5901C61.3173 42.5438 61.4399 42.5231 61.5625 42.5297C61.6726 42.5209 61.7832 42.5367 61.8865 42.576C61.9897 42.6153 62.0829 42.6771 62.1592 42.7569C62.2356 42.8367 62.2932 42.9325 62.328 43.0373C62.3627 43.1422 62.3737 43.2534 62.3601 43.363Z" fill="white"/>
<path d="M64.0744 44.3542C63.9488 44.4414 63.7987 44.4863 63.6458 44.4822C63.5584 44.4917 63.47 44.4818 63.3868 44.4531C63.3037 44.4244 63.228 44.3776 63.1651 44.3161C63.1022 44.2547 63.0537 44.18 63.0231 44.0976C62.9925 44.0151 62.9805 43.9269 62.9881 43.8393V42.9226H62.6756V42.5655H62.9881V42.128H63.4345V42.5655H63.9375V42.9226H63.4256V43.8155C63.4256 44.003 63.5179 44.1131 63.6905 44.1131C63.7801 44.1159 63.8681 44.0887 63.9405 44.0357L64.0744 44.3542Z" fill="white"/>
<path d="M77.1786 47.6219H34.4197V59.8571H77.1786V47.6219Z" fill="white"/>
<g opacity="0.5">
<path d="M56.122 53.7857L56.5298 54.0119L56.3899 54.253L55.9762 54.0119V54.4703H55.7054V54.0149L55.2946 54.253L55.1518 54.0119L55.5625 53.7857L55.1518 53.5595L55.3066 53.3066L55.7173 53.5476V53.0923H55.9881V53.5506L56.4018 53.3066L56.5417 53.5506L56.122 53.7857Z" fill="black"/>
<path d="M57.6875 53.7857L58.0953 54.0118L57.9554 54.2529L57.5417 54.0118V54.4702H57.2709V54.0148L56.8601 54.2529L56.7173 54.0118L57.128 53.7857L56.7173 53.5595L56.8601 53.3154L57.2709 53.5565V53.1011H57.5417V53.5595L57.9554 53.3154L58.0953 53.5595L57.6875 53.7857Z" fill="black"/>
<path d="M59.2382 53.7857L59.6429 54.0118L59.506 54.2529L59.0893 54.0118V54.4702H58.8155V54.0148L58.4048 54.2529L58.262 54.0118L58.6727 53.7857L58.262 53.5595L58.4048 53.3154L58.8155 53.5565V53.1011H59.0893V53.5595L59.506 53.3154L59.6429 53.5595L59.2382 53.7857Z" fill="black"/>
<path d="M60.7946 53.7857L61.1994 54.0118L61.0625 54.2529L60.6488 54.0118V54.4702H60.378V54.0148L59.9673 54.2529L59.8244 54.0118L60.2351 53.7857L59.8244 53.5595L59.9673 53.3154L60.378 53.5565V53.1011H60.6637V53.5595L61.0774 53.3154L61.2143 53.5595L60.7946 53.7857Z" fill="black"/>
<path d="M63.2649 53.7857L63.6726 54.0119L63.5328 54.253L63.1191 54.0119V54.4703H62.8482V54.0149L62.4375 54.253L62.2947 54.0119L62.7054 53.7857L62.2947 53.5595L62.4494 53.3066L62.8602 53.5476V53.0923H63.131V53.5506L63.5447 53.3066L63.6846 53.5506L63.2649 53.7857Z" fill="black"/>
<path d="M64.8303 53.7857L65.2381 54.0118L65.0982 54.2529L64.6845 54.0118V54.4702H64.4137V54.0148L64.003 54.2529L63.8601 54.0118L64.2708 53.7857L63.8601 53.5595L64.003 53.3154L64.4137 53.5565V53.1011H64.6845V53.5595L65.0982 53.3154L65.2381 53.5595L64.8303 53.7857Z" fill="black"/>
<path d="M66.378 53.7857L66.7858 54.0118L66.6459 54.2529L66.2322 54.0118V54.4702H65.9613V54.0148L65.5506 54.2529L65.4078 54.0118L65.8185 53.7857L65.4078 53.5595L65.5506 53.3154L65.9613 53.5565V53.1011H66.2322V53.5595L66.6459 53.3154L66.7858 53.5595L66.378 53.7857Z" fill="black"/>
<path d="M67.9375 53.7857L68.3423 54.0118L68.2054 54.2529L67.7887 54.0118V54.4702H67.5179V54.0148L67.1071 54.2529L66.9643 54.0118L67.375 53.7857L66.9643 53.5595L67.1071 53.3154L67.5179 53.5565V53.1011H67.8066V53.5595L68.2232 53.3154L68.3601 53.5595L67.9375 53.7857Z" fill="black"/>
<path d="M70.4077 53.7857L70.8155 54.0119L70.6756 54.253L70.2619 54.0119V54.4703H69.9911V54.0149L69.5804 54.253L69.4375 54.0119L69.8482 53.7857L69.4375 53.5595L69.5923 53.3066L70.003 53.5476V53.0923H70.2738V53.5506L70.6875 53.3066L70.8274 53.5506L70.4077 53.7857Z" fill="black"/>
<path d="M71.9732 53.7857L72.381 54.0118L72.2411 54.2529L71.8274 54.0118V54.4702H71.5566V54.0148L71.1459 54.2529L71.003 54.0118L71.4137 53.7857L71.003 53.5595L71.1459 53.3154L71.5566 53.5565V53.1011H71.8274V53.5595L72.2411 53.3154L72.381 53.5595L71.9732 53.7857Z" fill="black"/>
<path d="M73.5208 53.7857L73.9286 54.0118L73.7887 54.2529L73.375 54.0118V54.4702H73.1042V54.0148L72.6935 54.2529L72.5536 54.0118L72.9613 53.7857L72.5536 53.5595L72.6935 53.3154L73.1042 53.5565V53.1011H73.375V53.5595L73.7887 53.3154L73.9286 53.5595L73.5208 53.7857Z" fill="black"/>
</g>
<path d="M44.4941 51.2618H38.4286C37.9799 51.2618 37.6161 51.6256 37.6161 52.0743V55.5475C37.6161 55.9963 37.9799 56.3601 38.4286 56.3601H44.4941C44.9428 56.3601 45.3066 55.9963 45.3066 55.5475V52.0743C45.3066 51.6256 44.9428 51.2618 44.4941 51.2618Z" fill="#F54748"/>
<g opacity="0.5">
<path d="M45.3066 54.0089H37.6161V55.2797H45.3066V54.0089Z" fill="black"/>
</g>
<g opacity="0.5">
<path d="M44.6875 53.1011C44.6863 53.1764 44.663 53.2497 44.6205 53.3118C44.578 53.374 44.5181 53.4222 44.4484 53.4506C44.3787 53.479 44.3021 53.4863 44.2283 53.4715C44.1545 53.4568 44.0866 53.4206 44.0332 53.3676C43.9797 53.3145 43.9431 53.247 43.9277 53.1732C43.9124 53.0995 43.9191 53.0229 43.9469 52.953C43.9748 52.883 44.0226 52.8228 44.0844 52.7798C44.1463 52.7369 44.2194 52.713 44.2946 52.7112C44.3464 52.7096 44.398 52.7186 44.4462 52.7375C44.4944 52.7565 44.5382 52.7851 44.575 52.8216C44.6118 52.8581 44.6407 52.9017 44.6601 52.9498C44.6794 52.9978 44.6887 53.0493 44.6875 53.1011Z" fill="black"/>
</g>
<path d="M44.1875 53.1011C44.1881 53.1773 44.166 53.2519 44.1241 53.3155C44.0821 53.3791 44.0222 53.4288 43.9519 53.4582C43.8816 53.4876 43.8042 53.4955 43.7294 53.4808C43.6547 53.4661 43.586 53.4294 43.5321 53.3756C43.4783 53.3217 43.4416 53.253 43.4269 53.1783C43.4122 53.1035 43.42 53.0261 43.4495 52.9558C43.4789 52.8855 43.5286 52.8256 43.5922 52.7836C43.6558 52.7417 43.7304 52.7196 43.8066 52.7202C43.9076 52.7202 44.0045 52.7603 44.0759 52.8317C44.1474 52.9032 44.1875 53.0001 44.1875 53.1011Z" fill="white"/>
<path d="M65.4256 66.6964H46.1786C43.7689 66.6964 41.8155 68.6498 41.8155 71.0594C41.8155 73.4691 43.7689 75.4225 46.1786 75.4225H65.4256C67.8353 75.4225 69.7887 73.4691 69.7887 71.0594C69.7887 68.6498 67.8353 66.6964 65.4256 66.6964Z" fill="#F54748"/>
<path d="M47.1488 70.7916C47.1322 70.4399 47.2213 70.0913 47.4046 69.7908C47.5879 69.4902 47.8571 69.2514 48.1774 69.1053C48.4977 68.9592 48.8544 68.9123 49.2016 68.9709C49.5488 69.0294 49.8705 69.1906 50.1252 69.4336C50.3799 69.6767 50.5559 69.9905 50.6306 70.3345C50.7052 70.6786 50.6751 71.0371 50.5441 71.3639C50.4131 71.6907 50.1872 71.9707 49.8955 72.1679C49.6039 72.3651 49.2598 72.4704 48.9078 72.4702C48.6804 72.4819 48.4531 72.4471 48.2397 72.368C48.0263 72.2888 47.8313 72.1669 47.6667 72.0098C47.502 71.8527 47.3711 71.6636 47.2821 71.4541C47.1931 71.2446 47.1477 71.0192 47.1488 70.7916ZM50.0536 70.7916C50.0542 70.5641 49.9872 70.3416 49.8612 70.1522C49.7352 69.9628 49.5558 69.8151 49.3458 69.7278C49.1357 69.6405 48.9045 69.6175 48.6814 69.6617C48.4583 69.706 48.2533 69.8154 48.0925 69.9763C47.9316 70.1371 47.8221 70.3421 47.7779 70.5652C47.7337 70.7883 47.7567 71.0196 47.844 71.2296C47.9313 71.4397 48.079 71.619 48.2684 71.7451C48.4578 71.8711 48.6803 71.938 48.9078 71.9374C49.0596 71.9424 49.2108 71.9161 49.3521 71.8603C49.4933 71.8045 49.6216 71.7203 49.729 71.6129C49.8364 71.5055 49.9207 71.3772 49.9765 71.2359C50.0323 71.0946 50.0586 70.9434 50.0536 70.7916Z" fill="white"/>
<path d="M53.4435 72.4225L52.7768 71.4612H51.9137V72.4136H51.3185V69.1398H52.6637C53.5209 69.1398 54.0536 69.5773 54.0536 70.3005C54.0631 70.5241 54.0006 70.7448 53.8752 70.9302C53.7499 71.1156 53.5683 71.2558 53.3572 71.3302L54.1072 72.4046L53.4435 72.4225ZM52.628 69.6755H51.9137V70.9791H52.628C53.1607 70.9791 53.4345 70.735 53.4345 70.3243C53.4345 69.9136 53.1548 69.6755 52.628 69.6755Z" fill="white"/>
<path d="M54.7113 69.1577H56.1399C57.1994 69.1577 57.9256 69.8094 57.9256 70.7916C57.9256 71.7737 57.2053 72.4225 56.1399 72.4225H54.7113V69.1577ZM56.1101 71.9106C56.8393 71.9106 57.3006 71.4672 57.3006 70.7916C57.3006 70.116 56.8304 69.6696 56.1101 69.6696H55.3184V71.9106H56.1101Z" fill="white"/>
<path d="M61.0148 71.9136V72.4225H58.5803V69.1487H60.9613V69.6755H59.1756V70.5237H60.7529V71.0237H59.1756V71.9166L61.0148 71.9136Z" fill="white"/>
<path d="M63.8244 72.4225L63.1577 71.4612H62.2946V72.4136H61.6994V69.1398H63.0446C63.9018 69.1398 64.4345 69.5773 64.4345 70.3005C64.4441 70.5241 64.3815 70.7448 64.2562 70.9302C64.1308 71.1156 63.9492 71.2558 63.7381 71.3302L64.4911 72.4046L63.8244 72.4225ZM63.0059 69.6755H62.2946V70.9791H63.0059C63.5357 70.9791 63.8125 70.735 63.8125 70.3243C63.8125 69.9136 63.5357 69.6755 63.0059 69.6755Z" fill="white"/>
<path d="M49.7589 10.6875H50.8423C51.6518 10.6875 52.2054 11.1875 52.2054 11.9375C52.2054 12.6875 51.6518 13.1875 50.8423 13.1875H49.75L49.7589 10.6875ZM50.8304 12.7946C50.9489 12.8045 51.0683 12.7897 51.1808 12.7511C51.2933 12.7125 51.3967 12.651 51.4842 12.5705C51.5718 12.4899 51.6417 12.3921 51.6895 12.2831C51.7373 12.1742 51.762 12.0565 51.762 11.9375C51.762 11.8185 51.7373 11.7008 51.6895 11.5919C51.6417 11.4829 51.5718 11.3851 51.4842 11.3045C51.3967 11.224 51.2933 11.1625 51.1808 11.1239C51.0683 11.0853 50.9489 11.0705 50.8304 11.0804H50.2351V12.7946H50.8304Z" fill="white"/>
<path d="M54.4494 12.375H52.9613C52.99 12.5136 53.0686 12.6369 53.1821 12.7214C53.2957 12.8059 53.4364 12.8457 53.5774 12.8333C53.6736 12.8373 53.7695 12.8207 53.8587 12.7848C53.948 12.7489 54.0286 12.6944 54.0953 12.6249L54.3334 12.9017C54.1895 13.0471 54.0069 13.1481 53.8073 13.1928C53.6076 13.2374 53.3994 13.2238 53.2073 13.1536C53.0152 13.0834 52.8473 12.9595 52.7235 12.7967C52.5997 12.6339 52.5252 12.439 52.5089 12.2351C52.5052 12.1052 52.5281 11.976 52.5765 11.8554C52.6248 11.7348 52.6974 11.6255 52.7898 11.5342C52.8822 11.4429 52.9925 11.3716 53.1136 11.3248C53.2348 11.2779 53.3643 11.2565 53.4941 11.2619C53.6238 11.2571 53.753 11.2794 53.8736 11.3275C53.9941 11.3756 54.1033 11.4484 54.1941 11.5411C54.2849 11.6339 54.3553 11.7446 54.4008 11.8661C54.4463 11.9877 54.4659 12.1174 54.4583 12.247C54.4583 12.2797 54.4524 12.3333 54.4494 12.375ZM52.9613 12.0773H54.0417C54.0204 11.9495 53.9544 11.8333 53.8555 11.7495C53.7566 11.6657 53.6311 11.6197 53.5015 11.6197C53.3719 11.6197 53.2464 11.6657 53.1475 11.7495C53.0486 11.8333 52.9826 11.9495 52.9613 12.0773Z" fill="white"/>
<path d="M56.0327 13.0833C55.9078 13.1719 55.7572 13.2169 55.6042 13.2113C55.5167 13.2209 55.4283 13.2109 55.3452 13.1822C55.262 13.1535 55.1863 13.1067 55.1234 13.0453C55.0605 12.9838 55.012 12.9092 54.9814 12.8267C54.9508 12.7443 54.9389 12.6561 54.9464 12.5684V11.6399H54.6339V11.2827H54.9464V10.8482H55.3928V11.2827H55.9018V11.6399H55.3899V12.5476C55.3824 12.5855 55.3838 12.6245 55.3939 12.6618C55.4041 12.699 55.4227 12.7334 55.4484 12.7622C55.474 12.791 55.506 12.8135 55.5418 12.8279C55.5776 12.8423 55.6163 12.8483 55.6548 12.8452C55.7447 12.847 55.8327 12.8187 55.9047 12.7649L56.0327 13.0833Z" fill="white"/>
<path d="M57.9851 12.0685V13.1875H57.5625V12.9554C57.4929 13.0447 57.4018 13.115 57.2978 13.1598C57.1937 13.2045 57.08 13.2222 56.9673 13.2113C56.5328 13.2113 56.256 12.9732 56.256 12.6399C56.256 12.3066 56.4703 12.0715 57.0506 12.0715H57.5417V12.0447C57.5417 11.7828 57.384 11.631 57.0655 11.631C56.8578 11.6293 56.6552 11.6951 56.4881 11.8185L56.3125 11.4941C56.5492 11.3312 56.832 11.2488 57.1191 11.259C57.6875 11.259 57.9851 11.5209 57.9851 12.0685ZM57.5387 12.5893V12.3691H57.0923C56.7947 12.3691 56.7084 12.4822 56.7084 12.6221C56.7084 12.7619 56.8423 12.8869 57.0715 12.8869C57.1723 12.893 57.2726 12.8677 57.3584 12.8143C57.4442 12.761 57.5114 12.6824 57.5506 12.5893H57.5387Z" fill="white"/>
<path d="M58.5089 10.6994C58.5091 10.6617 58.5172 10.6245 58.5327 10.5901C58.5481 10.5557 58.5705 10.525 58.5986 10.4997C58.6266 10.4745 58.6595 10.4554 58.6953 10.4437C58.7312 10.432 58.769 10.4278 58.8065 10.4315C58.8432 10.427 58.8805 10.4301 58.9159 10.4408C58.9513 10.4515 58.984 10.4694 59.0121 10.4936C59.0401 10.5177 59.0628 10.5474 59.0786 10.5808C59.0945 10.6142 59.1032 10.6505 59.1041 10.6875C59.0861 10.7493 59.0485 10.8036 58.997 10.8423C58.9455 10.8809 58.8828 10.9018 58.8184 10.9018C58.754 10.9018 58.6914 10.8809 58.6399 10.8423C58.5883 10.8036 58.5507 10.7493 58.5327 10.6875L58.5089 10.6994ZM58.5684 11.2798H59.0149V13.1875H58.5803L58.5684 11.2798Z" fill="white"/>
<path d="M59.6012 10.5387H60.0476V13.1875H59.6012V10.5387Z" fill="white"/>
<path d="M60.4167 12.997L60.5863 12.6577C60.7862 12.7802 61.0156 12.846 61.25 12.8482C61.5328 12.8482 61.6518 12.7679 61.6518 12.6369C61.6518 12.2738 60.4613 12.6161 60.4613 11.8542C60.4613 11.4941 60.7857 11.2589 61.3006 11.2589C61.5485 11.2542 61.7938 11.3104 62.0149 11.4226L61.8423 11.7619C61.6764 11.6647 61.4869 11.6152 61.2947 11.6191C61.0238 11.6191 60.8958 11.7083 60.8958 11.8333C60.8958 12.2202 62.0863 11.878 62.0863 12.622C62.0863 12.9792 61.7589 13.2173 61.2232 13.2173C60.9389 13.2224 60.659 13.146 60.4167 12.997Z" fill="white"/>
<path opacity="0.6" d="M37.8899 5.25299H38.4643V4.48513H37.8899V5.25299Z" fill="white"/>
<path opacity="0.6" d="M36.9524 5.25H37.5268V4.2262H36.9524V5.25Z" fill="white"/>
<path opacity="0.6" d="M36.0149 5.25H36.5893V3.97322H36.0149V5.25Z" fill="white"/>
<path opacity="0.6" d="M35.0804 5.25H35.6548V3.71727H35.0804V5.25Z" fill="white"/>
<path opacity="0.6" d="M74.0476 4.20538H73.7053V4.97324H74.0476V4.20538Z" fill="white"/>
<path opacity="0.6" d="M74.2797 5.25299H76.994V3.92561H74.2797V5.25299Z" fill="white"/>
<path d="M29.8989 59.6101L29.6281 61.747L24.6251 61.738L24.893 59.6011L29.8989 59.6101Z" fill="#B55B52"/>
<path d="M29.5418 62.1161C29.6162 62.4613 29.7055 63.0774 29.5001 63.3065C29.4713 63.3426 29.4338 63.3708 29.3911 63.3885C29.3484 63.4062 29.302 63.4128 29.2561 63.4077C29.2282 63.4076 29.2008 63.4001 29.1768 63.386C29.1527 63.3719 29.1329 63.3517 29.1192 63.3274C28.9674 63.0684 29.3989 62.1934 29.4466 62.0952C29.4511 62.0853 29.4589 62.0772 29.4686 62.0723C29.4784 62.0675 29.4895 62.0661 29.5001 62.0684C29.506 62.0688 29.5117 62.0703 29.517 62.0729C29.5223 62.0755 29.527 62.0792 29.5308 62.0836C29.5347 62.088 29.5377 62.0932 29.5396 62.0987C29.5414 62.1043 29.5422 62.1102 29.5418 62.1161ZM29.2025 63.2738V63.2916C29.2079 63.301 29.2157 63.3087 29.2252 63.3139C29.2346 63.3192 29.2453 63.3218 29.2561 63.3214C29.2866 63.3242 29.3174 63.3198 29.3458 63.3084C29.3743 63.297 29.3996 63.279 29.4198 63.2559C29.5329 63.122 29.5507 62.7678 29.4644 62.2946C29.3156 62.6369 29.143 63.1101 29.2025 63.2738Z" fill="#F54748"/>
<path d="M29.5418 62.116C29.5447 62.1215 29.5462 62.1277 29.5462 62.1339C29.5462 62.1401 29.5447 62.1462 29.5418 62.1517C29.4287 62.4136 28.9704 62.9404 28.7293 62.9047C28.6698 62.9047 28.6014 62.8571 28.5835 62.7172C28.5777 62.6669 28.5822 62.6159 28.5965 62.5674C28.6108 62.5188 28.6347 62.4736 28.6668 62.4345C28.8979 62.2332 29.1862 62.1094 29.4912 62.0803C29.4998 62.08 29.5083 62.0817 29.5161 62.0853C29.5239 62.0889 29.5307 62.0943 29.5359 62.1011C29.5359 62.1011 29.5418 62.1101 29.5418 62.116ZM28.6966 62.7589C28.6966 62.8005 28.7353 62.8035 28.7442 62.8035C28.8901 62.8244 29.2502 62.4672 29.4049 62.2083C29.1602 62.237 28.9303 62.341 28.7472 62.5059C28.7228 62.5343 28.7046 62.5676 28.6938 62.6034C28.6831 62.6393 28.68 62.6771 28.6847 62.7142C28.6872 62.7295 28.6912 62.7444 28.6966 62.7589Z" fill="#F54748"/>
<path d="M29.2442 61.9076L29.2174 59.5564C29.2163 59.5139 29.2299 59.4724 29.256 59.4387C29.282 59.4051 29.3188 59.3815 29.3603 59.3719L31.2621 58.9047C31.3076 58.8908 31.3557 58.8881 31.4025 58.8967C31.4493 58.9053 31.4934 58.925 31.531 58.9542C31.5686 58.9833 31.5986 59.0211 31.6187 59.0642C31.6387 59.1074 31.648 59.1547 31.646 59.2023C31.646 60.0505 31.6073 61.2856 31.6192 62.3422C31.6341 63.5892 31.5626 64.3808 31.5775 65.8422C31.5775 66.735 30.7025 66.991 30.6162 66.6219C30.2293 64.9463 30.3186 63.8541 29.4257 62.4195C29.3198 62.2686 29.2571 62.0916 29.2442 61.9076Z" fill="#263238"/>
<path opacity="0.5" d="M29.2442 61.9076L29.2174 59.5564C29.2163 59.5139 29.2299 59.4724 29.256 59.4387C29.282 59.4051 29.3188 59.3815 29.3603 59.3719L31.2621 58.9047C31.3076 58.8908 31.3557 58.8881 31.4025 58.8967C31.4493 58.9053 31.4934 58.925 31.531 58.9542C31.5686 58.9833 31.5986 59.0211 31.6187 59.0642C31.6387 59.1074 31.648 59.1547 31.646 59.2023C31.646 60.0505 31.6073 61.2856 31.6192 62.3422C31.6341 63.5892 31.5626 64.3808 31.5775 65.8422C31.5775 66.735 30.7025 66.991 30.6162 66.6219C30.2293 64.9463 30.3186 63.8541 29.4257 62.4195C29.3198 62.2686 29.2571 62.0916 29.2442 61.9076Z" fill="white"/>
<path opacity="0.2" d="M24.6251 61.738L27.2055 61.741L27.4763 59.6041L24.896 59.6011L24.6251 61.738Z" fill="black"/>
<path d="M26.6698 62.9433L27.1519 58.6219L25.762 58.4791L25.1608 63.2201L26.6698 62.9433Z" fill="#263238"/>
<path d="M21.5835 26.4584C20.8543 27.7113 20.0954 28.9167 19.2918 30.1191C18.4766 31.3513 17.5902 32.5348 16.637 33.6637C16.5061 33.8125 16.3692 33.9613 16.2144 34.1191C16.0371 34.2989 15.8482 34.4669 15.6489 34.622C15.5775 34.6756 15.515 34.7203 15.4198 34.7798L15.3513 34.8214L15.262 34.8691L15.1728 34.9137C15.1303 34.9344 15.0866 34.9523 15.0418 34.9673C14.6696 35.1086 14.2622 35.1284 13.8781 35.0238C13.6077 34.9471 13.3556 34.8166 13.137 34.6399C12.994 34.527 12.8633 34.3993 12.7472 34.2589C12.4523 33.8812 12.211 33.4645 12.0299 33.0209C11.876 32.6563 11.7419 32.2838 11.6281 31.9048C11.2069 30.4864 10.9267 29.03 10.7918 27.5566L12.3603 27.1845C12.893 28.4673 13.4287 29.7828 14.0091 30.9732C14.1549 31.2709 14.3067 31.5506 14.4614 31.8066C14.5714 32.0121 14.7119 32.1997 14.8781 32.3631C14.896 32.3631 14.9109 32.378 14.8781 32.3453C14.7994 32.2797 14.7068 32.2329 14.6073 32.2084C14.3947 32.1496 14.1691 32.1579 13.9615 32.2322L13.896 32.2619L13.8632 32.2768H13.8335C13.8126 32.2768 13.8335 32.2768 13.8335 32.2768C13.8335 32.2768 13.9525 32.1518 14.0359 32.0476C14.1192 31.9435 14.2204 31.8244 14.3126 31.6994C14.6966 31.1994 15.0835 30.6339 15.4585 30.0595C15.8335 29.4851 16.2144 28.9018 16.5805 28.3125L18.8007 24.756L21.5835 26.4584Z" fill="#B65B52"/>
<path d="M22.7174 25.0327C23.3275 26.9999 19.3394 32.4017 19.3394 32.4017L15.1727 29.7827C15.9185 28.0703 16.8476 26.4438 17.9436 24.9315C19.5924 22.7767 22.0447 22.8779 22.7174 25.0327Z" fill="#F54748"/>
<path opacity="0.7" d="M22.7174 25.0327C23.3275 26.9999 19.3394 32.4017 19.3394 32.4017L15.1727 29.7827C15.9185 28.0703 16.8476 26.4438 17.9436 24.9315C19.5924 22.7767 22.0447 22.8779 22.7174 25.0327Z" fill="white"/>
<path opacity="0.2" d="M20.0924 27.7589C19.0507 28.247 17.9525 30.0297 17.8007 31.4344L19.3394 32.4047C20.2916 31.0959 21.1451 29.7181 21.893 28.2827C21.5686 27.7856 21.2858 27.2023 20.0924 27.7589Z" fill="black"/>
<path d="M31.7085 22.0804C31.2337 24.513 30.9472 26.9787 30.8513 29.4554C30.7799 31.1339 30.7858 32.7143 30.8305 34.1339C30.9317 37.4315 31.2293 39.9018 31.1995 40.744L19.89 40.9881C17.2621 30.0744 19.4079 23.6935 19.4079 23.6935C20.2628 23.363 21.1363 23.0828 22.024 22.8542C22.2115 22.8066 22.4049 22.7619 22.6043 22.7173C24.2513 22.4179 25.9136 22.2093 27.5835 22.0923C27.9079 22.0685 28.2382 22.0506 28.5597 22.0387C30.2114 21.9762 31.7085 22.0804 31.7085 22.0804Z" fill="#F54748"/>
<path opacity="0.7" d="M30.8305 34.1339C30.9347 37.4315 31.2293 39.9018 31.1995 40.744L19.89 40.9881C17.2621 30.0744 19.4079 23.6935 19.4079 23.6935C20.2628 23.363 21.1363 23.0828 22.024 22.8542C22.2115 22.8066 22.4049 22.7619 22.6043 22.7173C24.2514 22.4181 25.9136 22.2095 27.5835 22.0923C27.9079 22.0685 28.2382 22.0506 28.5597 22.0387C30.2174 21.9762 31.7144 22.0804 31.7144 22.0804C31.3381 23.9818 31.0836 25.9054 30.9525 27.8393C30.9109 28.3869 30.8811 28.9256 30.8573 29.4554C30.8216 30.247 30.8067 31.0208 30.8037 31.7619C30.7948 32.5923 30.8097 33.3839 30.8305 34.1339Z" fill="white"/>
<path d="M24.7382 17.2232C24.8334 18.8184 25.2531 21.6875 26.5834 22.4315C26.2388 23.036 25.768 23.5591 25.2031 23.9654C24.6381 24.3716 23.9924 24.6514 23.3096 24.7857C21.9882 25.0833 21.6876 24.1905 21.8483 23.5952C23.4465 22.7678 23.0775 21.5119 22.4763 20.4107L24.7382 17.2232Z" fill="#B55B52"/>
<path opacity="0.2" d="M23.8126 18.5297L22.4644 20.4226C22.6103 20.6775 22.7319 20.9455 22.8275 21.2232C23.4555 20.9702 24.1638 20.0327 24.0597 19.3422C24.0267 19.0588 23.943 18.7836 23.8126 18.5297Z" fill="black"/>
<path d="M18.0448 14.4077C17.9376 15.2678 18.3811 16.9136 19.4198 16.1607C20.4585 15.4077 18.2293 12.9285 18.0448 14.4077Z" fill="#263238"/>
<path d="M24.1072 14.4345C24.6161 16.5179 25.0179 17.6905 24.3126 19.0417C23.2501 21.0744 20.4435 20.9018 19.3245 19.0209C18.3185 17.3274 17.6578 14.2292 19.4019 12.8215C19.7885 12.5092 20.248 12.3001 20.7374 12.2138C21.2268 12.1275 21.7301 12.1667 22.2002 12.3279C22.6704 12.489 23.0919 12.7668 23.4254 13.1353C23.7589 13.5037 23.9935 13.9508 24.1072 14.4345Z" fill="#B55B52"/>
<path d="M25.0002 12.0833H22.6192V13.4463C22.6609 13.4166 22.7115 13.3898 22.7531 13.363C22.7948 13.3362 22.9942 15.3392 24.1549 15.9642C25.649 14.7261 26.0091 12.7916 25.0002 12.0833Z" fill="#263238"/>
<path d="M25.4197 15.884C25.4163 16.4163 25.2023 16.9256 24.8245 17.3006C24.3126 17.7887 23.7174 17.4108 23.5745 16.753C23.4495 16.1578 23.5596 15.1935 24.2114 14.9673C24.3531 14.9203 24.5042 14.9084 24.6515 14.9328C24.7988 14.9573 24.938 15.0172 25.057 15.1074C25.1759 15.1977 25.2711 15.3156 25.3343 15.4509C25.3976 15.5862 25.4269 15.7348 25.4197 15.884Z" fill="#B55B52"/>
<path d="M21.1906 15.9315C21.2412 16.0982 21.1906 16.2589 21.0864 16.2917C20.9822 16.3244 20.8483 16.2173 20.7888 16.0506C20.7293 15.8839 20.7888 15.7262 20.8929 15.6934C20.9971 15.6607 21.14 15.7679 21.1906 15.9315Z" fill="#263238"/>
<path d="M19.3126 16.497C19.3632 16.6637 19.3126 16.8244 19.2085 16.8571C19.1043 16.8899 18.9704 16.7798 18.9109 16.6161C18.8513 16.4524 18.9109 16.2887 19.015 16.256C19.1192 16.2232 19.262 16.3333 19.3126 16.497Z" fill="#263238"/>
<path d="M19.9347 16.4018C19.8825 16.9525 19.7543 17.4934 19.5537 18.0089C19.6916 18.0512 19.8369 18.0638 19.9801 18.0458C20.1232 18.0279 20.2609 17.9798 20.3841 17.9048L19.9347 16.4018Z" fill="#A02724"/>
<path d="M21.4704 18.2678C21.4018 18.2992 21.3312 18.326 21.2591 18.3482C21.2526 18.35 21.2459 18.3505 21.2392 18.3496C21.2326 18.3488 21.2262 18.3467 21.2204 18.3434C21.2146 18.34 21.2095 18.3356 21.2054 18.3303C21.2013 18.325 21.1983 18.3189 21.1966 18.3125C21.1943 18.3062 21.1933 18.2996 21.1938 18.2929C21.1942 18.2863 21.196 18.2798 21.1991 18.2739C21.2022 18.2681 21.2065 18.2629 21.2117 18.2588C21.2169 18.2546 21.2229 18.2516 21.2293 18.25C21.4371 18.1931 21.6283 18.0875 21.7871 17.9421C21.946 17.7967 22.068 17.6155 22.143 17.4136C22.1447 17.4072 22.1477 17.4012 22.1518 17.396C22.1559 17.3908 22.1611 17.3865 22.167 17.3834C22.1729 17.3803 22.1794 17.3785 22.186 17.3781C22.1926 17.3777 22.1993 17.3786 22.2055 17.3809C22.212 17.3826 22.218 17.3856 22.2234 17.3897C22.2287 17.3938 22.2331 17.3989 22.2364 17.4047C22.2397 17.4105 22.2419 17.4169 22.2427 17.4236C22.2435 17.4302 22.243 17.437 22.2412 17.4434C22.1767 17.6267 22.0749 17.7945 21.9422 17.9364C21.8096 18.0783 21.6489 18.1912 21.4704 18.2678Z" fill="#263238"/>
<path d="M21.5805 15.1547C21.565 15.1633 21.5476 15.1678 21.5299 15.1678C21.5122 15.1678 21.4948 15.1633 21.4793 15.1547C21.3778 15.0759 21.259 15.0224 21.1327 14.9986C21.0065 14.9748 20.8763 14.9814 20.7531 15.0178C20.7274 15.0268 20.6992 15.0256 20.6744 15.0145C20.6495 15.0035 20.6298 14.9834 20.6192 14.9583C20.6144 14.9458 20.6122 14.9325 20.6126 14.9191C20.613 14.9057 20.6161 14.8926 20.6216 14.8804C20.6272 14.8682 20.635 14.8573 20.6448 14.8482C20.6546 14.8391 20.6661 14.832 20.6787 14.8274C20.834 14.7795 20.9984 14.7694 21.1583 14.7978C21.3183 14.8263 21.4691 14.8925 21.5983 14.991C21.6199 15.0066 21.6344 15.0299 21.6389 15.0561C21.6433 15.0823 21.6373 15.1091 21.6222 15.1309C21.6107 15.1425 21.5963 15.1507 21.5805 15.1547Z" fill="#263238"/>
<path d="M18.3037 16.1041C18.2841 16.1087 18.2637 16.1087 18.2442 16.1041C18.2179 16.099 18.1944 16.0843 18.1785 16.0628C18.1625 16.0413 18.1551 16.0147 18.1578 15.988C18.1792 15.8284 18.2388 15.6764 18.3316 15.5448C18.4243 15.4132 18.5475 15.3059 18.6906 15.2321C18.7027 15.2266 18.7158 15.2236 18.7291 15.2231C18.7423 15.2227 18.7556 15.2249 18.768 15.2296C18.7805 15.2343 18.7919 15.2414 18.8015 15.2505C18.8112 15.2596 18.819 15.2705 18.8245 15.2827C18.8304 15.2947 18.8338 15.3078 18.8344 15.3212C18.835 15.3346 18.8329 15.348 18.8282 15.3606C18.8234 15.3731 18.8162 15.3846 18.8068 15.3942C18.7975 15.4038 18.7863 15.4115 18.7739 15.4166C18.6618 15.4747 18.5655 15.5593 18.4934 15.663C18.4213 15.7667 18.3756 15.8865 18.3602 16.0118C18.3613 16.0311 18.3564 16.0503 18.3463 16.0668C18.3362 16.0833 18.3213 16.0963 18.3037 16.1041Z" fill="#263238"/>
<path d="M23.518 13.8393C23.475 13.8795 23.4282 13.9154 23.3781 13.9464C23.2453 14.0354 23.092 14.0892 22.9327 14.1028C22.7734 14.1163 22.6133 14.0891 22.4674 14.0238C21.8722 13.7619 21.6043 12.0982 19.9674 13.0268C19.7845 12.994 19.596 13.0142 19.4242 13.0848C19.2523 13.1554 19.1042 13.2737 18.9972 13.4256C18.5894 13.9732 18.9763 15.8869 18.0418 15.6607C17.1073 15.4345 17.2591 15.1458 17.2591 15.1458C17.2591 15.1458 17.5239 15.2976 17.6698 15.1607C17.5289 15.052 17.4249 14.9026 17.3717 14.7328C17.3184 14.563 17.3186 14.381 17.3722 14.2113C17.3722 14.2113 17.6073 14.4673 17.7561 14.4077C17.5655 13.6353 17.6164 12.823 17.9019 12.0804C18.3751 10.7292 21.6519 10.875 21.6519 10.875C21.6519 10.875 22.0329 10.1696 23.5299 10.5774C25.0269 10.9851 25.7799 12.7351 25.5835 13.5208" fill="#263238"/>
<path d="M27.8394 63.3006C25.018 63.869 22.6013 64.2708 20.5418 64.5238C11.1073 65.6786 9.12511 63.6786 9.89892 59.9167C10.9703 54.6934 19.6459 43.9048 19.6459 43.9048V39.6161H21.6013L24.6221 39.3899L24.6876 45.6667L24.7531 51.7381C24.7531 51.7381 22.4614 53.7679 20.4436 55.744C18.6965 57.4553 17.1549 59.122 17.4674 59.3958C17.7025 59.5922 18.8692 59.622 20.3186 59.5774C23.2084 59.4881 27.2233 59.0923 27.2233 59.0923L27.8394 63.3006Z" fill="#F54748"/>
<path opacity="0.2" d="M24.7531 51.738C24.7531 51.738 22.4615 53.7678 20.4436 55.744C20.4853 51.5565 23.6519 44.6755 23.6519 44.6755L24.6876 45.6666L24.7531 51.738Z" fill="black"/>
<path opacity="0.2" d="M27.8394 63.3005C25.018 63.869 22.6013 64.2708 20.5418 64.5238C20.2206 62.8952 20.1504 61.2271 20.3335 59.5773C23.2234 59.4881 27.2382 59.0922 27.2382 59.0922L27.8394 63.3005Z" fill="black"/>
<path d="M31.0745 50.4047C30.5299 55.4434 25.1787 83.3213 25.1787 83.3213H21.259L22.89 49.5922L21.6013 39.616L31.3007 38.8898C31.3007 38.8898 31.3691 39.8333 31.4049 41.3422C31.4049 41.7767 31.4227 42.2559 31.4257 42.7767C31.4515 45.324 31.3343 47.8706 31.0745 50.4047Z" fill="#F54748"/>
<path d="M21.509 87.6011H23.6578L24.268 82.6249H22.1192L21.509 87.6011Z" fill="#B55B52"/>
<path opacity="0.2" d="M22.1192 82.6249H24.268L23.9525 85.1904H21.8037L22.1192 82.6249Z" fill="black"/>
<path d="M25.4614 83.9463H20.8275L20.8423 82.5624L25.6816 82.2826L25.4614 83.9463Z" fill="#263238"/>
<path d="M20.6579 87.7261C20.511 87.7372 20.3645 87.6996 20.2412 87.619C20.2029 87.5858 20.1732 87.5438 20.1545 87.4967C20.1359 87.4495 20.1288 87.3986 20.1341 87.3482C20.1343 87.3188 20.1425 87.29 20.1576 87.2649C20.1728 87.2398 20.1945 87.2192 20.2204 87.2053C20.4555 87.0833 21.1549 87.5029 21.2323 87.5565C21.241 87.5621 21.2479 87.5702 21.2522 87.5797C21.2564 87.5893 21.2577 87.5998 21.2561 87.6101C21.2542 87.6195 21.2499 87.6282 21.2436 87.6355C21.2374 87.6428 21.2294 87.6484 21.2204 87.6517C21.0362 87.6974 20.8476 87.7223 20.6579 87.7261ZM20.3335 87.2827C20.3119 87.2776 20.2895 87.2776 20.268 87.2827C20.2576 87.2887 20.2491 87.2974 20.2433 87.3079C20.2375 87.3184 20.2347 87.3302 20.2353 87.3422C20.2312 87.3765 20.2356 87.4112 20.248 87.4434C20.2605 87.4755 20.2806 87.5042 20.3067 87.5267C20.547 87.6381 20.8212 87.652 21.0716 87.5654C20.8458 87.4249 20.5953 87.329 20.3335 87.2827Z" fill="#F54748"/>
<path d="M21.2055 87.6517H21.1817C20.9584 87.5297 20.5239 87.0565 20.5686 86.8213C20.575 86.7835 20.5947 86.7492 20.6241 86.7246C20.6536 86.7001 20.6909 86.6869 20.7293 86.6874C20.8075 86.6797 20.8856 86.7032 20.9465 86.7529C21.1965 86.9553 21.2442 87.5773 21.2442 87.6041C21.2454 87.6127 21.2442 87.6216 21.2405 87.6295C21.2368 87.6375 21.2308 87.6441 21.2233 87.6487C21.2176 87.6508 21.2115 87.6518 21.2055 87.6517ZM20.765 86.7797H20.7412C20.6757 86.7797 20.6698 86.8184 20.6668 86.8303C20.643 86.9731 20.9198 87.3273 21.143 87.494C21.1237 87.2489 21.0326 87.0149 20.8811 86.8213C20.8485 86.7941 20.8074 86.7793 20.765 86.7797Z" fill="#F54748"/>
<path d="M21.3781 87.3512H24.0001C24.043 87.352 24.0844 87.3671 24.1179 87.394C24.1513 87.421 24.1748 87.4583 24.1847 87.5L24.6281 89.4077C24.6384 89.4542 24.6381 89.5025 24.6272 89.5488C24.6162 89.5952 24.5949 89.6384 24.5648 89.6754C24.5348 89.7123 24.4967 89.742 24.4536 89.7621C24.4104 89.7823 24.3632 89.7924 24.3156 89.7917C23.4733 89.7917 22.8573 89.7262 21.7948 89.7262C21.143 89.7262 19.1728 89.7946 18.271 89.7946C17.3692 89.7946 17.2442 88.9018 17.6103 88.8214C19.265 88.4613 20.5061 87.9613 21.0329 87.4851C21.1269 87.3985 21.2502 87.3506 21.3781 87.3512Z" fill="#263238"/>
<path opacity="0.5" d="M21.3781 87.3512H24.0001C24.043 87.352 24.0844 87.3671 24.1179 87.394C24.1513 87.421 24.1748 87.4583 24.1847 87.5L24.6281 89.4077C24.6384 89.4542 24.6381 89.5025 24.6272 89.5488C24.6162 89.5952 24.5949 89.6384 24.5648 89.6754C24.5348 89.7123 24.4967 89.742 24.4536 89.7621C24.4104 89.7823 24.3632 89.7924 24.3156 89.7917C23.4733 89.7917 22.8573 89.7262 21.7948 89.7262C21.143 89.7262 19.1728 89.7946 18.271 89.7946C17.3692 89.7946 17.2442 88.9018 17.6103 88.8214C19.265 88.4613 20.5061 87.9613 21.0329 87.4851C21.1269 87.3985 21.2502 87.3506 21.3781 87.3512Z" fill="white"/>
<path d="M23.265 24.7946C23.265 24.7946 23.9197 25.3066 24.6578 25.7917C25.4108 25.125 27.1429 23.4107 26.7917 22.2917C26.617 22.084 26.3765 21.9422 26.1102 21.8899C25.3243 23.005 24.3636 23.9859 23.265 24.7946Z" fill="white"/>
<path d="M23.265 24.7946C22.9194 25.2614 22.6409 25.7743 22.4376 26.3184C21.7114 26.0208 21.5597 23.8273 21.7382 23.5386C21.9405 23.2988 22.2134 23.129 22.518 23.0535C22.518 23.0535 22.2114 24.7857 23.265 24.7946Z" fill="white"/>
<path opacity="0.2" d="M31.4257 42.7767C31.1169 42.9758 30.7825 43.132 30.4316 43.241L29.2917 40.6964C30.0457 40.6895 30.7836 40.915 31.4048 41.3422C31.4167 41.7767 31.4227 42.2559 31.4257 42.7767Z" fill="black"/>
<path opacity="0.2" d="M30.9465 27.8392C30.9049 28.3868 30.8751 28.9255 30.8513 29.4553C30.8156 30.247 30.8007 31.0208 30.7977 31.7618C29.765 30.3928 30.0656 27.6428 30.0656 27.6428C30.3721 27.6207 30.6784 27.689 30.9465 27.8392Z" fill="black"/>
<path d="M33.0864 23.6785C33.8467 25.1427 34.5156 26.6525 35.0894 28.1994C35.3842 28.9925 35.6385 29.8001 35.8513 30.619C35.9555 31.0416 36.0507 31.4732 36.1221 31.9315C36.2035 32.4331 36.2315 32.9419 36.2055 33.4494C36.1956 33.603 36.1777 33.7559 36.1519 33.9077C36.134 33.994 36.1221 34.0714 36.0983 34.1607L36.0626 34.2916L36.0299 34.3809C35.9465 34.616 35.8632 34.863 35.7709 35.0595C35.5894 35.4791 35.393 35.8511 35.1936 36.2261C34.8007 36.9672 34.3692 37.6607 33.9346 38.3452C33.0624 39.7084 32.1217 41.0265 31.1162 42.2946L29.7471 41.4374L31.7561 37.1517C32.0894 36.4434 32.4049 35.7321 32.6965 35.0357C32.8394 34.6904 32.9733 34.3392 33.0775 34.0178C33.143 33.8482 33.1698 33.7202 33.2114 33.5714L33.2263 33.5178V33.3273C33.2109 33.0396 33.1701 32.7537 33.1043 32.4732C33.0358 32.1488 32.9406 31.8095 32.8334 31.4642C32.6132 30.7738 32.3513 30.0684 32.0656 29.363C31.4971 27.9613 30.8424 26.5267 30.1846 25.1696L33.0864 23.6785Z" fill="#B65B52"/>
<path d="M32.3365 22.2262C34.2323 23.0357 36.0507 28.9017 36.0507 28.9017L31.0656 30.6131C30.3117 28.9647 29.709 27.2513 29.265 25.494C28.5984 22.6726 30.0388 21.247 32.3365 22.2262Z" fill="#F54748"/>
<path opacity="0.7" d="M32.3365 22.2262C34.2323 23.0357 36.0507 28.9017 36.0507 28.9017L31.0656 30.6131C30.3117 28.9647 29.709 27.2513 29.265 25.494C28.5984 22.6726 30.0388 21.247 32.3365 22.2262Z" fill="white"/>
<path d="M29.0626 40.5475C29.0626 40.5475 31.1459 41.8749 31.6459 42.6547C31.6459 42.6547 31.3096 46.1725 29.8989 45.9285C28.4882 45.6844 27.9912 43.3154 29.0626 40.5475Z" fill="#F54748"/>
<path d="M25.4198 28.1279L28.1341 27.7529V30.9851C28.1341 30.9851 26.6638 31.8303 25.5746 31.241L25.4198 28.1279Z" fill="white"/>
<path d="M14.9109 27.0327C14.9203 27.0607 14.9237 27.0903 14.9206 27.1197C14.9176 27.149 14.9083 27.1774 14.8933 27.2028C14.8783 27.2282 14.8581 27.2501 14.8339 27.267C14.8097 27.2838 14.7822 27.2953 14.7531 27.3006L12.4942 27.75C12.432 27.7594 12.3684 27.7471 12.3142 27.7151C12.26 27.6831 12.2185 27.6334 12.1966 27.5744L10.8067 23.2143C10.7966 23.1848 10.7925 23.1536 10.7946 23.1225C10.7968 23.0914 10.8052 23.061 10.8194 23.0333C10.8336 23.0055 10.8532 22.9808 10.8771 22.9608C10.901 22.9408 10.9287 22.9258 10.9585 22.9167L13.2174 22.4673C13.2827 22.4641 13.3472 22.4825 13.401 22.5196C13.4548 22.5567 13.4949 22.6105 13.515 22.6726L14.9109 27.0327Z" fill="#263238"/>
<path opacity="0.3" d="M13.2621 22.6935L14.6698 27.0952C14.6818 27.1199 14.6878 27.1472 14.6872 27.1746C14.6867 27.2021 14.6795 27.2291 14.6664 27.2532C14.6533 27.2774 14.6346 27.2981 14.6119 27.3136C14.5892 27.329 14.5631 27.3389 14.5359 27.3423L12.6192 27.7113C12.4912 27.7381 12.2412 27.7113 12.2025 27.5893L10.7918 23.1756C10.7531 23.0506 10.9496 22.9048 11.0894 22.878L13.0031 22.4941C13.0636 22.488 13.1241 22.5052 13.1722 22.5423C13.2203 22.5794 13.2525 22.6335 13.2621 22.6935Z" fill="white"/>
<path d="M10.884 28.5239L10.762 26.3364L13.009 27.259C13.009 27.259 13.009 29.2173 11.9942 29.1697L10.884 28.5239Z" fill="#B55B52"/>
<path d="M11.7829 24.4226L13.4465 25.872L13.009 27.2589L10.762 26.3363L11.7829 24.4226Z" fill="#B55B52"/>
</svg>
