<svg width="85" height="12" viewBox="0 0 85 12" fill="none" xmlns="http://www.w3.org/2000/svg">
<path d="M11.4735 4.58951C11.442 4.49694 11.3842 4.4156 11.307 4.35554C11.2299 4.29547 11.1369 4.25931 11.0395 4.25151L8.18895 4.02501L6.95545 1.29451C6.91617 1.20656 6.85227 1.13187 6.77147 1.07944C6.69068 1.027 6.59643 0.999076 6.50011 0.999024C6.4038 0.998971 6.30952 1.02679 6.22866 1.07914C6.14781 1.13148 6.08383 1.20611 6.04445 1.29401L4.81095 4.02501L1.96045 4.25151C1.86468 4.25909 1.77312 4.29411 1.69673 4.35237C1.62034 4.41063 1.56235 4.48967 1.5297 4.58002C1.49705 4.67038 1.49112 4.76822 1.51262 4.86186C1.53413 4.95549 1.58215 5.04095 1.65095 5.10801L3.75745 7.16151L3.01245 10.3875C2.98983 10.4852 2.99708 10.5874 3.03326 10.6808C3.06944 10.7743 3.13288 10.8548 3.21535 10.9117C3.29782 10.9687 3.39551 10.9996 3.49574 11.0003C3.59598 11.0011 3.69412 10.9717 3.77745 10.916L6.49995 9.10101L9.22245 10.916C9.30762 10.9726 9.40806 11.0017 9.51027 10.9994C9.61247 10.9972 9.71154 10.9637 9.79415 10.9035C9.87676 10.8432 9.93894 10.7592 9.97233 10.6625C10.0057 10.5659 10.0087 10.4614 9.98095 10.363L9.06645 7.16301L11.3345 5.12201C11.483 4.98801 11.5375 4.77901 11.4735 4.58951V4.58951Z" fill="#F2C94C"/>
<path d="M29.4734 4.58951C29.442 4.49694 29.3841 4.4156 29.307 4.35554C29.2299 4.29547 29.1368 4.25931 29.0394 4.25151L26.1889 4.02501L24.9554 1.29451C24.9161 1.20656 24.8522 1.13187 24.7714 1.07944C24.6906 1.027 24.5964 0.999076 24.5001 0.999024C24.4037 0.998971 24.3095 1.02679 24.2286 1.07914C24.1477 1.13148 24.0838 1.20611 24.0444 1.29401L22.8109 4.02501L19.9604 4.25151C19.8646 4.25909 19.7731 4.29411 19.6967 4.35237C19.6203 4.41063 19.5623 4.48967 19.5296 4.58002C19.497 4.67038 19.4911 4.76822 19.5126 4.86186C19.5341 4.95549 19.5821 5.04095 19.6509 5.10801L21.7574 7.16151L21.0124 10.3875C20.9898 10.4852 20.997 10.5874 21.0332 10.6808C21.0694 10.7743 21.1328 10.8548 21.2153 10.9117C21.2978 10.9687 21.3955 10.9996 21.4957 11.0003C21.5959 11.0011 21.6941 10.9717 21.7774 10.916L24.4999 9.10101L27.2224 10.916C27.3076 10.9726 27.408 11.0017 27.5102 10.9994C27.6124 10.9972 27.7115 10.9637 27.7941 10.9035C27.8767 10.8432 27.9389 10.7592 27.9723 10.6625C28.0057 10.5659 28.0087 10.4614 27.9809 10.363L27.0664 7.16301L29.3344 5.12201C29.4829 4.98801 29.5374 4.77901 29.4734 4.58951V4.58951Z" fill="#F2C94C"/>
<path d="M47.4734 4.58951C47.442 4.49694 47.3841 4.4156 47.307 4.35554C47.2299 4.29547 47.1368 4.25931 47.0394 4.25151L44.1889 4.02501L42.9554 1.29451C42.9161 1.20656 42.8522 1.13187 42.7714 1.07944C42.6906 1.027 42.5964 0.999076 42.5001 0.999024C42.4037 0.998971 42.3095 1.02679 42.2286 1.07914C42.1477 1.13148 42.0838 1.20611 42.0444 1.29401L40.8109 4.02501L37.9604 4.25151C37.8646 4.25909 37.7731 4.29411 37.6967 4.35237C37.6203 4.41063 37.5623 4.48967 37.5296 4.58002C37.497 4.67038 37.4911 4.76822 37.5126 4.86186C37.5341 4.95549 37.5821 5.04095 37.6509 5.10801L39.7574 7.16151L39.0124 10.3875C38.9898 10.4852 38.997 10.5874 39.0332 10.6808C39.0694 10.7743 39.1328 10.8548 39.2153 10.9117C39.2978 10.9687 39.3955 10.9996 39.4957 11.0003C39.5959 11.0011 39.6941 10.9717 39.7774 10.916L42.4999 9.10101L45.2224 10.916C45.3076 10.9726 45.408 11.0017 45.5102 10.9994C45.6124 10.9972 45.7115 10.9637 45.7941 10.9035C45.8767 10.8432 45.9389 10.7592 45.9723 10.6625C46.0057 10.5659 46.0087 10.4614 45.9809 10.363L45.0664 7.16301L47.3344 5.12201C47.4829 4.98801 47.5374 4.77901 47.4734 4.58951V4.58951Z" fill="#F2C94C"/>
<path d="M65.4734 4.58951C65.442 4.49694 65.3841 4.4156 65.307 4.35554C65.2299 4.29547 65.1368 4.25931 65.0394 4.25151L62.1889 4.02501L60.9554 1.29451C60.9161 1.20656 60.8522 1.13187 60.7714 1.07944C60.6906 1.027 60.5964 0.999076 60.5001 0.999024C60.4037 0.998971 60.3095 1.02679 60.2286 1.07914C60.1477 1.13148 60.0838 1.20611 60.0444 1.29401L58.8109 4.02501L55.9604 4.25151C55.8646 4.25909 55.7731 4.29411 55.6967 4.35237C55.6203 4.41063 55.5623 4.48967 55.5296 4.58002C55.497 4.67038 55.4911 4.76822 55.5126 4.86186C55.5341 4.95549 55.5821 5.04095 55.6509 5.10801L57.7574 7.16151L57.0124 10.3875C56.9898 10.4852 56.997 10.5874 57.0332 10.6808C57.0694 10.7743 57.1328 10.8548 57.2153 10.9117C57.2978 10.9687 57.3955 10.9996 57.4957 11.0003C57.5959 11.0011 57.6941 10.9717 57.7774 10.916L60.4999 9.10101L63.2224 10.916C63.3076 10.9726 63.408 11.0017 63.5102 10.9994C63.6124 10.9972 63.7115 10.9637 63.7941 10.9035C63.8767 10.8432 63.9389 10.7592 63.9723 10.6625C64.0057 10.5659 64.0087 10.4614 63.9809 10.363L63.0664 7.16301L65.3344 5.12201C65.4829 4.98801 65.5374 4.77901 65.4734 4.58951V4.58951Z" fill="#F2C94C"/>
<path d="M83.4734 4.58951C83.442 4.49694 83.3841 4.4156 83.307 4.35554C83.2299 4.29547 83.1368 4.25931 83.0394 4.25151L80.1889 4.02501L78.9554 1.29451C78.9161 1.20656 78.8522 1.13187 78.7714 1.07944C78.6906 1.027 78.5964 0.999076 78.5001 0.999024C78.4037 0.998971 78.3095 1.02679 78.2286 1.07914C78.1477 1.13148 78.0838 1.20611 78.0444 1.29401L76.8109 4.02501L73.9604 4.25151C73.8646 4.25909 73.7731 4.29411 73.6967 4.35237C73.6203 4.41063 73.5623 4.48967 73.5296 4.58002C73.497 4.67038 73.4911 4.76822 73.5126 4.86186C73.5341 4.95549 73.5821 5.04095 73.6509 5.10801L75.7574 7.16151L75.0124 10.3875C74.9898 10.4852 74.997 10.5874 75.0332 10.6808C75.0694 10.7743 75.1328 10.8548 75.2153 10.9117C75.2978 10.9687 75.3955 10.9996 75.4957 11.0003C75.5959 11.0011 75.6941 10.9717 75.7774 10.916L78.4999 9.10101L81.2224 10.916C81.3076 10.9726 81.408 11.0017 81.5102 10.9994C81.6124 10.9972 81.7115 10.9637 81.7941 10.9035C81.8767 10.8432 81.9389 10.7592 81.9723 10.6625C82.0057 10.5659 82.0087 10.4614 81.9809 10.363L81.0664 7.16301L83.3344 5.12201C83.4829 4.98801 83.5374 4.77901 83.4734 4.58951V4.58951Z" fill="#F2C94C"/>
</svg>
