<svg width="21" height="21" viewBox="0 0 21 21" fill="none" xmlns="http://www.w3.org/2000/svg">
<path d="M17.673 9.94394L3.92296 3.06894C3.81519 3.01504 3.69414 2.99345 3.57439 3.00675C3.45463 3.02006 3.34127 3.0677 3.24796 3.14394C3.15885 3.21862 3.09234 3.31668 3.05591 3.42709C3.01947 3.5375 3.01455 3.65589 3.04171 3.76894L4.89171 10.5002L3.01671 17.2127C2.99123 17.3071 2.98825 17.4062 3.00803 17.5019C3.0278 17.5977 3.06977 17.6875 3.13056 17.7641C3.19135 17.8407 3.26927 17.902 3.35805 17.943C3.44682 17.984 3.54398 18.0036 3.64171 18.0002C3.73955 17.9996 3.83589 17.9761 3.92296 17.9314L17.673 11.0564C17.7753 11.004 17.8613 10.9243 17.9212 10.8262C17.9812 10.728 18.013 10.6152 18.013 10.5002C18.013 10.3852 17.9812 10.2724 17.9212 10.1742C17.8613 10.0761 17.7753 9.99639 17.673 9.94394ZM4.61046 16.1939L5.99171 11.1252H11.7667V9.87519H5.99171L4.61046 4.80644L15.9917 10.5002L4.61046 16.1939Z" fill="#EB5757" stroke="#EB5757" stroke-width="0.5"/>
</svg>
